{
.appVersion = "1206";
copyright = "Copyright © 2019 by Noir Blanc Rouge. All rights reserved.";
customParameters = (
{
name = glyphOrder;
value = (
.notdef,
.null,
CR,
space,
A,
B,
C,
D,
E,
F,
G,
H,
I,
J,
K,
L,
M,
N,
O,
P,
Q,
R,
S,
T,
U,
V,
W,
X,
Y,
Z,
bracketleft,
backslash,
bracketright,
a,
b,
c,
d,
e,
f,
h,
g,
i,
j,
k,
l,
m,
n,
o,
p,
q,
r,
s,
t,
u,
v,
w,
x,
y,
z,
zero,
one,
two,
three,
four,
six,
five,
seven,
eight,
nine,
grave,
agrave,
asciicircum,
circumflex,
acircumflex,
acute,
dieresis,
ccedilla,
_0015,
Egrave,
Eacute,
Ecircumflex,
Edieresis,
Igrave,
Iacute,
Icircumflex,
Idieresis,
Ograve,
Oacute,
Ocircumflex,
Odieresis,
Ugrave,
Uacute,
Ucircumflex,
Udieresis,
Yacute,
aacute,
atilde,
adieresis,
egrave,
eacute,
ecircumflex,
edieresis,
igrave,
iacute,
idieresis,
ograve,
oacute,
ocircumflex,
odieresis,
ugrave,
uacute,
ucircumflex,
udieresis,
yacute,
ydieresis,
AE,
Ccedilla,
fi,
ampersand,
parenleft,
parenright,
slash,
ae,
OE,
oe,
icircumflex,
section,
dagger,
hyphen,
guillemotleft,
guillemotright,
asterisk,
colon,
semicolon,
comma,
question,
exclam,
less,
greater,
equal,
plus,
period,
underscore,
bar,
fl,
guilsinglleft,
guilsinglright,
asciitilde,
tilde,
Otilde,
Ntilde,
ntilde,
otilde,
ring,
aring,
caron,
Ydieresis,
exclamdown,
Zcaron,
zcaron,
dotlessi,
Lslash,
lslash,
quotesingle,
quotedbl,
fraction,
twosuperior,
threesuperior,
onesuperior,
ordmasculine,
onequarter,
onehalf,
threequarters,
questiondown,
cedilla,
periodcentered,
bullet,
numbersign,
dollar,
percent,
at,
_0024,
ff,
mu,
Agrave,
Aacute,
Acircumflex,
Atilde,
Adieresis,
florin,
Aring,
multiply,
Oslash,
oslash,
endash,
emdash,
divide,
scaron,
cent,
Euro,
ellipsis,
quotesinglbase,
quoteleft,
quoteright,
quotedblleft,
quotedblright,
trademark,
yen,
daggerdbl,
Scaron,
hungarumlaut,
copyright,
ordfeminine,
logicalnot,
minus,
registered,
degree,
plusminus,
macron,
eth,
Eth,
paragraph,
braceleft,
braceright,
thorn,
germandbls,
Thorn,
sterling,
currency,
brokenbar,
perthousand,
quotedblbase,
ogonek,

glyphs = (
{
glyphname = A;
layers = (
{
layerId = "C5490108-C233-4ADF-8B6D-CFE8E3B23812";
paths = (
{
closed = 1;
nodes = (
"556 29 OFFCURVE",
"553 46 OFFCURVE",
"545 58 CURVE",
"542 75 OFFCURVE",
"535 89 OFFCURVE",
"528 101 CURVE",
"523 116 OFFCURVE",
"516 129 OFFCURVE",
"510 143 CURVE",
"511 156 OFFCURVE",
"505 162 OFFCURVE",
"504 172 CURVE",
"495 182 OFFCURVE",
"486 191 OFFCURVE",
"482 205 CURVE",
"481 210 OFFCURVE",
"483 215 OFFCURVE",
"480 222 CURVE SMOOTH",
"477 229 OFFCURVE",
"473 235 OFFCURVE",
"472 244 CURVE",
"465 252 OFFCURVE",
"461 264 OFFCURVE",
"455 273 CURVE",
"451 290 OFFCURVE",
"444 303 OFFCURVE",
"436 317 CURVE",
"427 340 OFFCURVE",
"416 361 OFFCURVE",
"408 386 CURVE SMOOTH",
"406 392 OFFCURVE",
"403 397 OFFCURVE",
"402 403 CURVE",
"399 409 OFFCURVE",
"394 412 OFFCURVE",
"394 421 CURVE",
"387 430 OFFCURVE",
"383 444 OFFCURVE",
"376 454 CURVE",
"376 467 OFFCURVE",
"370 474 OFFCURVE",
"365 482 CURVE",
"363 486 OFFCURVE",
"361 491 OFFCURVE",
"357 493 CURVE",
"355 498 OFFCURVE",
"349 512 OFFCURVE",
"350 519 CURVE",
"347 533 OFFCURVE",
"340 544 OFFCURVE",
"331 552 CURVE",
"333 554 OFFCURVE",
"332 561 OFFCURVE",
"332 566 CURVE",
"327 574 OFFCURVE",
"324 584 OFFCURVE",
"320 593 CURVE",
"319 596 OFFCURVE",
"317 599 OFFCURVE",
"318 604 CURVE",
"307 621 OFFCURVE",
"301 644 OFFCURVE",
"296 667 CURVE",
"288 673 OFFCURVE",
"291 691 OFFCURVE",
"277 692 CURVE",
"264 687 OFFCURVE",
"263 670 OFFCURVE",
"260 657 CURVE",
"256 644 OFFCURVE",
"250 630 OFFCURVE",
"249 616 CURVE",
"245 613 OFFCURVE",
"223 552 OFFCURVE",
"219 547 CURVE",
"219 539 OFFCURVE",
"214 536 OFFCURVE",
"214 528 CURVE",
"200 510 OFFCURVE",
"179 459 OFFCURVE",
"177 449 CURVE",
"174 439 OFFCURVE",
"156 383 OFFCURVE",
"149 377 CURVE",
"148 369 OFFCURVE",
"145 356 OFFCURVE",
"143 353 CURVE SMOOTH",
"141 350 OFFCURVE",
"135 351 OFFCURVE",
"135 345 CURVE",
"134 344 OFFCURVE",
"137 335 OFFCURVE",
"134 331 CURVE",
"130 324 OFFCURVE",
"120 301 OFFCURVE",
"116 298 CURVE",
"117 290 OFFCURVE",
"104 264 OFFCURVE",
"100 255 CURVE",
"97 239 OFFCURVE",
"86 230 OFFCURVE",
"85 211 CURVE",
"76 202 OFFCURVE",
"75 186 OFFCURVE",
"66 176 CURVE",
"63 160 OFFCURVE",
"58 146 OFFCURVE",
"52 134 CURVE",
"49 132 OFFCURVE",
"50 126 OFFCURVE",
"50 121 CURVE",
"34 106 OFFCURVE",
"32 77 OFFCURVE",
"19 58 CURVE",
"18 47 OFFCURVE",
"16 36 OFFCURVE",
"14 25 CURVE",
"20 15 OFFCURVE",
"35 7 OFFCURVE",
"52 13 CURVE",
"62 40 OFFCURVE",
"72 66 OFFCURVE",
"85 91 CURVE",
"84 97 OFFCURVE",
"85 103 OFFCURVE",
"86 107 CURVE",
"92 122 OFFCURVE",
"102 133 OFFCURVE",
"105 151 CURVE",
"112 166 OFFCURVE",
"117 182 OFFCURVE",
"119 200 CURVE",
"127 207 OFFCURVE",
"129 218 OFFCURVE",
"132 228 CURVE",
"138 231 OFFCURVE",
"144 234 OFFCURVE",
"151 236 CURVE",
"172 227 OFFCURVE",
"202 236 OFFCURVE",
"225 228 CURVE",
"280 231 OFFCURVE",
"344 228 OFFCURVE",
"397 230 CURVE",
"404 230 OFFCURVE",
"405 234 OFFCURVE",
"413 233 CURVE",
"417 230 OFFCURVE",
"423 229 OFFCURVE",
"427 225 CURVE",
"429 216 OFFCURVE",
"433 208 OFFCURVE",
"433 197 CURVE",
"443 189 OFFCURVE",
"447 175 OFFCURVE",
"450 161 CURVE",
"455 156 OFFCURVE",
"458 150 OFFCURVE",
"461 143 CURVE",
"468 122 OFFCURVE",
"474 99 OFFCURVE",
"485 82 CURVE",
"487 67 OFFCURVE",
"495 59 OFFCURVE",
"496 44 CURVE",
"506 34 OFFCURVE",
"508 16 OFFCURVE",
"517 5 CURVE",
"521 5 OFFCURVE",
"524 0 OFFCURVE",
"529 -2 CURVE",
"542 -4 OFFCURVE",
"561 1 OFFCURVE",
"562 13 CURVE",
"562 16 LINE"
);
},
{
closed = 1;
nodes = (
"407 289 OFFCURVE",
"398 277 CURVE",
"392 277 OFFCURVE",
"387 277 OFFCURVE",
"383 279 CURVE",
"361 267 OFFCURVE",
"325 279 OFFCURVE",
"299 271 CURVE",
"264 272 OFFCURVE",
"219 270 OFFCURVE",
"184 269 CURVE",
"175 273 OFFCURVE",
"159 271 OFFCURVE",
"151 276 CURVE",
"149 289 OFFCURVE",
"155 294 OFFCURVE",
"159 303 CURVE",
"158 312 OFFCURVE",
"173 348 OFFCURVE",
"181 353 CURVE",
"181 360 OFFCURVE",
"184 364 OFFCURVE",
"186 370 CURVE",
"187 378 OFFCURVE",
"203 411 OFFCURVE",
"206 418 CURVE",
"205 426 OFFCURVE",
"210 430 OFFCURVE",
"209 438 CURVE",
"210 444 OFFCURVE",
"216 444 OFFCURVE",
"216 451 CURVE",
"218 455 OFFCURVE",
"219 460 OFFCURVE",
"222 463 CURVE",
"222 468 OFFCURVE",
"228 483 OFFCURVE",
"230 487 CURVE",
"231 494 OFFCURVE",
"235 498 OFFCURVE",
"238 501 CURVE",
"234 521 OFFCURVE",
"253 550 OFFCURVE",
"255 553 CURVE",
"256 556 OFFCURVE",
"268 577 OFFCURVE",
"267 583 CURVE SMOOTH",
"266 589 OFFCURVE",
"273 590 OFFCURVE",
"275 596 CURVE",
"288 591 OFFCURVE",
"290 576 OFFCURVE",
"293 561 CURVE",
"295 556 OFFCURVE",
"301 555 OFFCURVE",
"304 550 CURVE",
"305 536 OFFCURVE",
"308 524 OFFCURVE",
"313 514 CURVE",
"315 508 OFFCURVE",
"320 491 OFFCURVE",
"321 482 CURVE",
"326 472 OFFCURVE",
"331 461 OFFCURVE",
"337 452 CURVE",
"337 437 OFFCURVE",
"346 430 OFFCURVE",
"348 416 CURVE",
"357 402 OFFCURVE",
"361 383 OFFCURVE",
"372 370 CURVE",
"370 366 OFFCURVE",
"373 365 OFFCURVE",
"373 361 CURVE",
"382 345 OFFCURVE",
"386 327 OFFCURVE",
"394 309 CURVE",
"397 301 OFFCURVE"
);
}
);
width = 628;
}
);
unicode = 0041;
},
{
glyphname = B;
layers = (
{
layerId = "C5490108-C233-4ADF-8B6D-CFE8E3B23812";
paths = (
{
closed = 1;
nodes = (
"345 14 LINE",
"358 15 OFFCURVE",
"364 23 OFFCURVE",
"378 24 CURVE",
"383 28 OFFCURVE",
"385 36 OFFCURVE",
"392 39 CURVE",
"396 46 OFFCURVE",
"406 46 OFFCURVE",
"408 55 CURVE",
"418 65 OFFCURVE",
"426 78 OFFCURVE",
"436 88 CURVE",
"439 105 OFFCURVE",
"449 114 OFFCURVE",
"455 128 CURVE SMOOTH",
"462 145 OFFCURVE",
"462 169 OFFCURVE",
"464 191 CURVE",
"460 211 OFFCURVE",
"456 232 OFFCURVE",
"453 254 CURVE",
"449 259 OFFCURVE",
"446 265 OFFCURVE",
"445 274 CURVE",
"440 280 OFFCURVE",
"436 286 OFFCURVE",
"433 293 CURVE SMOOTH",
"423 315 OFFCURVE",
"403 325 OFFCURVE",
"389 342 CURVE",
"371 348 OFFCURVE",
"361 360 OFFCURVE",
"340 362 CURVE",
"336 367 OFFCURVE",
"325 364 OFFCURVE",
"322 370 CURVE",
"324 379 OFFCURVE",
"333 379 OFFCURVE",
"338 383 CURVE",
"343 388 OFFCURVE",
"350 391 OFFCURVE",
"356 396 CURVE",
"374 424 LINE",
"380 435 OFFCURVE",
"385 446 OFFCURVE",
"392 455 CURVE",
"393 466 OFFCURVE",
"395 476 OFFCURVE",
"398 484 CURVE",
"396 506 OFFCURVE",
"395 525 OFFCURVE",
"392 542 CURVE",
"386 569 LINE",
"376 586 LINE",
"368 605 LINE",
"363 609 OFFCURVE",
"360 615 OFFCURVE",
"357 621 CURVE",
"341 634 OFFCURVE",
"327 649 OFFCURVE",
"311 662 CURVE",
"299 665 OFFCURVE",
"291 672 OFFCURVE",
"278 675 CURVE",
"262 678 OFFCURVE",
"248 684 OFFCURVE",
"228 684 CURVE SMOOTH",
"215 684 LINE SMOOTH",
"206 684 OFFCURVE",
"196 686 OFFCURVE",
"187 686 CURVE SMOOTH",
"175 686 OFFCURVE",
"164 682 OFFCURVE",
"152 682 CURVE SMOOTH",
"123 682 OFFCURVE",
"93 689 OFFCURVE",
"67 679 CURVE",
"63 669 OFFCURVE",
"58 658 OFFCURVE",
"64 646 CURVE",
"62 641 OFFCURVE",
"60 636 OFFCURVE",
"61 629 CURVE SMOOTH",
"67 595 OFFCURVE",
"62 555 OFFCURVE",
"64 525 CURVE",
"64 522 OFFCURVE",
"62 520 OFFCURVE",
"62 519 CURVE",
"63 511 OFFCURVE",
"67 503 OFFCURVE",
"67 495 CURVE",
"68 483 OFFCURVE",
"63 470 OFFCURVE",
"67 459 CURVE",
"64 447 OFFCURVE",
"65 435 OFFCURVE",
"66 426 CURVE",
"67 395 OFFCURVE",
"66 368 OFFCURVE",
"66 339 CURVE SMOOTH",
"66 333 OFFCURVE",
"67 326 OFFCURVE",
"67 320 CURVE SMOOTH",
"67 282 OFFCURVE",
"64 238 OFFCURVE",
"70 206 CURVE",
"68 178 OFFCURVE",
"70 142 OFFCURVE",
"67 112 CURVE",
"72 90 OFFCURVE",
"66 76 OFFCURVE",
"69 54 CURVE",
"66 42 OFFCURVE",
"64 24 OFFCURVE",
"66 13 CURVE",
"73 -6 OFFCURVE",
"103 1 OFFCURVE",
"122 -3 CURVE",
"149 4 OFFCURVE",
"181 -4 OFFCURVE",
"211 0 CURVE",
"219 0 OFFCURVE",
"224 -5 OFFCURVE",
"234 -3 CURVE SMOOTH",
"252 0 OFFCURVE",
"273 0 OFFCURVE",
"289 5 CURVE",
"311 5 LINE"
);
},
{
closed = 1;
nodes = (
"108 462 OFFCURVE",
"110 471 OFFCURVE",
"110 479 CURVE",
"109 494 OFFCURVE",
"104 511 OFFCURVE",
"110 528 CURVE",
"110 582 LINE SMOOTH",
"110 591 OFFCURVE",
"109 600 OFFCURVE",
"110 610 CURVE",
"110 618 OFFCURVE",
"108 628 OFFCURVE",
"113 635 CURVE",
"122 639 OFFCURVE",
"136 636 OFFCURVE",
"143 632 CURVE",
"158 634 OFFCURVE",
"176 632 OFFCURVE",
"192 637 CURVE",
"216 633 OFFCURVE",
"245 634 OFFCURVE",
"267 629 CURVE",
"276 624 OFFCURVE",
"283 618 OFFCURVE",
"292 615 CURVE",
"296 607 OFFCURVE",
"304 605 OFFCURVE",
"310 599 CURVE SMOOTH",
"314 595 OFFCURVE",
"316 589 OFFCURVE",
"319 585 CURVE SMOOTH",
"323 580 OFFCURVE",
"328 578 OFFCURVE",
"330 574 CURVE",
"334 568 OFFCURVE",
"336 560 OFFCURVE",
"338 553 CURVE",
"341 547 OFFCURVE",
"342 540 OFFCURVE",
"346 534 CURVE",
"346 526 OFFCURVE",
"347 519 OFFCURVE",
"349 512 CURVE",
"345 473 LINE",
"340 465 OFFCURVE",
"336 458 OFFCURVE",
"335 448 CURVE",
"326 440 OFFCURVE",
"321 427 OFFCURVE",
"315 416 CURVE",
"305 407 OFFCURVE",
"293 401 OFFCURVE",
"283 392 CURVE",
"271 390 OFFCURVE",
"259 386 OFFCURVE",
"250 380 CURVE",
"232 378 OFFCURVE",
"220 377 OFFCURVE",
"204 377 CURVE",
"191 391 OFFCURVE",
"184 377 OFFCURVE",
"171 377 CURVE",
"150 376 OFFCURVE",
"130 377 OFFCURVE",
"113 380 CURVE",
"107 391 OFFCURVE",
"110 404 OFFCURVE",
"110 419 CURVE SMOOTH",
"110 420 OFFCURVE",
"108 422 OFFCURVE",
"108 424 CURVE SMOOTH",
"108 454 LINE SMOOTH"
);
},
{
closed = 1;
nodes = (
"313 331 OFFCURVE",
"326 322 OFFCURVE",
"343 318 CURVE",
"348 312 OFFCURVE",
"358 309 OFFCURVE",
"363 303 CURVE",
"382 287 LINE",
"390 274 OFFCURVE",
"397 262 OFFCURVE",
"406 251 CURVE",
"406 240 OFFCURVE",
"411 233 OFFCURVE",
"414 225 CURVE",
"413 217 OFFCURVE",
"414 211 OFFCURVE",
"417 206 CURVE",
"417 164 LINE",
"415 155 OFFCURVE",
"410 149 OFFCURVE",
"406 140 CURVE",
"402 132 OFFCURVE",
"401 122 OFFCURVE",
"397 115 CURVE",
"392 108 OFFCURVE",
"384 103 OFFCURVE",
"381 96 CURVE",
"373 92 OFFCURVE",
"370 85 OFFCURVE",
"362 82 CURVE",
"358 75 OFFCURVE",
"349 73 OFFCURVE",
"341 69 CURVE",
"338 62 OFFCURVE",
"327 62 OFFCURVE",
"321 57 CURVE",
"295 53 OFFCURVE",
"274 54 OFFCURVE",
"248 49 CURVE",
"242 52 OFFCURVE",
"229 48 OFFCURVE",
"223 52 CURVE",
"198 46 OFFCURVE",
"168 54 OFFCURVE",
"143 47 CURVE",
"133 50 OFFCURVE",
"127 50 OFFCURVE",
"116 49 CURVE",
"108 63 OFFCURVE",
"113 80 OFFCURVE",
"113 96 CURVE SMOOTH",
"113 102 OFFCURVE",
"111 106 OFFCURVE",
"111 112 CURVE",
"112 135 OFFCURVE",
"115 158 OFFCURVE",
"110 178 CURVE",
"112 191 OFFCURVE",
"109 205 OFFCURVE",
"110 219 CURVE",
"110 247 OFFCURVE",
"117 278 OFFCURVE",
"110 299 CURVE",
"112 307 OFFCURVE",
"111 317 OFFCURVE",
"111 326 CURVE",
"124 333 OFFCURVE",
"150 335 OFFCURVE",
"166 329 CURVE",
"294 333 LINE"
);
}
);
width = 497;
}
);
unicode = 0042;
},
{
glyphname = C;
layers = (
{
layerId = "C5490108-C233-4ADF-8B6D-CFE8E3B23812";
paths = (
{
closed = 1;
nodes = (
"175 619 OFFCURVE",
"165 605 OFFCURVE",
"152 591 CURVE SMOOTH",
"144 582 OFFCURVE",
"135 574 OFFCURVE",
"126 566 CURVE",
"119 554 OFFCURVE",
"112 544 OFFCURVE",
"105 533 CURVE",
"96 524 OFFCURVE",
"93 510 OFFCURVE",
"85 500 CURVE",
"81 483 OFFCURVE",
"73 471 OFFCURVE",
"69 455 CURVE",
"66 448 OFFCURVE",
"67 440 OFFCURVE",
"66 432 CURVE",
"64 425 OFFCURVE",
"60 419 OFFCURVE",
"59 411 CURVE SMOOTH",
"57 396 OFFCURVE",
"61 380 OFFCURVE",
"55 366 CURVE",
"53 350 OFFCURVE",
"55 332 OFFCURVE",
"50 320 CURVE",
"58 314 OFFCURVE",
"51 302 OFFCURVE",
"55 292 CURVE",
"57 282 OFFCURVE",
"56 269 OFFCURVE",
"61 262 CURVE",
"62 238 OFFCURVE",
"74 225 OFFCURVE",
"77 203 CURVE",
"81 196 OFFCURVE",
"87 192 OFFCURVE",
"91 184 CURVE",
"92 174 OFFCURVE",
"95 164 OFFCURVE",
"99 156 CURVE SMOOTH",
"102 150 OFFCURVE",
"109 146 OFFCURVE",
"114 142 CURVE",
"116 133 OFFCURVE",
"127 133 OFFCURVE",
"130 126 CURVE",
"131 121 OFFCURVE",
"129 113 OFFCURVE",
"132 110 CURVE",
"135 105 OFFCURVE",
"143 104 OFFCURVE",
"143 96 CURVE",
"153 93 OFFCURVE",
"158 84 OFFCURVE",
"168 80 CURVE",
"174 75 OFFCURVE",
"177 67 OFFCURVE",
"185 63 CURVE",
"188 58 OFFCURVE",
"197 59 OFFCURVE",
"201 55 CURVE",
"207 51 OFFCURVE",
"210 44 OFFCURVE",
"219 42 CURVE",
"224 38 OFFCURVE",
"231 34 OFFCURVE",
"239 31 CURVE",
"252 24 OFFCURVE",
"269 19 OFFCURVE",
"280 9 CURVE",
"298 8 OFFCURVE",
"314 -2 OFFCURVE",
"330 -5 CURVE SMOOTH",
"336 -6 OFFCURVE",
"343 -4 OFFCURVE",
"349 -5 CURVE",
"358 -6 OFFCURVE",
"365 -9 OFFCURVE",
"373 -10 CURVE",
"407 -12 OFFCURVE",
"443 -4 OFFCURVE",
"479 -5 CURVE",
"486 -3 OFFCURVE",
"491 1 OFFCURVE",
"501 0 CURVE",
"516 9 OFFCURVE",
"537 14 OFFCURVE",
"556 20 CURVE",
"569 31 OFFCURVE",
"584 39 OFFCURVE",
"598 47 CURVE",
"609 54 LINE",
"611 55 OFFCURVE",
"613 54 OFFCURVE",
"616 55 CURVE",
"620 60 LINE",
"628 64 OFFCURVE",
"634 69 OFFCURVE",
"641 74 CURVE",
"646 85 OFFCURVE",
"653 95 OFFCURVE",
"652 112 CURVE",
"645 120 OFFCURVE",
"651 143 OFFCURVE",
"639 147 CURVE",
"621 143 OFFCURVE",
"617 125 OFFCURVE",
"605 115 CURVE",
"588 113 OFFCURVE",
"585 97 OFFCURVE",
"565 98 CURVE",
"558 90 OFFCURVE",
"547 85 OFFCURVE",
"540 77 CURVE",
"530 72 OFFCURVE",
"524 62 OFFCURVE",
"512 58 CURVE",
"500 60 OFFCURVE",
"487 58 OFFCURVE",
"479 58 CURVE SMOOTH",
"475 58 OFFCURVE",
"472 60 OFFCURVE",
"469 60 CURVE SMOOTH",
"467 60 OFFCURVE",
"464 57 OFFCURVE",
"461 57 CURVE",
"457 56 OFFCURVE",
"454 57 OFFCURVE",
"450 57 CURVE",
"438 55 OFFCURVE",
"425 51 OFFCURVE",
"412 50 CURVE SMOOTH",
"395 49 OFFCURVE",
"377 55 OFFCURVE",
"359 52 CURVE",
"347 58 OFFCURVE",
"333 62 OFFCURVE",
"315 61 CURVE",
"303 68 OFFCURVE",
"289 73 OFFCURVE",
"274 77 CURVE",
"264 87 OFFCURVE",
"250 92 OFFCURVE",
"237 99 CURVE",
"225 107 OFFCURVE",
"215 116 OFFCURVE",
"201 123 CURVE",
"188 144 OFFCURVE",
"170 160 OFFCURVE",
"155 180 CURVE",
"155 195 LINE",
"150 198 OFFCURVE",
"146 202 OFFCURVE",
"143 208 CURVE SMOOTH",
"140 214 OFFCURVE",
"134 217 OFFCURVE",
"132 224 CURVE",
"129 242 OFFCURVE",
"117 252 OFFCURVE",
"113 269 CURVE",
"110 285 OFFCURVE",
"107 300 OFFCURVE",
"105 317 CURVE SMOOTH",
"103 336 OFFCURVE",
"107 349 OFFCURVE",
"105 366 CURVE",
"109 387 OFFCURVE",
"115 405 OFFCURVE",
"118 427 CURVE",
"126 441 OFFCURVE",
"131 459 OFFCURVE",
"137 473 CURVE SMOOTH",
"141 482 OFFCURVE",
"146 490 OFFCURVE",
"149 500 CURVE",
"155 503 OFFCURVE",
"158 511 OFFCURVE",
"162 515 CURVE",
"163 517 OFFCURVE",
"165 518 OFFCURVE",
"167 520 CURVE",
"172 527 OFFCURVE",
"177 535 OFFCURVE",
"181 544 CURVE",
"187 551 OFFCURVE",
"197 554 OFFCURVE",
"200 564 CURVE",
"207 570 OFFCURVE",
"212 578 OFFCURVE",
"220 583 CURVE",
"252 601 OFFCURVE",
"282 622 OFFCURVE",
"316 637 CURVE",
"340 640 OFFCURVE",
"363 644 OFFCURVE",
"384 649 CURVE",
"402 650 OFFCURVE",
"423 648 OFFCURVE",
"439 651 CURVE",
"444 646 OFFCURVE",
"453 646 OFFCURVE",
"458 641 CURVE",
"469 643 OFFCURVE",
"475 638 OFFCURVE",
"485 638 CURVE",
"494 633 OFFCURVE",
"505 629 OFFCURVE",
"518 627 CURVE",
"532 621 OFFCURVE",
"543 612 OFFCURVE",
"559 608 CURVE",
"566 603 OFFCURVE",
"571 597 OFFCURVE",
"581 596 CURVE",
"589 586 OFFCURVE",
"599 579 OFFCURVE",
"606 569 CURVE",
"620 566 OFFCURVE",
"623 552 OFFCURVE",
"641 553 CURVE",
"649 560 OFFCURVE",
"648 573 OFFCURVE",
"646 585 CURVE SMOOTH",
"644 596 OFFCURVE",
"639 609 OFFCURVE",
"638 618 CURVE",
"634 623 OFFCURVE",
"630 627 OFFCURVE",
"625 630 CURVE",
"619 633 OFFCURVE",
"616 639 OFFCURVE",
"608 640 CURVE",
"599 649 OFFCURVE",
"587 654 OFFCURVE",
"578 664 CURVE",
"569 667 OFFCURVE",
"560 671 OFFCURVE",
"553 676 CURVE",
"529 680 OFFCURVE",
"510 689 OFFCURVE",
"488 695 CURVE",
"473 694 OFFCURVE",
"467 701 OFFCURVE",
"453 701 CURVE",
"441 704 OFFCURVE",
"428 705 OFFCURVE",
"416 706 CURVE",
"388 702 OFFCURVE",
"355 702 OFFCURVE",
"329 697 CURVE",
"323 693 OFFCURVE",
"316 690 OFFCURVE",
"308 687 CURVE",
"289 688 OFFCURVE",
"281 677 OFFCURVE",
"261 678 CURVE",
"254 672 OFFCURVE",
"246 666 OFFCURVE",
"239 662 CURVE SMOOTH",
"232 658 OFFCURVE",
"223 654 OFFCURVE",
"219 651 CURVE",
"210 646 OFFCURVE",
"204 643 OFFCURVE",
"198 638 CURVE",
"190 632 LINE"
);
}
);
width = 697;
}
);
unicode = 0043;
},
{
glyphname = D;
layers = (
{
layerId = "C5490108-C233-4ADF-8B6D-CFE8E3B23812";
paths = (
{
closed = 1;
nodes = (
"526 239 OFFCURVE",
"529 240 OFFCURVE",
"530 243 CURVE",
"530 245 OFFCURVE",
"531 248 OFFCURVE",
"531 251 CURVE",
"532 255 OFFCURVE",
"534 257 OFFCURVE",
"534 258 CURVE",
"537 269 OFFCURVE",
"540 282 OFFCURVE",
"541 293 CURVE",
"541 305 OFFCURVE",
"538 329 OFFCURVE",
"544 334 CURVE",
"545 335 OFFCURVE",
"542 336 OFFCURVE",
"542 336 CURVE",
"544 356 OFFCURVE",
"541 375 OFFCURVE",
"544 396 CURVE",
"544 398 OFFCURVE",
"542 398 OFFCURVE",
"542 400 CURVE",
"541 404 OFFCURVE",
"539 407 OFFCURVE",
"537 410 CURVE",
"538 442 OFFCURVE",
"525 460 OFFCURVE",
"520 487 CURVE",
"503 508 OFFCURVE",
"496 540 OFFCURVE",
"474 556 CURVE",
"463 583 OFFCURVE",
"438 596 OFFCURVE",
"421 618 CURVE",
"412 621 OFFCURVE",
"406 628 OFFCURVE",
"399 632 CURVE",
"389 635 OFFCURVE",
"385 642 OFFCURVE",
"377 646 CURVE",
"361 655 OFFCURVE",
"344 662 OFFCURVE",
"328 670 CURVE",
"316 671 OFFCURVE",
"306 676 OFFCURVE",
"295 679 CURVE",
"284 683 OFFCURVE",
"271 683 OFFCURVE",
"262 689 CURVE",
"250 687 OFFCURVE",
"238 689 OFFCURVE",
"228 690 CURVE SMOOTH",
"212 692 OFFCURVE",
"189 689 OFFCURVE",
"169 694 CURVE",
"150 690 OFFCURVE",
"124 689 OFFCURVE",
"102 690 CURVE SMOOTH",
"89 691 OFFCURVE",
"78 695 OFFCURVE",
"68 690 CURVE",
"62 686 OFFCURVE",
"56 682 OFFCURVE",
"52 676 CURVE",
"48 662 OFFCURVE",
"55 648 OFFCURVE",
"55 632 CURVE SMOOTH",
"55 622 OFFCURVE",
"52 612 OFFCURVE",
"52 602 CURVE SMOOTH",
"52 590 OFFCURVE",
"54 578 OFFCURVE",
"53 566 CURVE",
"53 555 OFFCURVE",
"53 543 OFFCURVE",
"55 533 CURVE",
"50 513 OFFCURVE",
"53 492 OFFCURVE",
"53 471 CURVE",
"54 453 OFFCURVE",
"52 435 OFFCURVE",
"53 418 CURVE SMOOTH",
"54 390 OFFCURVE",
"53 354 OFFCURVE",
"55 325 CURVE",
"56 317 OFFCURVE",
"51 314 OFFCURVE",
"50 307 CURVE",
"58 281 OFFCURVE",
"55 252 OFFCURVE",
"55 224 CURVE SMOOTH",
"55 217 OFFCURVE",
"57 210 OFFCURVE",
"57 203 CURVE SMOOTH",
"57 194 OFFCURVE",
"55 186 OFFCURVE",
"55 176 CURVE SMOOTH",
"55 147 OFFCURVE",
"58 116 OFFCURVE",
"58 87 CURVE",
"59 62 OFFCURVE",
"54 38 OFFCURVE",
"57 14 CURVE",
"66 3 OFFCURVE",
"93 10 OFFCURVE",
"109 6 CURVE",
"128 12 OFFCURVE",
"149 7 OFFCURVE",
"172 8 CURVE",
"181 8 OFFCURVE",
"192 11 OFFCURVE",
"202 11 CURVE SMOOTH",
"238 12 OFFCURVE",
"270 12 OFFCURVE",
"299 17 CURVE",
"320 24 OFFCURVE",
"340 31 OFFCURVE",
"356 39 CURVE SMOOTH",
"368 45 OFFCURVE",
"378 50 OFFCURVE",
"389 54 CURVE",
"394 59 OFFCURVE",
"401 63 OFFCURVE",
"407 68 CURVE",
"412 73 OFFCURVE",
"417 80 OFFCURVE",
"426 82 CURVE",
"429 89 OFFCURVE",
"438 90 OFFCURVE",
"443 96 CURVE",
"446 104 OFFCURVE",
"453 108 OFFCURVE",
"460 112 CURVE",
"464 124 OFFCURVE",
"471 134 OFFCURVE",
"479 142 CURVE",
"484 153 OFFCURVE",
"492 161 OFFCURVE",
"500 170 CURVE",
"505 190 OFFCURVE",
"515 208 OFFCURVE",
"523 228 CURVE",
"525 236 LINE"
);
},
{
closed = 1;
nodes = (
"102 203 OFFCURVE",
"101 223 OFFCURVE",
"101 243 CURVE SMOOTH",
"101 253 OFFCURVE",
"102 264 OFFCURVE",
"102 274 CURVE",
"103 284 OFFCURVE",
"102 295 OFFCURVE",
"106 304 CURVE",
"100 321 OFFCURVE",
"102 337 OFFCURVE",
"102 356 CURVE SMOOTH",
"102 363 OFFCURVE",
"101 369 OFFCURVE",
"101 375 CURVE SMOOTH",
"101 400 OFFCURVE",
"102 425 OFFCURVE",
"101 451 CURVE",
"100 463 OFFCURVE",
"101 475 OFFCURVE",
"101 487 CURVE",
"99 537 OFFCURVE",
"98 588 OFFCURVE",
"99 635 CURVE",
"118 646 OFFCURVE",
"147 641 OFFCURVE",
"176 641 CURVE",
"188 642 OFFCURVE",
"199 645 OFFCURVE",
"210 645 CURVE SMOOTH",
"231 645 OFFCURVE",
"250 638 OFFCURVE",
"269 638 CURVE",
"290 631 OFFCURVE",
"311 624 OFFCURVE",
"332 618 CURVE",
"342 611 OFFCURVE",
"354 605 OFFCURVE",
"364 599 CURVE",
"372 595 OFFCURVE",
"377 589 OFFCURVE",
"383 583 CURVE",
"391 580 OFFCURVE",
"396 573 OFFCURVE",
"403 569 CURVE",
"415 558 OFFCURVE",
"427 547 OFFCURVE",
"437 534 CURVE",
"447 522 OFFCURVE",
"456 508 OFFCURVE",
"463 493 CURVE",
"474 482 OFFCURVE",
"479 464 OFFCURVE",
"487 449 CURVE",
"490 435 OFFCURVE",
"492 422 OFFCURVE",
"496 410 CURVE",
"504 377 OFFCURVE",
"509 338 OFFCURVE",
"501 303 CURVE",
"494 281 OFFCURVE",
"489 256 OFFCURVE",
"479 236 CURVE",
"472 215 OFFCURVE",
"458 200 OFFCURVE",
"449 180 CURVE",
"436 167 OFFCURVE",
"425 153 OFFCURVE",
"413 140 CURVE",
"396 125 OFFCURVE",
"380 108 OFFCURVE",
"358 98 CURVE",
"351 96 OFFCURVE",
"346 94 OFFCURVE",
"342 90 CURVE",
"331 86 OFFCURVE",
"321 80 OFFCURVE",
"312 74 CURVE",
"298 70 OFFCURVE",
"282 67 OFFCURVE",
"265 63 CURVE SMOOTH",
"231 56 OFFCURVE",
"184 56 OFFCURVE",
"143 58 CURVE",
"132 59 OFFCURVE",
"118 53 OFFCURVE",
"106 60 CURVE",
"101 69 OFFCURVE",
"104 80 OFFCURVE",
"104 90 CURVE SMOOTH",
"104 95 OFFCURVE",
"102 100 OFFCURVE",
"102 106 CURVE SMOOTH",
"102 119 OFFCURVE",
"103 136 OFFCURVE",
"102 153 CURVE",
"102 183 LINE SMOOTH"
);
}
);
width = 578;
}
);
unicode = 0044;
},
{
glyphname = E;
layers = (
{
layerId = "C5490108-C233-4ADF-8B6D-CFE8E3B23812";
paths = (
{
closed = 1;
nodes = (
"119 226 OFFCURVE",
"117 251 OFFCURVE",
"118 276 CURVE",
"118 286 OFFCURVE",
"120 295 OFFCURVE",
"119 306 CURVE",
"115 322 OFFCURVE",
"116 341 OFFCURVE",
"119 358 CURVE",
"136 365 OFFCURVE",
"159 356 OFFCURVE",
"177 361 CURVE",
"211 354 OFFCURVE",
"256 360 OFFCURVE",
"288 355 CURVE",
"319 359 OFFCURVE",
"349 356 OFFCURVE",
"376 359 CURVE",
"392 370 LINE",
"398 381 OFFCURVE",
"398 399 OFFCURVE",
"392 410 CURVE",
"364 430 OFFCURVE",
"319 418 OFFCURVE",
"281 421 CURVE",
"271 416 OFFCURVE",
"255 418 OFFCURVE",
"240 418 CURVE",
"223 423 OFFCURVE",
"202 419 OFFCURVE",
"187 415 CURVE",
"167 423 OFFCURVE",
"134 411 OFFCURVE",
"119 421 CURVE",
"114 432 OFFCURVE",
"122 444 OFFCURVE",
"122 455 CURVE",
"124 465 OFFCURVE",
"115 465 OFFCURVE",
"116 474 CURVE",
"120 491 OFFCURVE",
"116 507 OFFCURVE",
"116 523 CURVE SMOOTH",
"116 531 OFFCURVE",
"118 539 OFFCURVE",
"118 547 CURVE",
"117 555 OFFCURVE",
"116 562 OFFCURVE",
"116 569 CURVE SMOOTH",
"116 579 OFFCURVE",
"121 588 OFFCURVE",
"121 597 CURVE SMOOTH",
"121 608 OFFCURVE",
"116 618 OFFCURVE",
"118 629 CURVE",
"121 633 OFFCURVE",
"128 635 OFFCURVE",
"133 637 CURVE",
"140 638 OFFCURVE",
"144 642 OFFCURVE",
"152 641 CURVE",
"162 641 OFFCURVE",
"169 638 OFFCURVE",
"177 637 CURVE",
"187 641 OFFCURVE",
"202 639 OFFCURVE",
"212 643 CURVE",
"241 643 OFFCURVE",
"271 642 OFFCURVE",
"294 645 CURVE",
"298 641 OFFCURVE",
"306 642 OFFCURVE",
"311 640 CURVE",
"330 646 OFFCURVE",
"348 641 OFFCURVE",
"370 641 CURVE",
"378 647 OFFCURVE",
"389 648 OFFCURVE",
"393 659 CURVE",
"398 670 OFFCURVE",
"392 681 OFFCURVE",
"389 694 CURVE",
"381 695 OFFCURVE",
"377 701 OFFCURVE",
"367 700 CURVE",
"336 698 OFFCURVE",
"305 699 OFFCURVE",
"274 698 CURVE SMOOTH",
"257 698 OFFCURVE",
"241 701 OFFCURVE",
"225 700 CURVE SMOOTH",
"208 699 OFFCURVE",
"192 696 OFFCURVE",
"176 697 CURVE SMOOTH",
"158 698 OFFCURVE",
"140 701 OFFCURVE",
"122 701 CURVE",
"108 694 OFFCURVE",
"85 704 OFFCURVE",
"72 697 CURVE",
"68 693 OFFCURVE",
"69 689 OFFCURVE",
"69 684 CURVE",
"66 662 OFFCURVE",
"67 637 OFFCURVE",
"67 618 CURVE SMOOTH",
"67 612 OFFCURVE",
"66 606 OFFCURVE",
"65 601 CURVE",
"65 588 OFFCURVE",
"67 575 OFFCURVE",
"67 563 CURVE SMOOTH",
"67 541 OFFCURVE",
"64 519 OFFCURVE",
"67 501 CURVE",
"61 482 OFFCURVE",
"66 453 OFFCURVE",
"65 435 CURVE",
"65 430 OFFCURVE",
"64 426 OFFCURVE",
"64 421 CURVE SMOOTH",
"64 413 OFFCURVE",
"66 405 OFFCURVE",
"67 397 CURVE",
"68 382 OFFCURVE",
"67 368 OFFCURVE",
"67 356 CURVE SMOOTH",
"67 349 OFFCURVE",
"69 343 OFFCURVE",
"69 336 CURVE",
"68 323 OFFCURVE",
"67 310 OFFCURVE",
"67 298 CURVE",
"68 278 OFFCURVE",
"71 258 OFFCURVE",
"65 244 CURVE",
"65 232 OFFCURVE",
"73 211 OFFCURVE",
"65 197 CURVE",
"71 187 OFFCURVE",
"66 175 OFFCURVE",
"67 161 CURVE",
"66 153 OFFCURVE",
"72 150 OFFCURVE",
"70 142 CURVE",
"68 100 OFFCURVE",
"60 60 OFFCURVE",
"64 20 CURVE",
"71 7 OFFCURVE",
"91 7 OFFCURVE",
"106 2 CURVE",
"117 3 OFFCURVE",
"129 7 OFFCURVE",
"140 8 CURVE SMOOTH",
"156 9 OFFCURVE",
"175 6 OFFCURVE",
"193 6 CURVE",
"215 7 OFFCURVE",
"236 8 OFFCURVE",
"258 5 CURVE",
"301 12 OFFCURVE",
"349 1 OFFCURVE",
"389 14 CURVE",
"395 20 OFFCURVE",
"400 30 OFFCURVE",
"400 41 CURVE",
"399 53 OFFCURVE",
"393 64 OFFCURVE",
"385 69 CURVE",
"376 71 OFFCURVE",
"367 69 OFFCURVE",
"357 69 CURVE",
"348 70 OFFCURVE",
"338 72 OFFCURVE",
"329 72 CURVE SMOOTH",
"320 72 OFFCURVE",
"311 71 OFFCURVE",
"302 71 CURVE SMOOTH",
"295 71 OFFCURVE",
"289 74 OFFCURVE",
"281 74 CURVE SMOOTH",
"274 74 OFFCURVE",
"265 72 OFFCURVE",
"258 72 CURVE",
"239 73 OFFCURVE",
"224 75 OFFCURVE",
"209 71 CURVE",
"185 81 OFFCURVE",
"162 62 OFFCURVE",
"140 72 CURVE",
"132 73 OFFCURVE",
"124 68 OFFCURVE",
"119 74 CURVE",
"119 202 LINE SMOOTH"
);
}
);
width = 445;
}
);
unicode = 0045;
},
{
glyphname = F;
layers = (
{
layerId = "C5490108-C233-4ADF-8B6D-CFE8E3B23812";
paths = (
{
closed = 1;
nodes = (
"48 33 OFFCURVE",
"42 30 OFFCURVE",
"43 19 CURVE",
"45 13 OFFCURVE",
"50 11 OFFCURVE",
"52 6 CURVE",
"58 4 OFFCURVE",
"58 -3 OFFCURVE",
"67 -2 CURVE",
"85 -2 OFFCURVE",
"93 9 OFFCURVE",
"100 20 CURVE",
"102 33 OFFCURVE",
"99 42 OFFCURVE",
"97 54 CURVE",
"98 72 OFFCURVE",
"98 96 OFFCURVE",
"101 117 CURVE",
"95 127 OFFCURVE",
"102 140 OFFCURVE",
"98 153 CURVE",
"100 159 OFFCURVE",
"100 166 OFFCURVE",
"101 172 CURVE",
"94 218 OFFCURVE",
"98 269 OFFCURVE",
"98 318 CURVE",
"96 327 OFFCURVE",
"93 338 OFFCURVE",
"97 348 CURVE",
"103 351 OFFCURVE",
"113 350 OFFCURVE",
"119 353 CURVE",
"139 355 OFFCURVE",
"152 348 OFFCURVE",
"171 351 CURVE",
"194 348 OFFCURVE",
"217 343 OFFCURVE",
"245 344 CURVE",
"254 342 OFFCURVE",
"256 348 OFFCURVE",
"265 347 CURVE",
"278 343 OFFCURVE",
"287 344 OFFCURVE",
"300 344 CURVE",
"311 348 OFFCURVE",
"324 351 OFFCURVE",
"330 361 CURVE",
"335 374 OFFCURVE",
"334 397 OFFCURVE",
"330 407 CURVE SMOOTH",
"328 412 OFFCURVE",
"324 413 OFFCURVE",
"324 418 CURVE",
"315 423 OFFCURVE",
"300 421 OFFCURVE",
"289 424 CURVE",
"278 419 OFFCURVE",
"266 414 OFFCURVE",
"253 413 CURVE SMOOTH",
"241 412 OFFCURVE",
"229 417 OFFCURVE",
"220 418 CURVE",
"217 418 OFFCURVE",
"213 416 OFFCURVE",
"210 416 CURVE SMOOTH",
"206 416 OFFCURVE",
"204 418 OFFCURVE",
"201 418 CURVE",
"190 417 OFFCURVE",
"183 412 OFFCURVE",
"172 411 CURVE",
"162 414 OFFCURVE",
"148 415 OFFCURVE",
"134 415 CURVE",
"121 414 OFFCURVE",
"106 409 OFFCURVE",
"97 416 CURVE",
"95 438 OFFCURVE",
"95 461 OFFCURVE",
"95 485 CURVE SMOOTH",
"95 510 OFFCURVE",
"98 535 OFFCURVE",
"97 560 CURVE",
"96 572 OFFCURVE",
"95 584 OFFCURVE",
"95 597 CURVE SMOOTH",
"95 609 OFFCURVE",
"92 624 OFFCURVE",
"100 634 CURVE",
"119 635 OFFCURVE",
"145 632 OFFCURVE",
"164 637 CURVE",
"169 634 OFFCURVE",
"176 634 OFFCURVE",
"182 632 CURVE",
"196 635 OFFCURVE",
"216 632 OFFCURVE",
"229 629 CURVE",
"243 629 OFFCURVE",
"262 632 OFFCURVE",
"275 626 CURVE",
"284 633 OFFCURVE",
"305 629 OFFCURVE",
"317 634 CURVE",
"324 641 OFFCURVE",
"336 642 OFFCURVE",
"336 656 CURVE",
"334 672 OFFCURVE",
"332 688 OFFCURVE",
"325 700 CURVE",
"319 701 OFFCURVE",
"315 704 OFFCURVE",
"308 705 CURVE",
"301 705 OFFCURVE",
"295 703 OFFCURVE",
"287 703 CURVE SMOOTH",
"258 703 OFFCURVE",
"226 706 OFFCURVE",
"199 701 CURVE",
"193 701 OFFCURVE",
"190 705 OFFCURVE",
"183 705 CURVE",
"146 700 OFFCURVE",
"105 706 OFFCURVE",
"68 706 CURVE",
"62 702 OFFCURVE",
"53 701 OFFCURVE",
"48 695 CURVE",
"38 677 OFFCURVE",
"50 647 OFFCURVE",
"43 627 CURVE",
"47 616 OFFCURVE",
"45 602 OFFCURVE",
"45 593 CURVE",
"44 589 OFFCURVE",
"46 587 OFFCURVE",
"46 583 CURVE SMOOTH",
"46 577 OFFCURVE",
"45 570 OFFCURVE",
"45 563 CURVE",
"43 517 OFFCURVE",
"47 474 OFFCURVE",
"48 432 CURVE SMOOTH",
"48 422 OFFCURVE",
"46 412 OFFCURVE",
"46 402 CURVE SMOOTH",
"46 394 OFFCURVE",
"48 387 OFFCURVE",
"48 380 CURVE SMOOTH",
"48 357 OFFCURVE",
"44 333 OFFCURVE",
"45 310 CURVE",
"45 304 OFFCURVE",
"46 298 OFFCURVE",
"46 292 CURVE SMOOTH",
"46 282 OFFCURVE",
"44 274 OFFCURVE",
"45 265 CURVE",
"45 257 OFFCURVE",
"48 248 OFFCURVE",
"48 240 CURVE SMOOTH",
"48 234 OFFCURVE",
"46 228 OFFCURVE",
"46 222 CURVE SMOOTH",
"46 208 OFFCURVE",
"48 194 OFFCURVE",
"48 180 CURVE SMOOTH",
"48 42 LINE SMOOTH"
);
}
);
width = 383;
}
);
unicode = 0046;
},
{
glyphname = G;
layers = (
{
layerId = "C5490108-C233-4ADF-8B6D-CFE8E3B23812";
paths = (
{
closed = 1;
nodes = (
"311 699 OFFCURVE",
"296 692 OFFCURVE",
"281 692 CURVE",
"270 685 OFFCURVE",
"253 684 OFFCURVE",
"242 676 CURVE",
"228 671 OFFCURVE",
"217 664 OFFCURVE",
"204 659 CURVE",
"192 647 OFFCURVE",
"176 639 OFFCURVE",
"163 629 CURVE SMOOTH",
"149 618 OFFCURVE",
"139 604 OFFCURVE",
"125 594 CURVE",
"113 576 OFFCURVE",
"99 560 OFFCURVE",
"86 544 CURVE",
"81 536 OFFCURVE",
"78 527 OFFCURVE",
"73 520 CURVE",
"66 515 OFFCURVE",
"67 502 OFFCURVE",
"59 498 CURVE",
"54 476 OFFCURVE",
"47 455 OFFCURVE",
"40 435 CURVE",
"38 427 OFFCURVE",
"38 418 OFFCURVE",
"35 411 CURVE",
"35 397 OFFCURVE",
"34 381 OFFCURVE",
"34 366 CURVE",
"33 349 OFFCURVE",
"30 333 OFFCURVE",
"30 317 CURVE",
"31 299 OFFCURVE",
"38 283 OFFCURVE",
"35 268 CURVE",
"45 260 OFFCURVE",
"42 241 OFFCURVE",
"51 232 CURVE",
"52 215 OFFCURVE",
"60 206 OFFCURVE",
"62 191 CURVE",
"68 184 OFFCURVE",
"71 174 OFFCURVE",
"78 167 CURVE",
"85 153 OFFCURVE",
"92 138 OFFCURVE",
"104 129 CURVE",
"108 124 OFFCURVE",
"112 118 OFFCURVE",
"117 115 CURVE",
"122 111 OFFCURVE",
"126 106 OFFCURVE",
"128 99 CURVE",
"132 94 OFFCURVE",
"138 91 OFFCURVE",
"141 85 CURVE",
"161 72 OFFCURVE",
"182 59 OFFCURVE",
"199 42 CURVE",
"206 41 OFFCURVE",
"211 39 OFFCURVE",
"216 36 CURVE",
"220 32 OFFCURVE",
"228 32 OFFCURVE",
"231 27 CURVE",
"246 23 OFFCURVE",
"260 18 OFFCURVE",
"272 11 CURVE",
"300 5 OFFCURVE",
"329 1 OFFCURVE",
"357 -5 CURVE",
"386 -1 OFFCURVE",
"429 -5 OFFCURVE",
"454 -2 CURVE",
"463 1 OFFCURVE",
"468 6 OFFCURVE",
"476 8 CURVE",
"479 11 OFFCURVE",
"487 9 OFFCURVE",
"492 9 CURVE",
"500 16 OFFCURVE",
"511 18 OFFCURVE",
"521 22 CURVE",
"530 26 OFFCURVE",
"539 32 OFFCURVE",
"549 35 CURVE",
"563 48 OFFCURVE",
"585 54 OFFCURVE",
"599 68 CURVE",
"606 68 OFFCURVE",
"606 75 OFFCURVE",
"610 77 CURVE",
"612 82 OFFCURVE",
"620 82 OFFCURVE",
"622 87 CURVE",
"626 96 OFFCURVE",
"635 101 OFFCURVE",
"640 109 CURVE",
"645 118 OFFCURVE",
"653 123 OFFCURVE",
"658 132 CURVE",
"666 138 OFFCURVE",
"672 147 OFFCURVE",
"678 154 CURVE",
"678 157 OFFCURVE",
"679 158 OFFCURVE",
"681 159 CURVE",
"687 176 OFFCURVE",
"695 190 OFFCURVE",
"703 205 CURVE",
"708 226 OFFCURVE",
"710 250 OFFCURVE",
"711 274 CURVE",
"706 294 OFFCURVE",
"716 330 OFFCURVE",
"703 344 CURVE",
"689 347 OFFCURVE",
"677 344 OFFCURVE",
"662 342 CURVE",
"647 343 OFFCURVE",
"627 345 OFFCURVE",
"612 342 CURVE",
"594 346 OFFCURVE",
"576 343 OFFCURVE",
"558 347 CURVE",
"551 347 OFFCURVE",
"549 342 OFFCURVE",
"541 342 CURVE",
"512 351 OFFCURVE",
"478 340 OFFCURVE",
"447 347 CURVE",
"440 342 OFFCURVE",
"429 342 OFFCURVE",
"423 337 CURVE",
"421 325 OFFCURVE",
"415 308 OFFCURVE",
"421 296 CURVE",
"436 286 OFFCURVE",
"468 284 OFFCURVE",
"488 292 CURVE",
"510 287 OFFCURVE",
"543 293 OFFCURVE",
"566 288 CURVE",
"593 295 OFFCURVE",
"635 295 OFFCURVE",
"664 293 CURVE",
"666 283 OFFCURVE",
"662 265 OFFCURVE",
"666 254 CURVE",
"661 246 OFFCURVE",
"661 233 OFFCURVE",
"656 225 CURVE",
"654 215 OFFCURVE",
"648 208 OFFCURVE",
"647 197 CURVE",
"640 189 OFFCURVE",
"636 179 OFFCURVE",
"628 172 CURVE",
"622 163 OFFCURVE",
"613 157 OFFCURVE",
"607 148 CURVE",
"604 144 OFFCURVE",
"601 140 OFFCURVE",
"596 137 CURVE",
"592 134 OFFCURVE",
"590 128 OFFCURVE",
"585 126 CURVE",
"577 118 LINE SMOOTH",
"576 117 OFFCURVE",
"574 118 OFFCURVE",
"573 117 CURVE SMOOTH",
"562 106 LINE",
"552 106 OFFCURVE",
"547 101 OFFCURVE",
"541 98 CURVE",
"535 94 OFFCURVE",
"526 93 OFFCURVE",
"524 87 CURVE",
"507 84 OFFCURVE",
"498 74 OFFCURVE",
"483 69 CURVE",
"468 67 OFFCURVE",
"455 63 OFFCURVE",
"442 58 CURVE",
"418 56 OFFCURVE",
"399 51 OFFCURVE",
"372 52 CURVE",
"363 54 OFFCURVE",
"354 56 OFFCURVE",
"341 55 CURVE",
"322 61 OFFCURVE",
"302 64 OFFCURVE",
"283 69 CURVE SMOOTH",
"263 75 OFFCURVE",
"246 83 OFFCURVE",
"229 90 CURVE",
"224 93 LINE",
"221 99 LINE",
"221 100 OFFCURVE",
"219 99 OFFCURVE",
"218 99 CURVE SMOOTH",
"217 99 OFFCURVE",
"217 102 OFFCURVE",
"216 102 CURVE",
"215 103 OFFCURVE",
"212 104 OFFCURVE",
"210 106 CURVE",
"203 111 OFFCURVE",
"197 117 OFFCURVE",
"188 120 CURVE",
"180 130 OFFCURVE",
"170 137 OFFCURVE",
"161 147 CURVE",
"154 157 OFFCURVE",
"141 163 OFFCURVE",
"136 176 CURVE",
"131 180 OFFCURVE",
"127 185 OFFCURVE",
"125 192 CURVE",
"122 198 OFFCURVE",
"116 202 OFFCURVE",
"114 210 CURVE",
"93 244 LINE",
"93 255 OFFCURVE",
"88 262 OFFCURVE",
"86 271 CURVE",
"87 284 OFFCURVE",
"80 289 OFFCURVE",
"79 299 CURVE",
"80 316 OFFCURVE",
"75 322 OFFCURVE",
"78 337 CURVE",
"74 348 OFFCURVE",
"77 365 OFFCURVE",
"76 378 CURVE",
"81 389 OFFCURVE",
"81 404 OFFCURVE",
"82 418 CURVE",
"89 428 OFFCURVE",
"90 444 OFFCURVE",
"100 451 CURVE",
"100 457 OFFCURVE",
"99 464 OFFCURVE",
"101 468 CURVE",
"111 480 OFFCURVE",
"118 494 OFFCURVE",
"125 509 CURVE",
"136 518 OFFCURVE",
"141 534 OFFCURVE",
"153 542 CURVE",
"158 547 OFFCURVE",
"161 554 OFFCURVE",
"168 558 CURVE",
"171 565 OFFCURVE",
"175 572 OFFCURVE",
"180 577 CURVE SMOOTH",
"182 579 OFFCURVE",
"185 579 OFFCURVE",
"188 582 CURVE SMOOTH",
"194 588 LINE",
"197 590 OFFCURVE",
"201 589 OFFCURVE",
"204 591 CURVE",
"206 592 OFFCURVE",
"208 596 OFFCURVE",
"210 597 CURVE",
"215 599 LINE",
"218 602 LINE",
"227 608 OFFCURVE",
"234 611 OFFCURVE",
"240 618 CURVE",
"247 618 OFFCURVE",
"250 622 OFFCURVE",
"256 623 CURVE",
"263 623 OFFCURVE",
"262 631 OFFCURVE",
"270 630 CURVE",
"277 633 OFFCURVE",
"283 634 OFFCURVE",
"290 637 CURVE",
"297 639 OFFCURVE",
"303 643 OFFCURVE",
"311 645 CURVE",
"319 646 OFFCURVE",
"327 645 OFFCURVE",
"335 646 CURVE",
"340 647 OFFCURVE",
"346 650 OFFCURVE",
"350 651 CURVE SMOOTH",
"368 656 LINE",
"382 653 OFFCURVE",
"398 654 OFFCURVE",
"413 653 CURVE",
"427 646 OFFCURVE",
"445 646 OFFCURVE",
"462 643 CURVE",
"482 633 OFFCURVE",
"501 623 OFFCURVE",
"524 616 CURVE",
"529 612 OFFCURVE",
"533 608 OFFCURVE",
"540 605 CURVE",
"546 603 OFFCURVE",
"548 596 OFFCURVE",
"555 594 CURVE SMOOTH",
"562 592 OFFCURVE",
"565 586 OFFCURVE",
"569 582 CURVE SMOOTH",
"574 577 OFFCURVE",
"581 574 OFFCURVE",
"587 571 CURVE",
"588 562 OFFCURVE",
"598 563 OFFCURVE",
"599 555 CURVE",
"614 541 LINE SMOOTH",
"624 532 OFFCURVE",
"629 518 OFFCURVE",
"644 514 CURVE",
"663 514 OFFCURVE",
"673 523 OFFCURVE",
"681 534 CURVE",
"679 549 OFFCURVE",
"667 554 OFFCURVE",
"659 564 CURVE",
"654 572 OFFCURVE",
"649 580 OFFCURVE",
"645 588 CURVE",
"635 595 OFFCURVE",
"626 604 OFFCURVE",
"620 615 CURVE",
"603 625 OFFCURVE",
"589 637 OFFCURVE",
"574 649 CURVE",
"565 652 OFFCURVE",
"559 657 OFFCURVE",
"551 660 CURVE",
"546 668 OFFCURVE",
"534 668 OFFCURVE",
"529 675 CURVE",
"512 676 OFFCURVE",
"502 684 OFFCURVE",
"491 690 CURVE",
"476 690 OFFCURVE",
"468 696 OFFCURVE",
"456 698 CURVE",
"444 701 OFFCURVE",
"430 702 OFFCURVE",
"418 705 CURVE",
"394 707 OFFCURVE",
"371 705 OFFCURVE",
"352 703 CURVE SMOOTH",
"327 701 LINE"
);
}
);
width = 762;
}
);
unicode = 0047;
},
{
glyphname = H;
layers = (
{
layerId = "C5490108-C233-4ADF-8B6D-CFE8E3B23812";
paths = (
{
closed = 1;
nodes = (
"92 631 OFFCURVE",
"90 636 OFFCURVE",
"90 640 CURVE",
"91 659 OFFCURVE",
"99 680 OFFCURVE",
"86 694 CURVE",
"77 698 OFFCURVE",
"56 699 OFFCURVE",
"48 694 CURVE",
"42 666 OFFCURVE",
"44 622 OFFCURVE",
"46 591 CURVE",
"46 584 OFFCURVE",
"43 581 OFFCURVE",
"43 574 CURVE",
"48 553 OFFCURVE",
"46 528 OFFCURVE",
"46 505 CURVE SMOOTH",
"46 469 OFFCURVE",
"47 433 OFFCURVE",
"46 402 CURVE SMOOTH",
"46 397 OFFCURVE",
"48 392 OFFCURVE",
"48 386 CURVE",
"48 386 OFFCURVE",
"46 382 OFFCURVE",
"46 380 CURVE SMOOTH",
"46 367 OFFCURVE",
"48 349 OFFCURVE",
"48 339 CURVE",
"47 322 OFFCURVE",
"45 307 OFFCURVE",
"46 289 CURVE",
"47 280 OFFCURVE",
"49 272 OFFCURVE",
"49 263 CURVE",
"51 233 OFFCURVE",
"45 205 OFFCURVE",
"49 180 CURVE",
"48 174 OFFCURVE",
"48 168 OFFCURVE",
"46 162 CURVE",
"49 139 OFFCURVE",
"48 111 OFFCURVE",
"48 88 CURVE SMOOTH",
"48 65 LINE",
"47 50 OFFCURVE",
"41 37 OFFCURVE",
"45 25 CURVE",
"46 20 OFFCURVE",
"51 17 OFFCURVE",
"53 13 CURVE",
"66 10 OFFCURVE",
"85 7 OFFCURVE",
"94 16 CURVE",
"99 31 OFFCURVE",
"93 52 OFFCURVE",
"95 73 CURVE",
"86 96 OFFCURVE",
"94 123 OFFCURVE",
"95 150 CURVE SMOOTH",
"96 165 OFFCURVE",
"92 180 OFFCURVE",
"95 194 CURVE",
"94 200 OFFCURVE",
"91 202 OFFCURVE",
"92 210 CURVE",
"94 233 OFFCURVE",
"90 257 OFFCURVE",
"90 282 CURVE SMOOTH",
"90 296 OFFCURVE",
"93 312 OFFCURVE",
"94 325 CURVE",
"94 338 OFFCURVE",
"89 353 OFFCURVE",
"100 361 CURVE",
"110 362 OFFCURVE",
"120 359 OFFCURVE",
"130 358 CURVE",
"147 357 OFFCURVE",
"163 360 OFFCURVE",
"180 359 CURVE",
"303 359 LINE",
"310 360 OFFCURVE",
"316 357 OFFCURVE",
"322 358 CURVE",
"328 358 OFFCURVE",
"334 361 OFFCURVE",
"341 361 CURVE SMOOTH",
"355 361 OFFCURVE",
"371 359 OFFCURVE",
"385 359 CURVE SMOOTH",
"400 359 OFFCURVE",
"414 361 OFFCURVE",
"428 358 CURVE",
"437 362 OFFCURVE",
"450 361 OFFCURVE",
"462 361 CURVE SMOOTH",
"468 361 OFFCURVE",
"474 363 OFFCURVE",
"480 363 CURVE",
"485 362 OFFCURVE",
"489 359 OFFCURVE",
"494 358 CURVE",
"501 346 OFFCURVE",
"497 333 OFFCURVE",
"497 320 CURVE SMOOTH",
"497 315 OFFCURVE",
"499 309 OFFCURVE",
"499 303 CURVE SMOOTH",
"499 279 LINE",
"495 269 OFFCURVE",
"497 253 OFFCURVE",
"494 241 CURVE",
"495 233 OFFCURVE",
"500 226 OFFCURVE",
"500 216 CURVE",
"501 210 OFFCURVE",
"499 202 OFFCURVE",
"499 196 CURVE",
"498 180 OFFCURVE",
"497 169 OFFCURVE",
"500 158 CURVE",
"495 140 OFFCURVE",
"500 126 OFFCURVE",
"497 106 CURVE SMOOTH",
"496 98 OFFCURVE",
"501 97 OFFCURVE",
"500 90 CURVE",
"498 79 OFFCURVE",
"500 67 OFFCURVE",
"499 54 CURVE SMOOTH",
"498 41 OFFCURVE",
"492 28 OFFCURVE",
"497 19 CURVE",
"501 15 OFFCURVE",
"510 10 OFFCURVE",
"518 14 CURVE",
"528 14 OFFCURVE",
"539 13 OFFCURVE",
"544 17 CURVE",
"554 31 OFFCURVE",
"547 55 OFFCURVE",
"544 71 CURVE",
"541 98 OFFCURVE",
"545 125 OFFCURVE",
"544 151 CURVE",
"544 162 OFFCURVE",
"543 172 OFFCURVE",
"543 181 CURVE SMOOTH",
"543 194 OFFCURVE",
"546 213 OFFCURVE",
"546 229 CURVE SMOOTH",
"546 242 OFFCURVE",
"543 255 OFFCURVE",
"543 268 CURVE",
"542 278 OFFCURVE",
"544 288 OFFCURVE",
"544 298 CURVE SMOOTH",
"544 320 OFFCURVE",
"542 343 OFFCURVE",
"541 366 CURVE",
"544 377 OFFCURVE",
"550 385 OFFCURVE",
"549 400 CURVE",
"547 405 OFFCURVE",
"544 409 OFFCURVE",
"541 413 CURVE",
"540 421 OFFCURVE",
"546 423 OFFCURVE",
"544 432 CURVE",
"540 447 OFFCURVE",
"544 464 OFFCURVE",
"543 481 CURVE SMOOTH",
"541 521 OFFCURVE",
"543 567 OFFCURVE",
"544 609 CURVE",
"537 634 OFFCURVE",
"548 669 OFFCURVE",
"537 694 CURVE",
"528 700 OFFCURVE",
"510 701 OFFCURVE",
"500 695 CURVE",
"493 685 OFFCURVE",
"494 670 OFFCURVE",
"494 656 CURVE SMOOTH",
"494 624 OFFCURVE",
"493 590 OFFCURVE",
"494 560 CURVE",
"499 540 OFFCURVE",
"496 514 OFFCURVE",
"496 492 CURVE SMOOTH",
"496 482 OFFCURVE",
"497 473 OFFCURVE",
"497 464 CURVE SMOOTH",
"497 442 OFFCURVE",
"499 422 OFFCURVE",
"491 410 CURVE",
"461 404 OFFCURVE",
"426 408 OFFCURVE",
"395 408 CURVE",
"387 409 OFFCURVE",
"384 414 OFFCURVE",
"376 415 CURVE",
"370 414 OFFCURVE",
"368 409 OFFCURVE",
"362 410 CURVE",
"355 413 OFFCURVE",
"341 412 OFFCURVE",
"335 410 CURVE",
"323 416 OFFCURVE",
"305 412 OFFCURVE",
"294 408 CURVE",
"286 410 OFFCURVE",
"281 414 OFFCURVE",
"270 413 CURVE",
"252 410 OFFCURVE",
"231 409 OFFCURVE",
"212 412 CURVE",
"203 409 OFFCURVE",
"191 408 OFFCURVE",
"180 407 CURVE",
"172 405 OFFCURVE",
"172 412 OFFCURVE",
"165 412 CURVE",
"149 409 OFFCURVE",
"132 402 OFFCURVE",
"114 407 CURVE",
"111 409 OFFCURVE",
"103 403 OFFCURVE",
"98 407 CURVE",
"89 420 OFFCURVE",
"90 450 OFFCURVE",
"94 468 CURVE",
"88 486 OFFCURVE",
"92 502 OFFCURVE",
"92 519 CURVE SMOOTH",
"92 528 OFFCURVE",
"89 538 OFFCURVE",
"94 547 CURVE",
"89 561 OFFCURVE",
"93 576 OFFCURVE",
"92 593 CURVE",
"92 627 LINE SMOOTH"
);
}
);
width = 595;
}
);
unicode = 0048;
},
{
glyphname = I;
layers = (
{
layerId = "C5490108-C233-4ADF-8B6D-CFE8E3B23812";
paths = (
{
closed = 1;
nodes = (
"72 622 OFFCURVE",
"75 610 OFFCURVE",
"74 602 CURVE",
"74 599 OFFCURVE",
"73 595 OFFCURVE",
"73 593 CURVE SMOOTH",
"73 590 OFFCURVE",
"76 587 OFFCURVE",
"76 585 CURVE SMOOTH",
"76 582 OFFCURVE",
"74 579 OFFCURVE",
"74 575 CURVE",
"75 561 OFFCURVE",
"77 547 OFFCURVE",
"76 533 CURVE",
"75 526 OFFCURVE",
"73 519 OFFCURVE",
"73 512 CURVE",
"72 502 OFFCURVE",
"76 491 OFFCURVE",
"73 481 CURVE",
"74 472 OFFCURVE",
"77 463 OFFCURVE",
"77 454 CURVE",
"79 437 OFFCURVE",
"75 425 OFFCURVE",
"74 412 CURVE SMOOTH",
"73 398 OFFCURVE",
"75 384 OFFCURVE",
"76 369 CURVE",
"76 354 OFFCURVE",
"74 340 OFFCURVE",
"74 325 CURVE SMOOTH",
"74 316 OFFCURVE",
"76 306 OFFCURVE",
"76 296 CURVE SMOOTH",
"76 289 OFFCURVE",
"74 281 OFFCURVE",
"74 273 CURVE SMOOTH",
"74 258 OFFCURVE",
"77 242 OFFCURVE",
"77 227 CURVE",
"78 210 OFFCURVE",
"76 194 OFFCURVE",
"76 178 CURVE SMOOTH",
"76 131 LINE SMOOTH",
"76 116 OFFCURVE",
"72 102 OFFCURVE",
"77 88 CURVE",
"73 79 OFFCURVE",
"74 65 OFFCURVE",
"76 54 CURVE",
"75 44 OFFCURVE",
"70 37 OFFCURVE",
"73 28 CURVE",
"74 23 OFFCURVE",
"79 21 OFFCURVE",
"82 16 CURVE",
"96 12 OFFCURVE",
"114 15 OFFCURVE",
"120 24 CURVE",
"124 46 OFFCURVE",
"118 69 OFFCURVE",
"118 92 CURVE",
"119 102 OFFCURVE",
"122 111 OFFCURVE",
"122 121 CURVE",
"121 134 OFFCURVE",
"117 146 OFFCURVE",
"117 158 CURVE",
"116 189 OFFCURVE",
"123 219 OFFCURVE",
"117 249 CURVE",
"123 261 OFFCURVE",
"118 274 OFFCURVE",
"118 287 CURVE",
"119 293 OFFCURVE",
"120 301 OFFCURVE",
"120 307 CURVE SMOOTH",
"121 346 OFFCURVE",
"117 385 OFFCURVE",
"117 424 CURVE SMOOTH",
"117 463 OFFCURVE",
"118 506 OFFCURVE",
"117 542 CURVE SMOOTH",
"116 570 OFFCURVE",
"118 597 OFFCURVE",
"114 620 CURVE",
"117 641 OFFCURVE",
"123 677 OFFCURVE",
"109 691 CURVE",
"100 693 OFFCURVE",
"86 693 OFFCURVE",
"79 689 CURVE",
"73 678 OFFCURVE",
"73 665 OFFCURVE",
"73 653 CURVE SMOOTH",
"73 634 LINE"
);
}
);
width = 206;
}
);
unicode = 0049;
},
{
glyphname = J;
layers = (
{
layerId = "C5490108-C233-4ADF-8B6D-CFE8E3B23812";
paths = (
{
closed = 1;
nodes = (
"157 310 OFFCURVE",
"156 300 OFFCURVE",
"156 292 CURVE SMOOTH",
"156 284 OFFCURVE",
"159 277 OFFCURVE",
"159 270 CURVE SMOOTH",
"159 266 OFFCURVE",
"158 263 OFFCURVE",
"157 260 CURVE",
"157 257 OFFCURVE",
"159 254 OFFCURVE",
"159 251 CURVE SMOOTH",
"159 243 OFFCURVE",
"157 236 OFFCURVE",
"157 229 CURVE",
"158 203 OFFCURVE",
"166 176 OFFCURVE",
"157 151 CURVE",
"161 147 OFFCURVE",
"161 140 OFFCURVE",
"161 132 CURVE",
"157 104 OFFCURVE",
"162 75 OFFCURVE",
"162 47 CURVE SMOOTH",
"162 45 OFFCURVE",
"161 44 OFFCURVE",
"161 41 CURVE SMOOTH",
"161 38 OFFCURVE",
"162 36 OFFCURVE",
"162 35 CURVE",
"163 16 OFFCURVE",
"161 3 OFFCURVE",
"162 -13 CURVE",
"159 -21 OFFCURVE",
"158 -32 OFFCURVE",
"154 -41 CURVE",
"143 -55 OFFCURVE",
"131 -67 OFFCURVE",
"115 -76 CURVE",
"98 -81 OFFCURVE",
"79 -75 OFFCURVE",
"61 -79 CURVE",
"53 -73 OFFCURVE",
"43 -69 OFFCURVE",
"35 -65 CURVE",
"30 -60 OFFCURVE",
"28 -54 OFFCURVE",
"22 -50 CURVE",
"20 -41 OFFCURVE",
"18 -36 OFFCURVE",
"9 -35 CURVE",
"1 -33 OFFCURVE",
"-13 -41 OFFCURVE",
"-14 -46 CURVE",
"-18 -54 OFFCURVE",
"-24 -60 OFFCURVE",
"-27 -69 CURVE",
"-23 -72 OFFCURVE",
"-24 -80 OFFCURVE",
"-24 -87 CURVE",
"-18 -96 OFFCURVE",
"-8 -103 OFFCURVE",
"1 -109 CURVE",
"12 -114 OFFCURVE",
"18 -123 OFFCURVE",
"30 -128 CURVE",
"49 -132 OFFCURVE",
"72 -138 OFFCURVE",
"94 -137 CURVE",
"109 -137 OFFCURVE",
"122 -131 OFFCURVE",
"135 -132 CURVE",
"140 -129 OFFCURVE",
"145 -125 OFFCURVE",
"153 -124 CURVE",
"162 -115 OFFCURVE",
"171 -104 OFFCURVE",
"180 -93 CURVE",
"186 -79 OFFCURVE",
"198 -71 OFFCURVE",
"205 -58 CURVE",
"211 -27 LINE",
"209 -17 OFFCURVE",
"209 -4 OFFCURVE",
"209 8 CURVE",
"212 9 OFFCURVE",
"209 10 OFFCURVE",
"209 13 CURVE",
"206 46 LINE",
"206 57 OFFCURVE",
"203 68 OFFCURVE",
"203 79 CURVE SMOOTH",
"203 84 OFFCURVE",
"205 88 OFFCURVE",
"205 93 CURVE SMOOTH",
"205 98 OFFCURVE",
"203 103 OFFCURVE",
"203 109 CURVE SMOOTH",
"203 141 OFFCURVE",
"206 173 OFFCURVE",
"205 205 CURVE SMOOTH",
"204 227 OFFCURVE",
"203 249 OFFCURVE",
"203 271 CURVE SMOOTH",
"203 294 OFFCURVE",
"202 315 OFFCURVE",
"202 337 CURVE SMOOTH",
"202 350 OFFCURVE",
"205 363 OFFCURVE",
"205 375 CURVE SMOOTH",
"205 397 OFFCURVE",
"202 418 OFFCURVE",
"202 440 CURVE",
"201 452 OFFCURVE",
"203 463 OFFCURVE",
"203 475 CURVE SMOOTH",
"203 485 OFFCURVE",
"202 497 OFFCURVE",
"202 508 CURVE",
"201 526 OFFCURVE",
"202 544 OFFCURVE",
"200 561 CURVE",
"200 569 OFFCURVE",
"200 576 OFFCURVE",
"203 580 CURVE",
"198 596 OFFCURVE",
"201 615 OFFCURVE",
"202 632 CURVE SMOOTH",
"203 652 OFFCURVE",
"206 672 OFFCURVE",
"198 691 CURVE",
"191 697 OFFCURVE",
"163 698 OFFCURVE",
"156 691 CURVE",
"153 683 OFFCURVE",
"153 674 OFFCURVE",
"153 665 CURVE SMOOTH",
"153 649 OFFCURVE",
"156 632 OFFCURVE",
"156 616 CURVE SMOOTH",
"156 609 OFFCURVE",
"154 601 OFFCURVE",
"154 593 CURVE",
"155 583 OFFCURVE",
"157 573 OFFCURVE",
"157 563 CURVE",
"158 540 OFFCURVE",
"158 517 OFFCURVE",
"157 497 CURVE",
"157 468 OFFCURVE",
"158 437 OFFCURVE",
"157 407 CURVE",
"155 406 OFFCURVE",
"159 399 OFFCURVE",
"159 396 CURVE SMOOTH",
"157 319 LINE SMOOTH"
);
}
);
width = 289;
}
);
unicode = 004A;
},
{
glyphname = K;
layers = (
{
layerId = "C5490108-C233-4ADF-8B6D-CFE8E3B23812";
paths = (
{
closed = 1;
nodes = (
"82 428 OFFCURVE",
"77 390 OFFCURVE",
"83 353 CURVE",
"79 339 OFFCURVE",
"80 320 OFFCURVE",
"83 306 CURVE",
"77 277 OFFCURVE",
"84 244 OFFCURVE",
"81 211 CURVE",
"81 206 OFFCURVE",
"79 201 OFFCURVE",
"78 196 CURVE",
"77 184 OFFCURVE",
"79 172 OFFCURVE",
"78 161 CURVE",
"79 155 OFFCURVE",
"82 153 OFFCURVE",
"81 147 CURVE SMOOTH",
"79 132 OFFCURVE",
"83 119 OFFCURVE",
"83 106 CURVE SMOOTH",
"83 90 OFFCURVE",
"78 75 OFFCURVE",
"81 58 CURVE",
"78 50 OFFCURVE",
"74 42 OFFCURVE",
"75 28 CURVE",
"81 13 OFFCURVE",
"97 8 OFFCURVE",
"114 3 CURVE",
"125 8 OFFCURVE",
"134 16 OFFCURVE",
"137 28 CURVE",
"134 40 OFFCURVE",
"130 49 OFFCURVE",
"127 60 CURVE",
"128 76 OFFCURVE",
"126 99 OFFCURVE",
"129 118 CURVE",
"128 126 OFFCURVE",
"125 132 OFFCURVE",
"126 140 CURVE",
"125 149 OFFCURVE",
"126 155 OFFCURVE",
"129 161 CURVE",
"124 181 OFFCURVE",
"122 201 OFFCURVE",
"129 219 CURVE",
"121 247 OFFCURVE",
"127 283 OFFCURVE",
"127 317 CURVE",
"131 318 OFFCURVE",
"131 323 OFFCURVE",
"135 323 CURVE",
"137 326 OFFCURVE",
"138 330 OFFCURVE",
"144 330 CURVE",
"155 327 OFFCURVE",
"158 318 OFFCURVE",
"165 312 CURVE",
"170 304 OFFCURVE",
"177 298 OFFCURVE",
"184 292 CURVE",
"187 287 OFFCURVE",
"188 281 OFFCURVE",
"190 276 CURVE",
"195 274 OFFCURVE",
"201 273 OFFCURVE",
"206 270 CURVE",
"222 254 OFFCURVE",
"231 232 OFFCURVE",
"255 224 CURVE",
"262 216 OFFCURVE",
"267 208 OFFCURVE",
"274 200 CURVE",
"281 193 OFFCURVE",
"289 187 OFFCURVE",
"293 177 CURVE",
"309 169 OFFCURVE",
"320 154 OFFCURVE",
"334 144 CURVE",
"341 129 OFFCURVE",
"356 122 OFFCURVE",
"364 107 CURVE",
"378 101 OFFCURVE",
"386 89 OFFCURVE",
"397 80 CURVE",
"402 70 OFFCURVE",
"411 63 OFFCURVE",
"417 54 CURVE",
"430 46 OFFCURVE",
"439 35 OFFCURVE",
"449 24 CURVE",
"457 20 OFFCURVE",
"465 16 OFFCURVE",
"471 10 CURVE",
"493 8 OFFCURVE",
"516 3 OFFCURVE",
"527 17 CURVE",
"527 23 OFFCURVE",
"528 30 OFFCURVE",
"524 32 CURVE",
"519 40 OFFCURVE",
"511 48 OFFCURVE",
"504 55 CURVE",
"494 66 OFFCURVE",
"482 74 OFFCURVE",
"474 84 CURVE",
"471 86 OFFCURVE",
"471 91 OFFCURVE",
"466 92 CURVE",
"460 96 OFFCURVE",
"455 102 OFFCURVE",
"452 109 CURVE",
"438 117 OFFCURVE",
"430 129 OFFCURVE",
"416 136 CURVE",
"409 146 OFFCURVE",
"399 153 OFFCURVE",
"393 164 CURVE",
"370 178 OFFCURVE",
"358 203 OFFCURVE",
"334 216 CURVE",
"333 221 OFFCURVE",
"330 223 OFFCURVE",
"329 227 CURVE",
"324 231 OFFCURVE",
"317 233 OFFCURVE",
"315 240 CURVE",
"311 246 OFFCURVE",
"303 247 OFFCURVE",
"299 252 CURVE",
"291 263 OFFCURVE",
"280 270 OFFCURVE",
"274 282 CURVE",
"256 291 OFFCURVE",
"248 309 OFFCURVE",
"230 317 CURVE",
"228 322 OFFCURVE",
"225 326 OFFCURVE",
"222 330 CURVE",
"212 334 OFFCURVE",
"205 342 OFFCURVE",
"196 347 CURVE",
"191 356 OFFCURVE",
"179 359 OFFCURVE",
"178 372 CURVE",
"182 378 OFFCURVE",
"190 382 OFFCURVE",
"198 385 CURVE",
"207 397 OFFCURVE",
"222 404 OFFCURVE",
"233 415 CURVE",
"244 425 OFFCURVE",
"269 447 OFFCURVE",
"271 452 CURVE",
"281 459 OFFCURVE",
"285 471 OFFCURVE",
"297 476 CURVE",
"304 487 OFFCURVE",
"315 494 OFFCURVE",
"324 501 CURVE",
"334 521 OFFCURVE",
"352 533 OFFCURVE",
"368 545 CURVE",
"373 550 OFFCURVE",
"375 557 OFFCURVE",
"379 563 CURVE",
"386 567 OFFCURVE",
"392 573 OFFCURVE",
"400 575 CURVE",
"399 582 OFFCURVE",
"402 586 OFFCURVE",
"405 590 CURVE",
"410 595 OFFCURVE",
"417 598 OFFCURVE",
"423 602 CURVE",
"426 611 OFFCURVE",
"432 617 OFFCURVE",
"439 621 CURVE",
"444 629 OFFCURVE",
"451 634 OFFCURVE",
"455 642 CURVE",
"467 649 OFFCURVE",
"478 659 OFFCURVE",
"486 670 CURVE",
"488 682 OFFCURVE",
"488 690 OFFCURVE",
"482 697 CURVE",
"465 702 OFFCURVE",
"446 699 OFFCURVE",
"431 694 CURVE",
"422 686 OFFCURVE",
"413 676 OFFCURVE",
"405 667 CURVE SMOOTH",
"396 657 OFFCURVE",
"386 648 OFFCURVE",
"381 635 CURVE",
"371 628 OFFCURVE",
"361 622 OFFCURVE",
"356 610 CURVE",
"349 608 OFFCURVE",
"345 604 OFFCURVE",
"341 599 CURVE",
"339 593 OFFCURVE",
"331 593 OFFCURVE",
"327 588 CURVE",
"326 580 OFFCURVE",
"322 575 OFFCURVE",
"319 569 CURVE",
"303 562 OFFCURVE",
"295 546 OFFCURVE",
"278 539 CURVE",
"277 533 OFFCURVE",
"273 530 OFFCURVE",
"271 525 CURVE",
"266 522 OFFCURVE",
"263 518 OFFCURVE",
"258 516 CURVE",
"254 512 OFFCURVE",
"252 507 OFFCURVE",
"247 505 CURVE",
"239 497 OFFCURVE",
"234 487 OFFCURVE",
"226 479 CURVE",
"219 475 OFFCURVE",
"211 471 OFFCURVE",
"206 464 CURVE",
"198 459 OFFCURVE",
"194 451 OFFCURVE",
"185 446 CURVE",
"181 438 OFFCURVE",
"177 430 OFFCURVE",
"168 427 CURVE",
"167 420 OFFCURVE",
"161 418 OFFCURVE",
"160 412 CURVE",
"154 408 OFFCURVE",
"148 404 OFFCURVE",
"146 397 CURVE",
"140 396 OFFCURVE",
"135 386 OFFCURVE",
"129 389 CURVE",
"123 398 OFFCURVE",
"126 409 OFFCURVE",
"126 419 CURVE",
"125 429 OFFCURVE",
"124 439 OFFCURVE",
"124 449 CURVE",
"127 532 OFFCURVE",
"126 613 OFFCURVE",
"129 692 CURVE",
"124 697 OFFCURVE",
"119 704 OFFCURVE",
"110 705 CURVE",
"96 705 OFFCURVE",
"91 699 OFFCURVE",
"83 694 CURVE",
"81 659 OFFCURVE",
"82 609 OFFCURVE",
"80 575 CURVE",
"78 555 OFFCURVE",
"82 536 OFFCURVE",
"83 516 CURVE",
"83 512 OFFCURVE",
"81 508 OFFCURVE",
"81 505 CURVE SMOOTH",
"81 495 OFFCURVE",
"83 489 OFFCURVE",
"83 482 CURVE SMOOTH",
"83 468 LINE SMOOTH"
);
}
);
width = 556;
}
);
unicode = 004B;
},
{
glyphname = L;
layers = (
{
layerId = "C5490108-C233-4ADF-8B6D-CFE8E3B23812";
paths = (
{
closed = 1;
nodes = (
"104 507 OFFCURVE",
"106 509 OFFCURVE",
"105 512 CURVE",
"105 518 OFFCURVE",
"103 524 OFFCURVE",
"102 530 CURVE",
"102 537 OFFCURVE",
"104 543 OFFCURVE",
"104 550 CURVE SMOOTH",
"104 557 OFFCURVE",
"102 564 OFFCURVE",
"102 571 CURVE SMOOTH",
"102 585 OFFCURVE",
"104 599 OFFCURVE",
"104 613 CURVE SMOOTH",
"104 624 OFFCURVE",
"101 635 OFFCURVE",
"101 645 CURVE SMOOTH",
"101 661 OFFCURVE",
"107 679 OFFCURVE",
"98 694 CURVE",
"91 698 OFFCURVE",
"70 698 OFFCURVE",
"63 694 CURVE",
"52 684 OFFCURVE",
"57 659 OFFCURVE",
"50 646 CURVE",
"54 638 OFFCURVE",
"53 626 OFFCURVE",
"55 616 CURVE",
"48 603 OFFCURVE",
"51 588 OFFCURVE",
"52 572 CURVE",
"52 561 OFFCURVE",
"51 549 OFFCURVE",
"52 538 CURVE SMOOTH",
"53 529 OFFCURVE",
"56 521 OFFCURVE",
"57 512 CURVE",
"57 504 OFFCURVE",
"53 497 OFFCURVE",
"55 489 CURVE",
"55 482 OFFCURVE",
"57 479 OFFCURVE",
"58 473 CURVE",
"57 437 OFFCURVE",
"54 392 OFFCURVE",
"57 352 CURVE",
"53 331 LINE",
"53 319 OFFCURVE",
"58 305 OFFCURVE",
"58 292 CURVE SMOOTH",
"58 282 OFFCURVE",
"56 272 OFFCURVE",
"57 262 CURVE",
"58 240 OFFCURVE",
"57 219 OFFCURVE",
"57 197 CURVE SMOOTH",
"57 182 OFFCURVE",
"60 167 OFFCURVE",
"60 151 CURVE SMOOTH",
"60 144 OFFCURVE",
"58 137 OFFCURVE",
"58 129 CURVE SMOOTH",
"58 113 OFFCURVE",
"60 98 OFFCURVE",
"60 82 CURVE SMOOTH",
"60 60 OFFCURVE",
"52 37 OFFCURVE",
"61 17 CURVE",
"74 9 OFFCURVE",
"94 11 OFFCURVE",
"112 11 CURVE",
"138 2 OFFCURVE",
"172 12 OFFCURVE",
"198 6 CURVE",
"207 5 OFFCURVE",
"208 12 OFFCURVE",
"216 11 CURVE",
"226 8 OFFCURVE",
"242 10 OFFCURVE",
"255 10 CURVE",
"259 14 OFFCURVE",
"266 15 OFFCURVE",
"271 17 CURVE",
"274 24 OFFCURVE",
"275 33 OFFCURVE",
"277 41 CURVE",
"273 49 OFFCURVE",
"272 59 OFFCURVE",
"263 62 CURVE",
"248 66 OFFCURVE",
"222 66 OFFCURVE",
"205 63 CURVE",
"198 67 OFFCURVE",
"188 68 OFFCURVE",
"181 73 CURVE",
"171 70 OFFCURVE",
"160 69 OFFCURVE",
"150 66 CURVE",
"143 66 OFFCURVE",
"139 69 OFFCURVE",
"134 69 CURVE",
"127 70 OFFCURVE",
"120 63 OFFCURVE",
"113 68 CURVE",
"96 86 OFFCURVE",
"111 123 OFFCURVE",
"102 150 CURVE",
"108 160 OFFCURVE",
"104 181 OFFCURVE",
"107 194 CURVE",
"100 225 OFFCURVE",
"107 252 OFFCURVE",
"105 284 CURVE",
"105 290 OFFCURVE",
"109 293 OFFCURVE",
"109 300 CURVE",
"103 325 OFFCURVE",
"105 353 OFFCURVE",
"105 382 CURVE",
"106 389 OFFCURVE",
"102 393 OFFCURVE",
"102 400 CURVE",
"106 425 OFFCURVE",
"103 451 OFFCURVE",
"104 476 CURVE",
"104 503 LINE SMOOTH"
);
}
);
width = 305;
}
);
unicode = 004C;
},
{
glyphname = M;
layers = (
{
layerId = "C5490108-C233-4ADF-8B6D-CFE8E3B23812";
paths = (
{
closed = 1;
nodes = (
"763 37 OFFCURVE",
"762 46 OFFCURVE",
"760 54 CURVE",
"762 64 OFFCURVE",
"761 68 OFFCURVE",
"762 80 CURVE",
"759 99 OFFCURVE",
"756 120 OFFCURVE",
"757 139 CURVE",
"755 156 OFFCURVE",
"750 179 OFFCURVE",
"752 197 CURVE",
"744 216 OFFCURVE",
"749 249 OFFCURVE",
"741 268 CURVE",
"740 293 OFFCURVE",
"737 318 OFFCURVE",
"735 342 CURVE SMOOTH",
"733 367 OFFCURVE",
"729 391 OFFCURVE",
"729 415 CURVE",
"726 419 OFFCURVE",
"726 425 OFFCURVE",
"724 430 CURVE",
"726 446 OFFCURVE",
"721 463 OFFCURVE",
"719 481 CURVE",
"718 499 OFFCURVE",
"717 517 OFFCURVE",
"713 533 CURVE",
"713 552 LINE",
"708 573 OFFCURVE",
"706 596 OFFCURVE",
"704 620 CURVE SMOOTH",
"701 650 OFFCURVE",
"697 677 OFFCURVE",
"696 706 CURVE",
"695 711 OFFCURVE",
"695 717 OFFCURVE",
"689 717 CURVE",
"679 719 OFFCURVE",
"679 709 OFFCURVE",
"674 706 CURVE",
"672 701 OFFCURVE",
"668 698 OFFCURVE",
"667 695 CURVE",
"665 688 OFFCURVE",
"666 685 OFFCURVE",
"664 679 CURVE",
"659 672 LINE",
"657 666 OFFCURVE",
"656 660 OFFCURVE",
"653 654 CURVE SMOOTH",
"645 637 LINE",
"645 636 OFFCURVE",
"646 634 OFFCURVE",
"645 632 CURVE",
"645 632 OFFCURVE",
"642 630 OFFCURVE",
"642 629 CURVE",
"639 620 LINE",
"631 601 OFFCURVE",
"622 585 OFFCURVE",
"614 569 CURVE",
"610 544 OFFCURVE",
"596 530 OFFCURVE",
"589 509 CURVE",
"588 503 OFFCURVE",
"584 500 OFFCURVE",
"582 495 CURVE SMOOTH",
"580 490 OFFCURVE",
"582 481 OFFCURVE",
"576 479 CURVE",
"573 468 OFFCURVE",
"568 459 OFFCURVE",
"562 451 CURVE",
"558 436 OFFCURVE",
"553 423 OFFCURVE",
"544 413 CURVE",
"539 389 OFFCURVE",
"524 375 OFFCURVE",
"521 348 CURVE",
"512 340 OFFCURVE",
"508 327 OFFCURVE",
"502 315 CURVE SMOOTH",
"494 299 OFFCURVE",
"489 274 OFFCURVE",
"477 263 CURVE",
"476 246 OFFCURVE",
"465 239 OFFCURVE",
"464 222 CURVE",
"449 203 OFFCURVE",
"443 175 OFFCURVE",
"428 156 CURVE",
"428 144 LINE",
"415 134 OFFCURVE",
"420 107 OFFCURVE",
"403 103 CURVE",
"393 112 OFFCURVE",
"391 128 OFFCURVE",
"382 137 CURVE",
"381 148 OFFCURVE",
"376 157 OFFCURVE",
"373 164 CURVE SMOOTH",
"369 173 OFFCURVE",
"367 182 OFFCURVE",
"360 189 CURVE",
"353 208 OFFCURVE",
"344 223 OFFCURVE",
"335 240 CURVE",
"333 245 OFFCURVE",
"332 252 OFFCURVE",
"330 257 CURVE",
"320 273 OFFCURVE",
"311 290 OFFCURVE",
"306 311 CURVE",
"298 320 OFFCURVE",
"293 334 OFFCURVE",
"286 345 CURVE",
"279 368 OFFCURVE",
"268 385 OFFCURVE",
"259 405 CURVE",
"249 425 OFFCURVE",
"241 446 OFFCURVE",
"229 464 CURVE",
"227 473 OFFCURVE",
"222 481 OFFCURVE",
"218 489 CURVE",
"216 498 OFFCURVE",
"209 504 OFFCURVE",
"207 514 CURVE",
"197 529 OFFCURVE",
"190 546 OFFCURVE",
"182 563 CURVE",
"178 580 OFFCURVE",
"172 594 OFFCURVE",
"163 605 CURVE",
"160 617 OFFCURVE",
"155 626 OFFCURVE",
"150 635 CURVE",
"146 646 OFFCURVE",
"138 652 OFFCURVE",
"136 665 CURVE",
"130 674 OFFCURVE",
"126 685 OFFCURVE",
"120 694 CURVE",
"116 704 OFFCURVE",
"117 719 OFFCURVE",
"103 720 CURVE",
"97 718 OFFCURVE",
"99 708 OFFCURVE",
"97 702 CURVE",
"92 680 OFFCURVE",
"94 652 OFFCURVE",
"89 631 CURVE",
"90 594 OFFCURVE",
"83 566 OFFCURVE",
"79 534 CURVE",
"78 528 OFFCURVE",
"82 526 OFFCURVE",
"81 519 CURVE SMOOTH",
"74 478 OFFCURVE",
"74 430 OFFCURVE",
"64 393 CURVE",
"64 387 OFFCURVE",
"66 382 OFFCURVE",
"65 375 CURVE",
"60 356 OFFCURVE",
"63 328 OFFCURVE",
"57 309 CURVE",
"58 304 OFFCURVE",
"60 300 OFFCURVE",
"59 293 CURVE",
"57 286 OFFCURVE",
"54 280 OFFCURVE",
"53 273 CURVE",
"55 229 OFFCURVE",
"44 201 OFFCURVE",
"45 156 CURVE",
"39 122 OFFCURVE",
"39 82 OFFCURVE",
"35 46 CURVE",
"33 37 OFFCURVE",
"26 28 OFFCURVE",
"29 19 CURVE",
"35 7 OFFCURVE",
"57 7 OFFCURVE",
"73 10 CURVE",
"76 15 OFFCURVE",
"80 19 OFFCURVE",
"83 25 CURVE",
"81 61 OFFCURVE",
"90 85 OFFCURVE",
"89 120 CURVE",
"89 125 OFFCURVE",
"92 127 OFFCURVE",
"92 132 CURVE",
"91 146 OFFCURVE",
"94 160 OFFCURVE",
"95 173 CURVE",
"95 177 OFFCURVE",
"93 180 OFFCURVE",
"94 183 CURVE",
"94 186 OFFCURVE",
"97 188 OFFCURVE",
"97 191 CURVE SMOOTH",
"97 198 OFFCURVE",
"96 206 OFFCURVE",
"97 213 CURVE",
"97 219 OFFCURVE",
"99 225 OFFCURVE",
"100 232 CURVE SMOOTH",
"104 263 OFFCURVE",
"101 299 OFFCURVE",
"108 325 CURVE",
"104 362 OFFCURVE",
"117 397 OFFCURVE",
"116 438 CURVE",
"116 443 OFFCURVE",
"119 445 OFFCURVE",
"119 451 CURVE",
"118 485 OFFCURVE",
"123 513 OFFCURVE",
"124 549 CURVE SMOOTH",
"124 555 OFFCURVE",
"123 562 OFFCURVE",
"130 563 CURVE",
"136 562 OFFCURVE",
"138 553 OFFCURVE",
"139 549 CURVE",
"143 539 OFFCURVE",
"149 530 OFFCURVE",
"152 520 CURVE",
"159 506 OFFCURVE",
"167 491 OFFCURVE",
"171 473 CURVE",
"183 464 OFFCURVE",
"182 442 OFFCURVE",
"194 432 CURVE",
"194 419 LINE",
"203 413 OFFCURVE",
"204 399 OFFCURVE",
"212 391 CURVE",
"211 385 OFFCURVE",
"212 381 OFFCURVE",
"213 377 CURVE",
"218 371 OFFCURVE",
"222 365 OFFCURVE",
"226 358 CURVE",
"237 336 LINE",
"238 326 OFFCURVE",
"245 323 OFFCURVE",
"246 314 CURVE",
"253 307 OFFCURVE",
"252 298 OFFCURVE",
"256 290 CURVE",
"259 283 OFFCURVE",
"265 278 OFFCURVE",
"267 271 CURVE",
"269 266 OFFCURVE",
"270 259 OFFCURVE",
"272 254 CURVE",
"278 246 OFFCURVE",
"284 237 OFFCURVE",
"289 227 CURVE SMOOTH",
"294 217 OFFCURVE",
"297 205 OFFCURVE",
"303 196 CURVE",
"303 178 OFFCURVE",
"313 169 OFFCURVE",
"319 159 CURVE",
"321 156 OFFCURVE",
"320 153 OFFCURVE",
"322 150 CURVE",
"324 146 OFFCURVE",
"326 146 OFFCURVE",
"328 142 CURVE",
"329 131 OFFCURVE",
"335 125 OFFCURVE",
"339 117 CURVE",
"347 111 OFFCURVE",
"348 100 OFFCURVE",
"354 93 CURVE",
"354 87 OFFCURVE",
"357 84 OFFCURVE",
"357 77 CURVE",
"365 69 OFFCURVE",
"370 55 OFFCURVE",
"374 44 CURVE",
"375 43 OFFCURVE",
"374 41 OFFCURVE",
"374 39 CURVE",
"374 39 OFFCURVE",
"377 37 OFFCURVE",
"377 36 CURVE",
"384 24 OFFCURVE",
"392 5 OFFCURVE",
"404 5 CURVE SMOOTH",
"411 5 OFFCURVE",
"417 12 OFFCURVE",
"421 17 CURVE SMOOTH",
"426 23 OFFCURVE",
"429 31 OFFCURVE",
"434 36 CURVE",
"436 49 OFFCURVE",
"441 60 OFFCURVE",
"444 73 CURVE",
"457 87 OFFCURVE",
"460 111 OFFCURVE",
"472 126 CURVE",
"471 136 OFFCURVE",
"478 138 OFFCURVE",
"477 148 CURVE",
"482 154 OFFCURVE",
"484 162 OFFCURVE",
"488 169 CURVE",
"490 177 OFFCURVE",
"495 182 OFFCURVE",
"499 189 CURVE",
"499 195 OFFCURVE",
"501 198 OFFCURVE",
"500 205 CURVE",
"509 217 OFFCURVE",
"516 231 OFFCURVE",
"522 246 CURVE SMOOTH",
"528 262 OFFCURVE",
"539 272 OFFCURVE",
"541 292 CURVE",
"554 306 LINE",
"554 327 OFFCURVE",
"566 337 OFFCURVE",
"570 355 CURVE",
"576 363 LINE",
"578 366 OFFCURVE",
"580 368 OFFCURVE",
"582 372 CURVE",
"587 381 OFFCURVE",
"589 391 OFFCURVE",
"592 402 CURVE",
"599 415 OFFCURVE",
"604 429 OFFCURVE",
"611 443 CURVE",
"616 457 OFFCURVE",
"619 474 OFFCURVE",
"630 484 CURVE",
"630 494 OFFCURVE",
"636 499 OFFCURVE",
"637 509 CURVE",
"649 522 OFFCURVE",
"652 543 OFFCURVE",
"663 557 CURVE",
"672 539 OFFCURVE",
"668 517 OFFCURVE",
"672 495 CURVE SMOOTH",
"677 470 OFFCURVE",
"682 437 OFFCURVE",
"678 408 CURVE",
"680 400 OFFCURVE",
"683 394 OFFCURVE",
"685 386 CURVE",
"685 371 OFFCURVE",
"686 356 OFFCURVE",
"688 342 CURVE",
"688 327 OFFCURVE",
"689 316 OFFCURVE",
"693 301 CURVE",
"693 295 OFFCURVE",
"690 293 OFFCURVE",
"691 287 CURVE",
"695 277 OFFCURVE",
"698 263 OFFCURVE",
"694 251 CURVE",
"700 237 OFFCURVE",
"700 220 OFFCURVE",
"702 203 CURVE",
"704 178 OFFCURVE",
"706 156 OFFCURVE",
"707 131 CURVE",
"713 112 LINE",
"707 101 OFFCURVE",
"716 92 OFFCURVE",
"711 79 CURVE",
"722 64 OFFCURVE",
"713 29 OFFCURVE",
"726 17 CURVE",
"737 12 OFFCURVE",
"759 14 OFFCURVE",
"765 22 CURVE",
"765 30 LINE"
);
}
);
width = 813;
}
);
unicode = 004D;
},
{
glyphname = N;
layers = (
{
layerId = "C5490108-C233-4ADF-8B6D-CFE8E3B23812";
paths = (
{
closed = 1;
nodes = (
"436 299 OFFCURVE",
"431 312 OFFCURVE",
"420 320 CURVE",
"410 329 OFFCURVE",
"400 337 OFFCURVE",
"393 350 CURVE",
"389 355 OFFCURVE",
"382 357 OFFCURVE",
"379 363 CURVE",
"366 378 LINE",
"338 407 LINE SMOOTH",
"329 416 OFFCURVE",
"317 424 OFFCURVE",
"311 437 CURVE",
"298 443 OFFCURVE",
"294 457 OFFCURVE",
"281 464 CURVE",
"264 484 OFFCURVE",
"244 502 OFFCURVE",
"228 523 CURVE",
"224 529 OFFCURVE",
"216 531 OFFCURVE",
"212 536 CURVE",
"209 542 OFFCURVE",
"203 546 OFFCURVE",
"199 552 CURVE",
"191 562 OFFCURVE",
"180 571 OFFCURVE",
"169 579 CURVE",
"163 592 OFFCURVE",
"151 600 OFFCURVE",
"143 612 CURVE",
"137 616 OFFCURVE",
"130 619 OFFCURVE",
"127 626 CURVE",
"115 637 OFFCURVE",
"103 650 OFFCURVE",
"94 662 CURVE SMOOTH",
"90 667 OFFCURVE",
"88 672 OFFCURVE",
"83 675 CURVE",
"79 681 OFFCURVE",
"72 684 OFFCURVE",
"69 691 CURVE",
"63 695 OFFCURVE",
"61 704 OFFCURVE",
"50 703 CURVE",
"44 702 OFFCURVE",
"45 694 OFFCURVE",
"43 689 CURVE",
"40 685 OFFCURVE",
"42 675 OFFCURVE",
"42 668 CURVE SMOOTH",
"42 655 OFFCURVE",
"46 641 OFFCURVE",
"45 627 CURVE",
"44 621 OFFCURVE",
"42 615 OFFCURVE",
"42 609 CURVE",
"40 600 OFFCURVE",
"45 598 OFFCURVE",
"45 591 CURVE",
"43 585 OFFCURVE",
"43 577 OFFCURVE",
"42 571 CURVE",
"45 557 OFFCURVE",
"44 543 OFFCURVE",
"43 528 CURVE",
"43 512 OFFCURVE",
"45 496 OFFCURVE",
"45 481 CURVE SMOOTH",
"45 475 OFFCURVE",
"43 469 OFFCURVE",
"43 464 CURVE SMOOTH",
"43 452 OFFCURVE",
"47 441 OFFCURVE",
"43 430 CURVE",
"49 408 OFFCURVE",
"45 382 OFFCURVE",
"45 356 CURVE SMOOTH",
"45 289 LINE SMOOTH",
"45 283 OFFCURVE",
"47 276 OFFCURVE",
"46 270 CURVE",
"46 233 OFFCURVE",
"46 191 OFFCURVE",
"45 151 CURVE SMOOTH",
"45 142 OFFCURVE",
"46 133 OFFCURVE",
"46 123 CURVE SMOOTH",
"46 90 OFFCURVE",
"35 44 OFFCURVE",
"48 21 CURVE",
"60 15 OFFCURVE",
"87 16 OFFCURVE",
"94 25 CURVE",
"99 42 OFFCURVE",
"91 60 OFFCURVE",
"91 80 CURVE SMOOTH",
"91 88 OFFCURVE",
"92 96 OFFCURVE",
"92 104 CURVE SMOOTH",
"92 119 OFFCURVE",
"88 135 OFFCURVE",
"92 150 CURVE",
"88 176 OFFCURVE",
"88 219 OFFCURVE",
"89 243 CURVE",
"89 250 OFFCURVE",
"91 259 OFFCURVE",
"91 266 CURVE",
"87 292 LINE",
"86 315 OFFCURVE",
"89 337 OFFCURVE",
"89 359 CURVE SMOOTH",
"89 376 OFFCURVE",
"85 392 OFFCURVE",
"91 405 CURVE",
"85 423 OFFCURVE",
"87 448 OFFCURVE",
"87 465 CURVE",
"88 470 OFFCURVE",
"86 475 OFFCURVE",
"86 479 CURVE",
"85 513 OFFCURVE",
"86 541 OFFCURVE",
"87 566 CURVE",
"86 571 OFFCURVE",
"84 576 OFFCURVE",
"84 583 CURVE",
"86 589 OFFCURVE",
"84 598 OFFCURVE",
"89 601 CURVE",
"101 593 OFFCURVE",
"107 578 OFFCURVE",
"117 569 CURVE",
"128 560 OFFCURVE",
"135 546 OFFCURVE",
"147 538 CURVE",
"157 527 OFFCURVE",
"165 514 OFFCURVE",
"177 506 CURVE",
"182 501 OFFCURVE",
"187 496 OFFCURVE",
"190 489 CURVE",
"196 484 OFFCURVE",
"202 480 OFFCURVE",
"206 473 CURVE",
"210 467 OFFCURVE",
"214 461 OFFCURVE",
"220 457 CURVE",
"225 452 OFFCURVE",
"228 445 OFFCURVE",
"234 441 CURVE",
"242 440 OFFCURVE",
"243 430 OFFCURVE",
"250 427 CURVE",
"253 420 OFFCURVE",
"259 417 OFFCURVE",
"264 412 CURVE",
"267 407 LINE",
"271 402 OFFCURVE",
"276 399 OFFCURVE",
"280 396 CURVE",
"283 388 OFFCURVE",
"288 383 OFFCURVE",
"294 378 CURVE",
"300 375 OFFCURVE",
"304 369 OFFCURVE",
"308 363 CURVE",
"315 359 OFFCURVE",
"319 353 OFFCURVE",
"322 345 CURVE",
"337 338 OFFCURVE",
"347 325 OFFCURVE",
"357 314 CURVE",
"365 311 OFFCURVE",
"367 302 OFFCURVE",
"374 298 CURVE",
"377 290 OFFCURVE",
"386 287 OFFCURVE",
"389 279 CURVE",
"399 268 OFFCURVE",
"411 257 OFFCURVE",
"422 246 CURVE",
"428 241 OFFCURVE",
"434 237 OFFCURVE",
"437 229 CURVE",
"444 224 OFFCURVE",
"450 219 OFFCURVE",
"455 213 CURVE SMOOTH",
"470 196 LINE",
"474 188 OFFCURVE",
"484 187 OFFCURVE",
"486 178 CURVE",
"498 168 OFFCURVE",
"510 158 OFFCURVE",
"519 145 CURVE",
"525 139 OFFCURVE",
"533 137 OFFCURVE",
"535 128 CURVE",
"544 125 OFFCURVE",
"545 115 OFFCURVE",
"552 112 CURVE",
"557 105 OFFCURVE",
"563 100 OFFCURVE",
"567 93 CURVE",
"572 87 OFFCURVE",
"580 83 OFFCURVE",
"586 77 CURVE SMOOTH",
"589 74 OFFCURVE",
"588 66 OFFCURVE",
"592 63 CURVE",
"599 62 OFFCURVE",
"601 55 OFFCURVE",
"606 52 CURVE",
"613 50 OFFCURVE",
"614 42 OFFCURVE",
"619 38 CURVE",
"629 32 OFFCURVE",
"641 21 OFFCURVE",
"655 24 CURVE",
"661 33 OFFCURVE",
"656 46 OFFCURVE",
"657 58 CURVE",
"657 68 OFFCURVE",
"659 79 OFFCURVE",
"658 88 CURVE SMOOTH",
"652 129 OFFCURVE",
"658 172 OFFCURVE",
"655 216 CURVE",
"655 223 OFFCURVE",
"659 225 OFFCURVE",
"658 232 CURVE",
"656 238 OFFCURVE",
"655 245 OFFCURVE",
"655 252 CURVE",
"653 289 OFFCURVE",
"655 329 OFFCURVE",
"655 371 CURVE SMOOTH",
"655 438 OFFCURVE",
"653 503 OFFCURVE",
"653 566 CURVE SMOOTH",
"653 588 OFFCURVE",
"650 607 OFFCURVE",
"655 623 CURVE",
"649 647 OFFCURVE",
"661 680 OFFCURVE",
"649 698 CURVE",
"641 704 OFFCURVE",
"623 705 OFFCURVE",
"614 700 CURVE",
"610 695 OFFCURVE",
"609 688 OFFCURVE",
"606 683 CURVE",
"605 670 OFFCURVE",
"608 661 OFFCURVE",
"609 650 CURVE",
"604 632 OFFCURVE",
"612 613 OFFCURVE",
"606 596 CURVE",
"610 587 OFFCURVE",
"608 574 OFFCURVE",
"611 564 CURVE",
"606 551 OFFCURVE",
"610 540 OFFCURVE",
"611 525 CURVE",
"605 479 OFFCURVE",
"612 430 OFFCURVE",
"609 382 CURVE",
"609 375 OFFCURVE",
"613 373 OFFCURVE",
"612 366 CURVE",
"610 343 OFFCURVE",
"614 318 OFFCURVE",
"616 295 CURVE",
"614 289 OFFCURVE",
"613 283 OFFCURVE",
"611 278 CURVE",
"614 271 OFFCURVE",
"612 261 OFFCURVE",
"611 254 CURVE",
"616 239 OFFCURVE",
"614 219 OFFCURVE",
"614 200 CURVE SMOOTH",
"614 188 OFFCURVE",
"616 174 OFFCURVE",
"616 162 CURVE",
"615 157 OFFCURVE",
"614 151 OFFCURVE",
"614 145 CURVE SMOOTH",
"614 135 OFFCURVE",
"619 125 OFFCURVE",
"612 118 CURVE",
"608 117 OFFCURVE",
"608 123 OFFCURVE",
"606 125 CURVE",
"602 128 OFFCURVE",
"597 130 OFFCURVE",
"593 132 CURVE",
"589 136 OFFCURVE",
"587 141 OFFCURVE",
"584 145 CURVE",
"574 156 OFFCURVE",
"561 166 OFFCURVE",
"552 177 CURVE",
"549 181 OFFCURVE",
"548 187 OFFCURVE",
"545 191 CURVE",
"543 192 OFFCURVE",
"540 192 OFFCURVE",
"538 194 CURVE",
"532 199 OFFCURVE",
"528 206 OFFCURVE",
"523 211 CURVE",
"515 218 OFFCURVE",
"506 224 OFFCURVE",
"502 233 CURVE",
"496 236 OFFCURVE",
"493 242 OFFCURVE",
"486 244 CURVE",
"483 251 OFFCURVE",
"478 255 OFFCURVE",
"474 260 CURVE",
"447 290 LINE"
);
}
);
width = 717;
}
);
unicode = 004E;
},
{
glyphname = O;
layers = (
{
layerId = "C5490108-C233-4ADF-8B6D-CFE8E3B23812";
paths = (
{
closed = 1;
nodes = (
"738 409 OFFCURVE",
"737 427 OFFCURVE",
"735 444 CURVE",
"730 451 OFFCURVE",
"728 460 OFFCURVE",
"725 469 CURVE SMOOTH",
"716 496 LINE",
"708 511 OFFCURVE",
"703 530 OFFCURVE",
"691 541 CURVE",
"688 550 OFFCURVE",
"683 557 OFFCURVE",
"678 563 CURVE",
"671 569 OFFCURVE",
"669 579 OFFCURVE",
"662 584 CURVE",
"652 598 OFFCURVE",
"638 608 OFFCURVE",
"628 622 CURVE",
"614 627 OFFCURVE",
"602 635 OFFCURVE",
"593 645 CURVE",
"578 646 OFFCURVE",
"573 656 OFFCURVE",
"561 660 CURVE",
"555 661 OFFCURVE",
"552 666 OFFCURVE",
"544 666 CURVE",
"536 677 OFFCURVE",
"519 679 OFFCURVE",
"505 683 CURVE",
"497 686 OFFCURVE",
"494 691 OFFCURVE",
"487 694 CURVE",
"477 693 OFFCURVE",
"472 697 OFFCURVE",
"465 699 CURVE",
"456 699 OFFCURVE",
"450 702 OFFCURVE",
"442 704 CURVE",
"413 706 OFFCURVE",
"388 708 OFFCURVE",
"358 705 CURVE",
"340 699 OFFCURVE",
"321 701 OFFCURVE",
"304 696 CURVE",
"290 691 OFFCURVE",
"279 681 OFFCURVE",
"267 677 CURVE",
"251 677 LINE",
"228 663 OFFCURVE",
"205 650 OFFCURVE",
"181 638 CURVE",
"155 614 LINE",
"143 609 OFFCURVE",
"139 595 OFFCURVE",
"128 590 CURVE",
"124 582 OFFCURVE",
"117 576 OFFCURVE",
"112 568 CURVE SMOOTH",
"107 560 OFFCURVE",
"100 554 OFFCURVE",
"96 545 CURVE",
"85 530 OFFCURVE",
"78 511 OFFCURVE",
"66 496 CURVE",
"63 480 OFFCURVE",
"57 466 OFFCURVE",
"52 450 CURVE",
"48 434 OFFCURVE",
"47 416 OFFCURVE",
"43 398 CURVE",
"41 371 OFFCURVE",
"40 351 OFFCURVE",
"40 325 CURVE",
"44 309 OFFCURVE",
"45 285 OFFCURVE",
"51 270 CURVE SMOOTH",
"55 259 OFFCURVE",
"56 248 OFFCURVE",
"58 239 CURVE",
"60 235 OFFCURVE",
"60 230 OFFCURVE",
"62 226 CURVE",
"65 218 OFFCURVE",
"72 213 OFFCURVE",
"74 206 CURVE",
"77 183 OFFCURVE",
"93 175 OFFCURVE",
"96 154 CURVE",
"103 146 OFFCURVE",
"111 140 OFFCURVE",
"115 130 CURVE",
"123 123 OFFCURVE",
"130 116 OFFCURVE",
"136 106 CURVE",
"151 101 OFFCURVE",
"157 86 OFFCURVE",
"169 76 CURVE",
"181 69 OFFCURVE",
"194 63 OFFCURVE",
"202 51 CURVE",
"212 51 OFFCURVE",
"215 45 OFFCURVE",
"221 42 CURVE",
"226 37 OFFCURVE",
"233 34 OFFCURVE",
"237 27 CURVE",
"250 27 OFFCURVE",
"256 20 OFFCURVE",
"267 16 CURVE",
"277 14 OFFCURVE",
"287 9 OFFCURVE",
"297 5 CURVE",
"314 5 OFFCURVE",
"329 1 OFFCURVE",
"344 -2 CURVE",
"386 -1 OFFCURVE",
"434 -1 OFFCURVE",
"476 2 CURVE",
"487 9 OFFCURVE",
"501 13 OFFCURVE",
"516 16 CURVE",
"528 26 OFFCURVE",
"546 30 OFFCURVE",
"564 34 CURVE",
"570 40 OFFCURVE",
"577 45 OFFCURVE",
"585 50 CURVE",
"593 54 OFFCURVE",
"597 61 OFFCURVE",
"604 67 CURVE",
"619 70 OFFCURVE",
"623 85 OFFCURVE",
"637 89 CURVE",
"640 98 OFFCURVE",
"649 104 OFFCURVE",
"654 111 CURVE",
"656 113 OFFCURVE",
"656 116 OFFCURVE",
"658 117 CURVE",
"663 123 OFFCURVE",
"668 127 OFFCURVE",
"673 132 CURVE",
"677 142 OFFCURVE",
"685 148 OFFCURVE",
"689 158 CURVE",
"693 162 OFFCURVE",
"694 168 OFFCURVE",
"697 173 CURVE",
"702 175 OFFCURVE",
"702 182 OFFCURVE",
"706 185 CURVE",
"713 206 OFFCURVE",
"722 224 OFFCURVE",
"732 242 CURVE",
"734 261 OFFCURVE",
"741 274 OFFCURVE",
"744 292 CURVE",
"745 320 OFFCURVE",
"743 350 OFFCURVE",
"743 373 CURVE SMOOTH",
"743 395 LINE"
);
},
{
closed = 1;
nodes = (
"277 672 OFFCURVE",
"279 667 CURVE",
"279 666 OFFCURVE",
"278 666 OFFCURVE",
"278 664 CURVE",
"274 665 OFFCURVE"
);
},
{
closed = 1;
nodes = (
"696 312 OFFCURVE",
"698 285 OFFCURVE",
"691 262 CURVE",
"686 248 OFFCURVE",
"677 237 OFFCURVE",
"675 223 CURVE",
"664 214 OFFCURVE",
"661 198 OFFCURVE",
"653 187 CURVE",
"651 181 OFFCURVE",
"646 178 OFFCURVE",
"643 174 CURVE",
"634 163 OFFCURVE",
"624 150 OFFCURVE",
"615 136 CURVE",
"606 131 OFFCURVE",
"601 123 OFFCURVE",
"593 117 CURVE",
"585 112 OFFCURVE",
"578 106 OFFCURVE",
"572 98 CURVE",
"557 94 OFFCURVE",
"547 82 OFFCURVE",
"533 76 CURVE",
"510 70 OFFCURVE",
"493 58 OFFCURVE",
"467 54 CURVE",
"444 47 OFFCURVE",
"413 49 OFFCURVE",
"388 45 CURVE",
"376 51 OFFCURVE",
"358 51 OFFCURVE",
"342 53 CURVE SMOOTH",
"331 54 OFFCURVE",
"316 60 OFFCURVE",
"298 59 CURVE",
"283 65 OFFCURVE",
"269 72 OFFCURVE",
"252 76 CURVE",
"239 87 OFFCURVE",
"225 97 OFFCURVE",
"208 105 CURVE",
"202 110 OFFCURVE",
"198 117 OFFCURVE",
"191 122 CURVE",
"183 126 OFFCURVE",
"178 132 OFFCURVE",
"174 139 CURVE",
"160 149 OFFCURVE",
"153 164 OFFCURVE",
"140 174 CURVE",
"136 190 OFFCURVE",
"127 201 OFFCURVE",
"118 213 CURVE",
"117 226 OFFCURVE",
"111 233 OFFCURVE",
"109 245 CURVE",
"105 248 OFFCURVE",
"103 253 OFFCURVE",
"104 261 CURVE",
"101 264 OFFCURVE",
"99 270 OFFCURVE",
"96 273 CURVE",
"96 288 OFFCURVE",
"92 299 OFFCURVE",
"88 311 CURVE",
"89 320 OFFCURVE",
"89 328 OFFCURVE",
"88 336 CURVE",
"88 344 OFFCURVE",
"85 352 OFFCURVE",
"85 360 CURVE SMOOTH",
"85 367 OFFCURVE",
"87 375 OFFCURVE",
"88 382 CURVE",
"89 385 OFFCURVE",
"91 388 OFFCURVE",
"92 392 CURVE",
"92 395 OFFCURVE",
"91 399 OFFCURVE",
"92 403 CURVE",
"94 416 OFFCURVE",
"98 429 OFFCURVE",
"104 439 CURVE",
"104 447 OFFCURVE",
"108 451 OFFCURVE",
"107 459 CURVE",
"114 470 OFFCURVE",
"116 481 OFFCURVE",
"122 491 CURVE",
"125 497 LINE SMOOTH",
"127 501 OFFCURVE",
"130 503 OFFCURVE",
"133 507 CURVE",
"139 519 LINE",
"145 529 OFFCURVE",
"156 538 OFFCURVE",
"161 551 CURVE",
"167 556 OFFCURVE",
"175 561 OFFCURVE",
"180 568 CURVE",
"187 573 OFFCURVE",
"191 581 OFFCURVE",
"197 587 CURVE",
"206 592 OFFCURVE",
"216 597 OFFCURVE",
"222 604 CURVE",
"234 607 OFFCURVE",
"239 616 OFFCURVE",
"246 623 CURVE",
"257 625 OFFCURVE",
"264 630 OFFCURVE",
"271 636 CURVE",
"291 637 OFFCURVE",
"303 644 OFFCURVE",
"315 652 CURVE",
"320 653 OFFCURVE",
"326 652 OFFCURVE",
"331 653 CURVE",
"335 654 OFFCURVE",
"340 656 OFFCURVE",
"344 656 CURVE",
"355 657 OFFCURVE",
"368 656 OFFCURVE",
"380 656 CURVE",
"391 657 OFFCURVE",
"402 660 OFFCURVE",
"412 660 CURVE",
"430 659 OFFCURVE",
"446 650 OFFCURVE",
"464 652 CURVE",
"479 643 OFFCURVE",
"496 635 OFFCURVE",
"514 630 CURVE",
"523 627 OFFCURVE",
"529 621 OFFCURVE",
"536 617 CURVE",
"544 614 OFFCURVE",
"552 611 OFFCURVE",
"558 606 CURVE",
"570 601 OFFCURVE",
"573 587 OFFCURVE",
"587 584 CURVE",
"595 576 OFFCURVE",
"605 569 OFFCURVE",
"615 562 CURVE",
"623 549 OFFCURVE",
"635 540 OFFCURVE",
"642 526 CURVE",
"654 517 OFFCURVE",
"659 501 OFFCURVE",
"669 491 CURVE",
"672 481 OFFCURVE",
"676 472 OFFCURVE",
"681 464 CURVE",
"689 434 OFFCURVE",
"699 406 OFFCURVE",
"702 371 CURVE",
"703 371 OFFCURVE",
"703 371 OFFCURVE",
"703 370 CURVE SMOOTH",
"703 336 LINE"
);
}
);
width = 787;
}
);
unicode = 004F;
},
{
glyphname = P;
layers = (
{
layerId = "C5490108-C233-4ADF-8B6D-CFE8E3B23812";
paths = (
{
closed = 1;
nodes = (
"141 346 OFFCURVE",
"155 347 CURVE",
"164 348 OFFCURVE",
"171 351 OFFCURVE",
"181 351 CURVE",
"199 352 OFFCURVE",
"214 347 OFFCURVE",
"229 348 CURVE SMOOTH",
"244 349 OFFCURVE",
"257 355 OFFCURVE",
"273 354 CURVE",
"283 361 OFFCURVE",
"297 364 OFFCURVE",
"309 370 CURVE",
"318 376 OFFCURVE",
"326 383 OFFCURVE",
"334 390 CURVE",
"339 394 OFFCURVE",
"341 399 OFFCURVE",
"345 403 CURVE",
"351 406 OFFCURVE",
"353 411 OFFCURVE",
"358 414 CURVE",
"362 426 OFFCURVE",
"371 436 OFFCURVE",
"377 445 CURVE",
"384 478 OFFCURVE",
"395 508 OFFCURVE",
"392 546 CURVE",
"386 561 OFFCURVE",
"382 577 OFFCURVE",
"379 595 CURVE",
"372 606 OFFCURVE",
"367 618 OFFCURVE",
"360 628 CURVE",
"353 639 OFFCURVE",
"344 648 OFFCURVE",
"336 658 CURVE",
"334 658 OFFCURVE",
"332 660 OFFCURVE",
"332 661 CURVE",
"316 669 OFFCURVE",
"302 679 OFFCURVE",
"284 685 CURVE",
"268 693 OFFCURVE",
"247 697 OFFCURVE",
"229 704 CURVE",
"191 698 OFFCURVE",
"155 700 OFFCURVE",
"114 698 CURVE",
"102 700 OFFCURVE",
"83 702 OFFCURVE",
"72 700 CURVE",
"62 692 OFFCURVE",
"64 674 OFFCURVE",
"61 660 CURVE",
"62 654 OFFCURVE",
"66 651 OFFCURVE",
"65 643 CURVE",
"63 596 OFFCURVE",
"67 550 OFFCURVE",
"67 504 CURVE SMOOTH",
"67 453 OFFCURVE",
"64 406 OFFCURVE",
"65 354 CURVE SMOOTH",
"65 337 OFFCURVE",
"68 319 OFFCURVE",
"68 301 CURVE SMOOTH",
"68 275 OFFCURVE",
"68 249 OFFCURVE",
"65 224 CURVE",
"69 164 OFFCURVE",
"64 91 OFFCURVE",
"61 28 CURVE",
"69 19 OFFCURVE",
"86 13 OFFCURVE",
"102 17 CURVE",
"105 21 OFFCURVE",
"108 24 OFFCURVE",
"112 27 CURVE",
"111 47 OFFCURVE",
"111 69 OFFCURVE",
"107 87 CURVE",
"109 95 OFFCURVE",
"110 114 OFFCURVE",
"107 123 CURVE",
"111 138 OFFCURVE",
"111 156 OFFCURVE",
"111 173 CURVE",
"110 183 OFFCURVE",
"111 193 OFFCURVE",
"111 203 CURVE",
"110 212 OFFCURVE",
"107 221 OFFCURVE",
"107 230 CURVE SMOOTH",
"107 238 OFFCURVE",
"109 246 OFFCURVE",
"109 254 CURVE SMOOTH",
"109 270 OFFCURVE",
"104 286 OFFCURVE",
"104 299 CURVE SMOOTH",
"104 307 OFFCURVE",
"106 316 OFFCURVE",
"107 323 CURVE",
"109 330 OFFCURVE",
"107 339 OFFCURVE",
"114 343 CURVE",
"123 349 OFFCURVE"
);
},
{
closed = 1;
nodes = (
"311 433 OFFCURVE",
"298 426 OFFCURVE",
"292 414 CURVE",
"282 411 OFFCURVE",
"275 404 OFFCURVE",
"267 400 CURVE",
"256 398 OFFCURVE",
"247 395 OFFCURVE",
"238 394 CURVE SMOOTH",
"208 391 OFFCURVE",
"164 387 OFFCURVE",
"134 389 CURVE",
"127 390 OFFCURVE",
"120 388 OFFCURVE",
"115 392 CURVE",
"111 398 OFFCURVE",
"112 410 OFFCURVE",
"109 418 CURVE",
"115 435 OFFCURVE",
"108 460 OFFCURVE",
"114 479 CURVE",
"115 485 OFFCURVE",
"110 487 OFFCURVE",
"111 493 CURVE",
"120 527 OFFCURVE",
"105 570 OFFCURVE",
"114 605 CURVE",
"112 623 OFFCURVE",
"108 643 OFFCURVE",
"116 656 CURVE",
"130 660 OFFCURVE",
"146 655 OFFCURVE",
"160 656 CURVE",
"166 656 OFFCURVE",
"171 657 OFFCURVE",
"177 657 CURVE SMOOTH",
"187 657 OFFCURVE",
"197 654 OFFCURVE",
"207 654 CURVE SMOOTH",
"217 654 OFFCURVE",
"227 657 OFFCURVE",
"237 654 CURVE SMOOTH",
"240 653 OFFCURVE",
"242 650 OFFCURVE",
"245 649 CURVE",
"253 645 OFFCURVE",
"261 646 OFFCURVE",
"269 644 CURVE SMOOTH",
"276 642 OFFCURVE",
"281 638 OFFCURVE",
"288 636 CURVE",
"302 621 OFFCURVE",
"319 607 OFFCURVE",
"330 589 CURVE",
"332 582 OFFCURVE",
"333 572 OFFCURVE",
"336 567 CURVE",
"339 560 OFFCURVE",
"340 552 OFFCURVE",
"343 546 CURVE",
"343 532 OFFCURVE",
"342 518 OFFCURVE",
"343 507 CURVE",
"343 505 OFFCURVE",
"344 504 OFFCURVE",
"344 502 CURVE",
"343 490 OFFCURVE",
"335 481 OFFCURVE",
"336 469 CURVE",
"332 465 OFFCURVE",
"329 458 OFFCURVE",
"329 450 CURVE",
"319 441 LINE"
);
}
);
width = 422;
}
);
unicode = 0050;
},
{
glyphname = Q;
layers = (
{
layerId = "C5490108-C233-4ADF-8B6D-CFE8E3B23812";
paths = (
{
closed = 1;
nodes = (
"156 637 OFFCURVE",
"156 634 OFFCURVE",
"154 633 CURVE",
"152 631 OFFCURVE",
"148 631 OFFCURVE",
"146 629 CURVE",
"141 626 OFFCURVE",
"139 621 OFFCURVE",
"133 620 CURVE",
"126 605 OFFCURVE",
"115 598 OFFCURVE",
"103 587 CURVE",
"96 574 OFFCURVE",
"87 560 OFFCURVE",
"78 548 CURVE",
"69 535 OFFCURVE",
"62 520 OFFCURVE",
"53 507 CURVE",
"54 501 OFFCURVE",
"50 499 OFFCURVE",
"51 493 CURVE",
"42 481 OFFCURVE",
"41 460 OFFCURVE",
"34 445 CURVE",
"32 417 OFFCURVE",
"23 406 OFFCURVE",
"26 378 CURVE",
"18 362 OFFCURVE",
"21 346 OFFCURVE",
"21 329 CURVE SMOOTH",
"21 315 OFFCURVE",
"19 304 OFFCURVE",
"22 293 CURVE",
"24 287 OFFCURVE",
"29 283 OFFCURVE",
"30 277 CURVE",
"33 268 OFFCURVE",
"32 260 OFFCURVE",
"33 252 CURVE",
"39 242 OFFCURVE",
"43 231 OFFCURVE",
"46 222 CURVE",
"49 215 LINE SMOOTH",
"58 194 OFFCURVE",
"69 175 OFFCURVE",
"78 154 CURVE",
"86 144 OFFCURVE",
"92 132 OFFCURVE",
"99 121 CURVE",
"104 118 OFFCURVE",
"109 115 OFFCURVE",
"113 111 CURVE",
"124 94 LINE",
"132 90 OFFCURVE",
"137 81 OFFCURVE",
"142 78 CURVE",
"144 76 OFFCURVE",
"147 76 OFFCURVE",
"150 75 CURVE",
"158 69 OFFCURVE",
"166 61 OFFCURVE",
"173 54 CURVE",
"186 54 OFFCURVE",
"193 46 OFFCURVE",
"202 42 CURVE",
"214 41 OFFCURVE",
"221 35 OFFCURVE",
"230 32 CURVE",
"239 28 OFFCURVE",
"249 26 OFFCURVE",
"255 19 CURVE",
"273 15 OFFCURVE",
"289 9 OFFCURVE",
"306 4 CURVE",
"324 3 OFFCURVE",
"341 0 OFFCURVE",
"358 -3 CURVE",
"374 0 OFFCURVE",
"389 -3 OFFCURVE",
"405 -5 CURVE",
"416 -4 OFFCURVE",
"429 0 OFFCURVE",
"437 2 CURVE",
"439 2 OFFCURVE",
"441 1 OFFCURVE",
"443 2 CURVE",
"443 2 OFFCURVE",
"447 5 OFFCURVE",
"448 5 CURVE",
"470 10 LINE",
"477 12 OFFCURVE",
"484 14 OFFCURVE",
"492 14 CURVE",
"511 27 OFFCURVE",
"534 35 OFFCURVE",
"552 49 CURVE",
"558 52 OFFCURVE",
"565 54 OFFCURVE",
"572 57 CURVE",
"580 59 OFFCURVE",
"579 70 OFFCURVE",
"591 68 CURVE",
"597 69 OFFCURVE",
"596 62 OFFCURVE",
"599 58 CURVE",
"607 49 OFFCURVE",
"620 44 OFFCURVE",
"624 32 CURVE",
"637 27 OFFCURVE",
"643 15 OFFCURVE",
"657 11 CURVE",
"663 9 OFFCURVE",
"673 10 OFFCURVE",
"681 10 CURVE",
"690 13 OFFCURVE",
"706 11 OFFCURVE",
"708 23 CURVE",
"712 29 OFFCURVE",
"700 34 OFFCURVE",
"698 39 CURVE",
"693 43 OFFCURVE",
"688 50 OFFCURVE",
"683 54 CURVE",
"662 76 LINE",
"654 84 LINE SMOOTH",
"653 85 OFFCURVE",
"651 84 OFFCURVE",
"649 85 CURVE",
"649 86 OFFCURVE",
"648 88 OFFCURVE",
"648 88 CURVE",
"645 92 OFFCURVE",
"644 96 OFFCURVE",
"640 98 CURVE",
"636 104 OFFCURVE",
"629 106 OFFCURVE",
"627 115 CURVE",
"632 122 OFFCURVE",
"639 125 OFFCURVE",
"646 129 CURVE",
"652 141 OFFCURVE",
"665 148 OFFCURVE",
"669 161 CURVE",
"678 167 OFFCURVE",
"684 176 OFFCURVE",
"689 186 CURVE SMOOTH",
"692 192 OFFCURVE",
"689 202 OFFCURVE",
"691 205 CURVE",
"698 217 OFFCURVE",
"708 228 OFFCURVE",
"714 241 CURVE",
"718 260 OFFCURVE",
"724 277 OFFCURVE",
"724 301 CURVE",
"729 314 OFFCURVE",
"729 331 OFFCURVE",
"729 350 CURVE",
"725 359 OFFCURVE",
"726 374 OFFCURVE",
"722 384 CURVE",
"724 411 OFFCURVE",
"716 425 OFFCURVE",
"716 452 CURVE",
"713 458 OFFCURVE",
"709 464 OFFCURVE",
"709 473 CURVE",
"707 481 OFFCURVE",
"701 485 OFFCURVE",
"702 496 CURVE",
"694 508 OFFCURVE",
"687 523 OFFCURVE",
"683 539 CURVE",
"679 545 OFFCURVE",
"673 548 OFFCURVE",
"669 553 CURVE",
"668 569 OFFCURVE",
"653 572 OFFCURVE",
"650 587 CURVE",
"646 591 OFFCURVE",
"639 591 OFFCURVE",
"636 596 CURVE",
"633 600 OFFCURVE",
"632 607 OFFCURVE",
"630 612 CURVE",
"616 621 OFFCURVE",
"608 636 OFFCURVE",
"589 640 CURVE",
"583 651 OFFCURVE",
"574 655 OFFCURVE",
"564 661 CURVE",
"559 663 OFFCURVE",
"555 667 OFFCURVE",
"549 667 CURVE",
"546 670 OFFCURVE",
"544 675 OFFCURVE",
"541 680 CURVE",
"532 680 OFFCURVE",
"525 684 OFFCURVE",
"519 689 CURVE",
"494 687 OFFCURVE",
"482 699 OFFCURVE",
"460 700 CURVE",
"454 702 OFFCURVE",
"451 706 OFFCURVE",
"444 706 CURVE",
"432 707 OFFCURVE",
"421 708 OFFCURVE",
"406 708 CURVE",
"401 710 OFFCURVE",
"398 714 OFFCURVE",
"397 716 CURVE",
"385 712 OFFCURVE",
"371 713 OFFCURVE",
"365 719 CURVE",
"357 714 OFFCURVE",
"348 713 OFFCURVE",
"340 710 CURVE",
"322 710 OFFCURVE",
"307 706 OFFCURVE",
"292 702 CURVE",
"274 702 OFFCURVE",
"263 693 OFFCURVE",
"247 691 CURVE",
"242 685 OFFCURVE",
"235 686 OFFCURVE",
"229 683 CURVE",
"211 675 OFFCURVE",
"196 663 OFFCURVE",
"177 656 CURVE",
"158 637 LINE"
);
},
{
closed = 1;
nodes = (
"78 280 OFFCURVE",
"78 295 OFFCURVE",
"73 305 CURVE",
"74 317 OFFCURVE",
"72 325 OFFCURVE",
"68 332 CURVE",
"70 342 OFFCURVE",
"67 350 OFFCURVE",
"67 359 CURVE SMOOTH",
"67 360 OFFCURVE",
"68 362 OFFCURVE",
"68 365 CURVE SMOOTH",
"68 373 OFFCURVE",
"67 385 OFFCURVE",
"70 395 CURVE",
"70 397 OFFCURVE",
"73 399 OFFCURVE",
"73 400 CURVE SMOOTH",
"73 402 OFFCURVE",
"72 404 OFFCURVE",
"73 406 CURVE",
"79 428 LINE",
"85 443 OFFCURVE",
"92 457 OFFCURVE",
"94 472 CURVE",
"102 481 OFFCURVE",
"106 493 OFFCURVE",
"110 505 CURVE",
"119 515 OFFCURVE",
"128 527 OFFCURVE",
"135 541 CURVE",
"149 554 OFFCURVE",
"160 569 OFFCURVE",
"176 581 CURVE",
"182 588 OFFCURVE",
"193 591 OFFCURVE",
"198 600 CURVE",
"206 604 OFFCURVE",
"215 609 OFFCURVE",
"220 617 CURVE",
"236 621 OFFCURVE",
"247 629 OFFCURVE",
"259 636 CURVE",
"265 635 OFFCURVE",
"267 639 OFFCURVE",
"274 637 CURVE",
"280 640 OFFCURVE",
"283 646 OFFCURVE",
"291 647 CURVE",
"295 648 OFFCURVE",
"301 649 OFFCURVE",
"307 648 CURVE",
"313 651 OFFCURVE",
"320 654 OFFCURVE",
"327 656 CURVE",
"341 655 OFFCURVE",
"352 659 OFFCURVE",
"363 656 CURVE",
"376 659 LINE",
"416 656 OFFCURVE",
"454 644 OFFCURVE",
"491 635 CURVE",
"503 623 OFFCURVE",
"525 620 OFFCURVE",
"537 607 CURVE",
"549 604 OFFCURVE",
"558 597 OFFCURVE",
"567 590 CURVE",
"574 582 OFFCURVE",
"582 575 OFFCURVE",
"592 569 CURVE",
"600 553 OFFCURVE",
"615 543 OFFCURVE",
"623 527 CURVE",
"634 518 OFFCURVE",
"637 503 OFFCURVE",
"646 494 CURVE",
"648 490 OFFCURVE",
"647 484 OFFCURVE",
"652 482 CURVE",
"652 467 OFFCURVE",
"659 458 OFFCURVE",
"664 448 CURVE SMOOTH",
"666 444 OFFCURVE",
"666 439 OFFCURVE",
"666 434 CURVE",
"671 422 OFFCURVE",
"671 403 OFFCURVE",
"675 389 CURVE",
"675 376 OFFCURVE",
"676 363 OFFCURVE",
"678 352 CURVE",
"674 326 OFFCURVE",
"680 291 OFFCURVE",
"667 274 CURVE",
"667 269 OFFCURVE",
"668 263 OFFCURVE",
"666 260 CURVE",
"656 240 OFFCURVE",
"649 218 OFFCURVE",
"637 200 CURVE",
"626 182 OFFCURVE",
"619 161 OFFCURVE",
"599 151 CURVE",
"576 156 OFFCURVE",
"567 175 OFFCURVE",
"551 186 CURVE",
"548 190 OFFCURVE",
"547 196 OFFCURVE",
"544 200 CURVE",
"539 204 OFFCURVE",
"533 207 OFFCURVE",
"527 210 CURVE",
"520 218 OFFCURVE",
"513 228 OFFCURVE",
"503 233 CURVE",
"497 243 OFFCURVE",
"491 251 OFFCURVE",
"481 257 CURVE",
"479 265 OFFCURVE",
"472 268 OFFCURVE",
"470 276 CURVE",
"461 281 OFFCURVE",
"455 288 OFFCURVE",
"448 295 CURVE",
"435 296 OFFCURVE",
"427 292 OFFCURVE",
"420 298 CURVE",
"413 297 OFFCURVE",
"410 293 OFFCURVE",
"404 292 CURVE",
"395 295 OFFCURVE",
"391 292 OFFCURVE",
"388 287 CURVE",
"388 270 OFFCURVE",
"404 266 OFFCURVE",
"405 251 CURVE",
"411 250 OFFCURVE",
"415 248 OFFCURVE",
"420 246 CURVE",
"423 237 OFFCURVE",
"430 231 OFFCURVE",
"437 226 CURVE",
"444 220 OFFCURVE",
"448 212 OFFCURVE",
"458 210 CURVE",
"460 206 OFFCURVE",
"464 202 OFFCURVE",
"465 197 CURVE",
"474 194 OFFCURVE",
"476 185 OFFCURVE",
"486 183 CURVE",
"489 175 OFFCURVE",
"496 170 OFFCURVE",
"502 164 CURVE",
"508 165 OFFCURVE",
"506 157 OFFCURVE",
"511 156 CURVE",
"515 155 OFFCURVE",
"516 150 OFFCURVE",
"521 148 CURVE",
"526 142 OFFCURVE",
"531 138 OFFCURVE",
"536 131 CURVE",
"542 126 OFFCURVE",
"551 124 OFFCURVE",
"553 115 CURVE",
"549 98 OFFCURVE",
"533 94 OFFCURVE",
"519 87 CURVE",
"506 79 OFFCURVE",
"489 74 OFFCURVE",
"478 65 CURVE",
"464 65 OFFCURVE",
"457 58 OFFCURVE",
"446 55 CURVE",
"417 54 OFFCURVE",
"385 58 OFFCURVE",
"359 53 CURVE",
"351 55 OFFCURVE",
"341 54 OFFCURVE",
"334 57 CURVE",
"314 56 OFFCURVE",
"297 59 OFFCURVE",
"281 62 CURVE",
"269 71 OFFCURVE",
"253 76 OFFCURVE",
"236 79 CURVE",
"225 90 OFFCURVE",
"210 97 OFFCURVE",
"199 108 CURVE",
"192 109 OFFCURVE",
"186 111 OFFCURVE",
"181 114 CURVE",
"173 115 OFFCURVE",
"174 124 OFFCURVE",
"169 128 CURVE",
"162 131 OFFCURVE",
"157 135 OFFCURVE",
"151 138 CURVE",
"147 145 OFFCURVE",
"142 154 OFFCURVE",
"134 160 CURVE",
"133 172 OFFCURVE",
"124 177 OFFCURVE",
"119 185 CURVE",
"118 192 OFFCURVE",
"115 200 OFFCURVE",
"112 206 CURVE",
"111 213 OFFCURVE",
"104 215 OFFCURVE",
"101 220 CURVE",
"98 231 OFFCURVE",
"94 240 OFFCURVE",
"92 252 CURVE",
"82 269 LINE"
);
}
);
width = 754;
}
);
unicode = 0051;
},
{
glyphname = R;
layers = (
{
layerId = "C5490108-C233-4ADF-8B6D-CFE8E3B23812";
paths = (
{
closed = 1;
nodes = (
"379 73 OFFCURVE",
"372 81 OFFCURVE",
"364 89 CURVE",
"363 96 OFFCURVE",
"357 98 OFFCURVE",
"358 106 CURVE",
"349 112 OFFCURVE",
"344 121 OFFCURVE",
"337 129 CURVE",
"334 143 OFFCURVE",
"325 153 OFFCURVE",
"315 163 CURVE",
"309 177 OFFCURVE",
"298 186 OFFCURVE",
"292 199 CURVE",
"280 217 OFFCURVE",
"265 232 OFFCURVE",
"256 253 CURVE",
"245 262 OFFCURVE",
"238 274 OFFCURVE",
"233 289 CURVE",
"230 294 OFFCURVE",
"224 297 OFFCURVE",
"224 305 CURVE",
"219 308 OFFCURVE",
"216 316 OFFCURVE",
"216 324 CURVE",
"218 329 OFFCURVE",
"223 333 OFFCURVE",
"227 338 CURVE",
"243 341 OFFCURVE",
"260 342 OFFCURVE",
"276 344 CURVE",
"286 350 OFFCURVE",
"296 356 OFFCURVE",
"308 360 CURVE",
"318 371 OFFCURVE",
"331 380 OFFCURVE",
"342 390 CURVE",
"345 398 OFFCURVE",
"353 400 OFFCURVE",
"355 409 CURVE",
"361 414 OFFCURVE",
"364 421 OFFCURVE",
"370 426 CURVE",
"377 442 OFFCURVE",
"383 457 OFFCURVE",
"388 474 CURVE",
"390 496 OFFCURVE",
"389 511 OFFCURVE",
"388 534 CURVE",
"384 545 OFFCURVE",
"382 558 OFFCURVE",
"380 571 CURVE",
"375 583 OFFCURVE",
"369 595 OFFCURVE",
"365 609 CURVE",
"356 615 OFFCURVE",
"353 626 OFFCURVE",
"346 633 CURVE",
"339 641 OFFCURVE",
"330 647 OFFCURVE",
"324 655 CURVE",
"309 662 OFFCURVE",
"296 670 OFFCURVE",
"284 680 CURVE",
"275 682 OFFCURVE",
"268 686 OFFCURVE",
"261 690 CURVE",
"227 690 OFFCURVE",
"191 697 OFFCURVE",
"160 692 CURVE",
"153 692 OFFCURVE",
"148 695 OFFCURVE",
"141 695 CURVE",
"123 693 OFFCURVE",
"95 699 OFFCURVE",
"81 689 CURVE",
"68 667 OFFCURVE",
"79 616 OFFCURVE",
"75 592 CURVE",
"74 589 OFFCURVE",
"73 587 OFFCURVE",
"73 583 CURVE SMOOTH",
"73 565 OFFCURVE",
"76 550 OFFCURVE",
"70 536 CURVE",
"72 526 OFFCURVE",
"73 521 OFFCURVE",
"72 512 CURVE",
"75 501 OFFCURVE",
"77 487 OFFCURVE",
"78 474 CURVE SMOOTH",
"79 460 OFFCURVE",
"80 445 OFFCURVE",
"79 432 CURVE SMOOTH",
"77 411 OFFCURVE",
"69 392 OFFCURVE",
"70 373 CURVE SMOOTH",
"71 357 OFFCURVE",
"74 341 OFFCURVE",
"73 321 CURVE",
"77 301 LINE",
"75 293 OFFCURVE",
"74 282 OFFCURVE",
"74 271 CURVE SMOOTH",
"74 263 OFFCURVE",
"78 260 OFFCURVE",
"77 252 CURVE",
"79 231 OFFCURVE",
"73 211 OFFCURVE",
"77 192 CURVE",
"73 174 OFFCURVE",
"73 146 OFFCURVE",
"74 126 CURVE",
"68 105 OFFCURVE",
"72 83 OFFCURVE",
"72 61 CURVE SMOOTH",
"72 52 OFFCURVE",
"68 46 OFFCURVE",
"69 36 CURVE",
"74 26 OFFCURVE",
"84 14 OFFCURVE",
"97 14 CURVE SMOOTH",
"106 14 OFFCURVE",
"111 20 OFFCURVE",
"118 23 CURVE",
"128 39 OFFCURVE",
"116 65 OFFCURVE",
"121 85 CURVE",
"118 92 OFFCURVE",
"116 99 OFFCURVE",
"115 108 CURVE SMOOTH",
"114 118 OFFCURVE",
"119 120 OFFCURVE",
"118 129 CURVE",
"117 154 OFFCURVE",
"122 184 OFFCURVE",
"118 205 CURVE SMOOTH",
"115 224 OFFCURVE",
"119 244 OFFCURVE",
"117 266 CURVE",
"117 273 OFFCURVE",
"121 277 OFFCURVE",
"122 283 CURVE",
"121 296 OFFCURVE",
"122 306 OFFCURVE",
"125 315 CURVE",
"127 325 OFFCURVE",
"128 335 OFFCURVE",
"139 335 CURVE",
"144 333 OFFCURVE",
"147 328 OFFCURVE",
"150 323 CURVE",
"155 320 OFFCURVE",
"157 314 OFFCURVE",
"161 310 CURVE",
"166 299 OFFCURVE",
"177 294 OFFCURVE",
"178 279 CURVE",
"191 273 OFFCURVE",
"193 257 OFFCURVE",
"202 247 CURVE",
"208 244 OFFCURVE",
"208 236 OFFCURVE",
"213 231 CURVE",
"219 226 OFFCURVE",
"221 218 OFFCURVE",
"226 214 CURVE",
"229 207 OFFCURVE",
"234 199 OFFCURVE",
"237 195 CURVE",
"242 186 OFFCURVE",
"245 180 OFFCURVE",
"251 174 CURVE",
"256 171 LINE",
"257 170 OFFCURVE",
"257 167 OFFCURVE",
"259 165 CURVE",
"264 159 OFFCURVE",
"269 152 OFFCURVE",
"273 144 CURVE SMOOTH",
"280 131 OFFCURVE",
"290 118 OFFCURVE",
"299 105 CURVE",
"305 100 OFFCURVE",
"307 91 OFFCURVE",
"312 84 CURVE",
"319 80 OFFCURVE",
"320 69 OFFCURVE",
"328 65 CURVE",
"330 56 OFFCURVE",
"337 52 OFFCURVE",
"342 45 CURVE",
"346 38 OFFCURVE",
"351 31 OFFCURVE",
"356 24 CURVE",
"365 23 OFFCURVE",
"374 11 OFFCURVE",
"386 12 CURVE",
"396 12 OFFCURVE",
"404 19 OFFCURVE",
"406 31 CURVE",
"406 33 OFFCURVE",
"404 33 OFFCURVE",
"405 36 CURVE",
"384 62 LINE"
);
},
{
closed = 1;
nodes = (
"131 383 OFFCURVE",
"125 387 CURVE",
"119 396 OFFCURVE",
"123 415 OFFCURVE",
"121 427 CURVE",
"124 437 OFFCURVE",
"125 448 OFFCURVE",
"128 457 CURVE",
"126 465 OFFCURVE",
"126 476 OFFCURVE",
"128 484 CURVE",
"121 503 OFFCURVE",
"129 523 OFFCURVE",
"128 542 CURVE",
"128 552 OFFCURVE",
"125 560 OFFCURVE",
"125 573 CURVE SMOOTH",
"125 576 OFFCURVE",
"123 582 OFFCURVE",
"124 583 CURVE",
"124 583 OFFCURVE",
"125 583 OFFCURVE",
"125 585 CURVE",
"124 593 OFFCURVE",
"121 601 OFFCURVE",
"120 608 CURVE",
"120 622 OFFCURVE",
"124 634 OFFCURVE",
"127 648 CURVE",
"134 652 OFFCURVE",
"146 651 OFFCURVE",
"155 649 CURVE",
"161 648 OFFCURVE",
"174 650 OFFCURVE",
"180 646 CURVE",
"197 650 OFFCURVE",
"208 643 OFFCURVE",
"226 644 CURVE",
"239 642 OFFCURVE",
"248 634 OFFCURVE",
"262 638 CURVE",
"277 628 OFFCURVE",
"292 622 OFFCURVE",
"303 609 CURVE",
"313 599 OFFCURVE",
"317 585 OFFCURVE",
"327 575 CURVE",
"329 561 OFFCURVE",
"331 552 OFFCURVE",
"332 540 CURVE",
"337 529 OFFCURVE",
"341 520 OFFCURVE",
"339 507 CURVE",
"338 493 OFFCURVE",
"327 482 OFFCURVE",
"327 471 CURVE",
"326 462 OFFCURVE",
"329 458 OFFCURVE",
"328 450 CURVE",
"325 439 OFFCURVE",
"317 431 OFFCURVE",
"308 423 CURVE",
"306 418 OFFCURVE",
"297 419 OFFCURVE",
"297 412 CURVE",
"292 409 OFFCURVE",
"290 404 OFFCURVE",
"285 401 CURVE",
"279 399 OFFCURVE",
"273 398 OFFCURVE",
"267 397 CURVE",
"261 394 OFFCURVE",
"256 390 OFFCURVE",
"248 390 CURVE",
"246 383 OFFCURVE",
"236 385 OFFCURVE",
"232 381 CURVE",
"201 384 OFFCURVE",
"170 374 OFFCURVE",
"145 386 CURVE",
"137 385 OFFCURVE"
);
}
);
width = 438;
}
);
unicode = 0052;
},
{
glyphname = S;
layers = (
{
layerId = "C5490108-C233-4ADF-8B6D-CFE8E3B23812";
paths = (
{
closed = 1;
nodes = (
"400 306 OFFCURVE",
"383 322 OFFCURVE",
"367 337 CURVE",
"339 348 OFFCURVE",
"328 374 OFFCURVE",
"292 374 CURVE",
"287 379 OFFCURVE",
"281 384 OFFCURVE",
"275 388 CURVE",
"253 394 OFFCURVE",
"236 405 OFFCURVE",
"212 409 CURVE",
"192 421 OFFCURVE",
"175 433 OFFCURVE",
"153 443 CURVE",
"140 458 OFFCURVE",
"123 467 OFFCURVE",
"113 484 CURVE",
"114 501 OFFCURVE",
"110 512 OFFCURVE",
"107 525 CURVE",
"106 535 OFFCURVE",
"108 548 OFFCURVE",
"105 555 CURVE",
"110 563 OFFCURVE",
"112 572 OFFCURVE",
"115 581 CURVE",
"120 586 OFFCURVE",
"125 594 OFFCURVE",
"127 603 CURVE",
"141 614 OFFCURVE",
"151 630 OFFCURVE",
"167 639 CURVE",
"179 645 OFFCURVE",
"195 652 OFFCURVE",
"212 656 CURVE SMOOTH",
"236 662 OFFCURVE",
"260 654 OFFCURVE",
"282 648 CURVE",
"295 640 OFFCURVE",
"307 631 OFFCURVE",
"321 623 CURVE",
"326 613 OFFCURVE",
"337 609 OFFCURVE",
"340 598 CURVE",
"350 593 OFFCURVE",
"352 580 OFFCURVE",
"364 575 CURVE",
"371 577 OFFCURVE",
"376 581 OFFCURVE",
"381 585 CURVE",
"384 591 OFFCURVE",
"392 592 OFFCURVE",
"391 602 CURVE",
"391 613 OFFCURVE",
"385 617 OFFCURVE",
"381 623 CURVE",
"378 630 OFFCURVE",
"374 636 OFFCURVE",
"370 643 CURVE",
"356 654 OFFCURVE",
"342 666 OFFCURVE",
"329 678 CURVE",
"319 683 OFFCURVE",
"308 688 OFFCURVE",
"301 696 CURVE",
"288 696 OFFCURVE",
"280 701 OFFCURVE",
"269 703 CURVE",
"256 704 OFFCURVE",
"243 705 OFFCURVE",
"231 707 CURVE",
"220 704 OFFCURVE",
"208 701 OFFCURVE",
"194 702 CURVE",
"186 697 OFFCURVE",
"175 696 OFFCURVE",
"165 692 CURVE",
"156 688 OFFCURVE",
"148 683 OFFCURVE",
"138 680 CURVE",
"129 673 OFFCURVE",
"123 665 OFFCURVE",
"112 661 CURVE",
"102 647 OFFCURVE",
"88 636 OFFCURVE",
"77 623 CURVE",
"68 603 OFFCURVE",
"62 581 OFFCURVE",
"55 559 CURVE",
"58 543 OFFCURVE",
"56 522 OFFCURVE",
"56 504 CURVE",
"58 499 OFFCURVE",
"60 495 OFFCURVE",
"60 490 CURVE",
"70 472 OFFCURVE",
"73 448 OFFCURVE",
"86 435 CURVE",
"89 426 OFFCURVE",
"100 424 OFFCURVE",
"103 415 CURVE",
"107 413 OFFCURVE",
"108 407 OFFCURVE",
"114 407 CURVE",
"117 403 OFFCURVE",
"120 399 OFFCURVE",
"125 398 CURVE",
"129 395 OFFCURVE",
"134 393 OFFCURVE",
"138 391 CURVE",
"143 389 OFFCURVE",
"146 386 OFFCURVE",
"151 383 CURVE",
"153 382 OFFCURVE",
"155 383 OFFCURVE",
"158 382 CURVE SMOOTH",
"161 381 OFFCURVE",
"163 378 OFFCURVE",
"165 377 CURVE",
"170 375 OFFCURVE",
"175 375 OFFCURVE",
"181 372 CURVE",
"185 371 OFFCURVE",
"189 368 OFFCURVE",
"193 366 CURVE",
"208 360 OFFCURVE",
"222 352 OFFCURVE",
"237 349 CURVE",
"248 342 OFFCURVE",
"261 337 OFFCURVE",
"275 333 CURVE",
"285 322 OFFCURVE",
"301 318 OFFCURVE",
"316 313 CURVE",
"325 305 OFFCURVE",
"334 298 OFFCURVE",
"344 292 CURVE",
"354 283 OFFCURVE",
"362 275 OFFCURVE",
"370 266 CURVE",
"376 253 OFFCURVE",
"386 242 OFFCURVE",
"390 227 CURVE",
"389 211 OFFCURVE",
"392 199 OFFCURVE",
"392 183 CURVE",
"388 171 OFFCURVE",
"385 158 OFFCURVE",
"379 148 CURVE",
"375 136 OFFCURVE",
"364 130 OFFCURVE",
"361 117 CURVE",
"355 112 OFFCURVE",
"348 106 OFFCURVE",
"344 101 CURVE",
"340 97 OFFCURVE",
"339 92 OFFCURVE",
"335 89 CURVE",
"324 86 OFFCURVE",
"318 79 OFFCURVE",
"311 73 CURVE",
"304 73 OFFCURVE",
"301 69 OFFCURVE",
"297 67 CURVE",
"284 65 OFFCURVE",
"276 60 OFFCURVE",
"267 56 CURVE",
"254 57 OFFCURVE",
"248 51 OFFCURVE",
"238 49 CURVE",
"229 51 OFFCURVE",
"217 51 OFFCURVE",
"207 49 CURVE",
"200 48 OFFCURVE",
"200 54 OFFCURVE",
"194 54 CURVE",
"188 55 OFFCURVE",
"187 51 OFFCURVE",
"180 52 CURVE",
"171 58 OFFCURVE",
"161 63 OFFCURVE",
"149 65 CURVE",
"141 72 OFFCURVE",
"135 80 OFFCURVE",
"123 82 CURVE",
"115 89 OFFCURVE",
"107 95 OFFCURVE",
"98 101 CURVE",
"94 110 OFFCURVE",
"88 117 OFFCURVE",
"82 123 CURVE",
"80 133 OFFCURVE",
"74 137 OFFCURVE",
"73 145 CURVE",
"70 154 OFFCURVE",
"66 163 OFFCURVE",
"58 166 CURVE",
"49 166 OFFCURVE",
"46 160 OFFCURVE",
"40 157 CURVE",
"37 151 OFFCURVE",
"30 149 OFFCURVE",
"29 141 CURVE SMOOTH",
"28 131 OFFCURVE",
"31 124 OFFCURVE",
"30 113 CURVE",
"37 105 OFFCURVE",
"43 98 OFFCURVE",
"46 88 CURVE",
"64 73 OFFCURVE",
"79 54 OFFCURVE",
"95 38 CURVE",
"112 31 OFFCURVE",
"128 23 OFFCURVE",
"142 13 CURVE",
"171 6 OFFCURVE",
"206 0 OFFCURVE",
"240 0 CURVE SMOOTH",
"245 0 OFFCURVE",
"255 3 OFFCURVE",
"257 4 CURVE",
"260 4 OFFCURVE",
"260 2 OFFCURVE",
"264 2 CURVE",
"273 3 OFFCURVE",
"281 7 OFFCURVE",
"289 7 CURVE",
"299 12 OFFCURVE",
"310 17 OFFCURVE",
"322 21 CURVE",
"324 26 OFFCURVE",
"333 26 OFFCURVE",
"336 30 CURVE",
"343 32 OFFCURVE",
"345 38 OFFCURVE",
"353 36 CURVE",
"364 50 OFFCURVE",
"375 63 OFFCURVE",
"390 73 CURVE",
"394 82 OFFCURVE",
"399 91 OFFCURVE",
"406 99 CURVE",
"411 108 OFFCURVE",
"413 120 OFFCURVE",
"421 126 CURVE",
"423 138 OFFCURVE",
"429 149 OFFCURVE",
"431 161 CURVE",
"434 173 OFFCURVE",
"436 189 OFFCURVE",
"436 202 CURVE",
"431 206 OFFCURVE",
"434 219 OFFCURVE",
"431 225 CURVE",
"429 233 OFFCURVE",
"427 240 OFFCURVE",
"428 251 CURVE",
"414 288 LINE"
);
}
);
width = 464;
}
);
unicode = 0053;
},
{
glyphname = T;
layers = (
{
layerId = "C5490108-C233-4ADF-8B6D-CFE8E3B23812";
paths = (
{
closed = 1;
nodes = (
"270 692 OFFCURVE",
"259 690 OFFCURVE",
"247 690 CURVE SMOOTH",
"235 690 OFFCURVE",
"222 691 OFFCURVE",
"209 688 CURVE",
"197 691 OFFCURVE",
"183 692 OFFCURVE",
"168 694 CURVE",
"138 690 LINE",
"105 689 OFFCURVE",
"69 693 OFFCURVE",
"41 690 CURVE",
"30 682 OFFCURVE",
"22 663 OFFCURVE",
"31 648 CURVE",
"37 646 OFFCURVE",
"41 642 OFFCURVE",
"50 643 CURVE SMOOTH",
"57 644 OFFCURVE",
"64 646 OFFCURVE",
"72 646 CURVE",
"80 647 OFFCURVE",
"90 644 OFFCURVE",
"99 645 CURVE",
"106 645 OFFCURVE",
"112 648 OFFCURVE",
"119 648 CURVE SMOOTH",
"126 648 OFFCURVE",
"134 646 OFFCURVE",
"141 646 CURVE SMOOTH",
"150 646 OFFCURVE",
"157 647 OFFCURVE",
"165 646 CURVE SMOOTH",
"179 644 OFFCURVE",
"197 645 OFFCURVE",
"203 633 CURVE",
"204 624 OFFCURVE",
"198 622 OFFCURVE",
"200 613 CURVE",
"209 587 OFFCURVE",
"197 551 OFFCURVE",
"203 523 CURVE",
"198 497 OFFCURVE",
"199 461 OFFCURVE",
"203 435 CURVE",
"203 427 OFFCURVE",
"199 424 OFFCURVE",
"196 419 CURVE",
"201 415 OFFCURVE",
"199 408 OFFCURVE",
"199 403 CURVE",
"201 375 OFFCURVE",
"194 351 OFFCURVE",
"196 326 CURVE SMOOTH",
"197 316 OFFCURVE",
"200 307 OFFCURVE",
"201 298 CURVE",
"201 289 OFFCURVE",
"199 282 OFFCURVE",
"199 274 CURVE SMOOTH",
"199 269 OFFCURVE",
"201 262 OFFCURVE",
"201 257 CURVE SMOOTH",
"201 244 OFFCURVE",
"199 234 OFFCURVE",
"202 225 CURVE",
"202 220 OFFCURVE",
"199 216 OFFCURVE",
"199 211 CURVE",
"205 200 OFFCURVE",
"201 189 OFFCURVE",
"201 178 CURVE SMOOTH",
"201 146 OFFCURVE",
"201 110 OFFCURVE",
"196 80 CURVE",
"194 73 OFFCURVE",
"198 72 OFFCURVE",
"197 66 CURVE",
"193 53 OFFCURVE",
"193 30 OFFCURVE",
"194 17 CURVE",
"198 13 OFFCURVE",
"202 9 OFFCURVE",
"207 6 CURVE",
"216 5 OFFCURVE",
"222 7 OFFCURVE",
"229 9 CURVE",
"240 7 OFFCURVE",
"242 13 OFFCURVE",
"248 17 CURVE",
"251 29 OFFCURVE",
"246 43 OFFCURVE",
"246 56 CURVE SMOOTH",
"246 59 OFFCURVE",
"248 63 OFFCURVE",
"248 66 CURVE SMOOTH",
"248 69 OFFCURVE",
"246 72 OFFCURVE",
"246 75 CURVE SMOOTH",
"246 83 OFFCURVE",
"248 90 OFFCURVE",
"248 97 CURVE SMOOTH",
"248 115 OFFCURVE",
"245 133 OFFCURVE",
"247 151 CURVE",
"247 157 OFFCURVE",
"248 164 OFFCURVE",
"248 170 CURVE",
"249 188 OFFCURVE",
"244 207 OFFCURVE",
"250 223 CURVE",
"248 228 OFFCURVE",
"246 232 OFFCURVE",
"247 239 CURVE SMOOTH",
"248 247 OFFCURVE",
"251 253 OFFCURVE",
"251 261 CURVE",
"252 271 OFFCURVE",
"250 281 OFFCURVE",
"250 291 CURVE",
"249 305 OFFCURVE",
"253 320 OFFCURVE",
"251 332 CURVE",
"251 340 LINE",
"250 370 LINE",
"250 372 OFFCURVE",
"252 372 OFFCURVE",
"251 375 CURVE",
"251 381 OFFCURVE",
"248 387 OFFCURVE",
"248 394 CURVE SMOOTH",
"248 408 OFFCURVE",
"252 423 OFFCURVE",
"249 438 CURVE",
"255 456 OFFCURVE",
"251 477 OFFCURVE",
"252 498 CURVE",
"252 503 OFFCURVE",
"253 509 OFFCURVE",
"253 515 CURVE SMOOTH",
"253 522 OFFCURVE",
"250 529 OFFCURVE",
"250 537 CURVE SMOOTH",
"250 545 OFFCURVE",
"252 554 OFFCURVE",
"252 562 CURVE SMOOTH",
"252 593 OFFCURVE",
"249 616 OFFCURVE",
"250 640 CURVE",
"270 647 OFFCURVE",
"293 642 OFFCURVE",
"315 643 CURVE",
"362 643 LINE SMOOTH",
"371 643 OFFCURVE",
"384 645 OFFCURVE",
"389 644 CURVE",
"393 644 OFFCURVE",
"394 642 OFFCURVE",
"397 643 CURVE",
"408 644 OFFCURVE",
"415 648 OFFCURVE",
"422 655 CURVE",
"421 669 OFFCURVE",
"424 675 OFFCURVE",
"420 685 CURVE",
"405 691 OFFCURVE",
"385 689 OFFCURVE",
"370 688 CURVE",
"368 688 OFFCURVE",
"368 690 OFFCURVE",
"367 690 CURVE SMOOTH",
"363 690 OFFCURVE",
"357 685 OFFCURVE",
"353 687 CURVE",
"341 690 OFFCURVE",
"330 688 OFFCURVE",
"318 688 CURVE",
"282 692 LINE"
);
}
);
width = 460;
}
);
unicode = 0054;
},
{
glyphname = U;
layers = (
{
layerId = "C5490108-C233-4ADF-8B6D-CFE8E3B23812";
paths = (
{
closed = 1;
nodes = (
"47 226 OFFCURVE",
"44 217 OFFCURVE",
"44 209 CURVE",
"45 195 OFFCURVE",
"52 183 OFFCURVE",
"50 168 CURVE",
"55 159 OFFCURVE",
"61 151 OFFCURVE",
"59 136 CURVE",
"63 132 OFFCURVE",
"64 124 OFFCURVE",
"69 119 CURVE",
"70 111 OFFCURVE",
"78 109 OFFCURVE",
"80 102 CURVE",
"82 97 OFFCURVE",
"83 90 OFFCURVE",
"86 86 CURVE",
"94 77 OFFCURVE",
"101 67 OFFCURVE",
"111 61 CURVE",
"115 56 OFFCURVE",
"120 53 OFFCURVE",
"126 50 CURVE",
"131 46 OFFCURVE",
"134 41 OFFCURVE",
"141 39 CURVE",
"142 31 OFFCURVE",
"147 28 OFFCURVE",
"151 23 CURVE",
"157 19 OFFCURVE",
"161 22 OFFCURVE",
"168 20 CURVE",
"173 14 OFFCURVE",
"180 10 OFFCURVE",
"187 7 CURVE",
"189 5 OFFCURVE",
"195 6 OFFCURVE",
"200 5 CURVE",
"202 3 OFFCURVE",
"204 0 OFFCURVE",
"209 1 CURVE",
"223 5 OFFCURVE",
"237 0 OFFCURVE",
"250 -1 CURVE SMOOTH",
"266 -2 OFFCURVE",
"281 3 OFFCURVE",
"294 -4 CURVE",
"306 1 OFFCURVE",
"315 -1 OFFCURVE",
"331 -1 CURVE",
"341 2 OFFCURVE",
"353 4 OFFCURVE",
"367 3 CURVE",
"373 6 OFFCURVE",
"376 12 OFFCURVE",
"383 14 CURVE",
"391 15 OFFCURVE",
"392 23 OFFCURVE",
"403 21 CURVE",
"412 30 OFFCURVE",
"423 37 OFFCURVE",
"436 41 CURVE",
"449 54 OFFCURVE",
"459 70 OFFCURVE",
"474 81 CURVE",
"475 86 OFFCURVE",
"477 90 OFFCURVE",
"479 95 CURVE",
"485 103 OFFCURVE",
"494 109 OFFCURVE",
"499 119 CURVE",
"499 133 OFFCURVE",
"508 138 OFFCURVE",
"511 148 CURVE",
"512 161 OFFCURVE",
"516 172 OFFCURVE",
"520 182 CURVE",
"520 200 OFFCURVE",
"525 215 OFFCURVE",
"522 232 CURVE",
"527 261 OFFCURVE",
"524 284 OFFCURVE",
"520 314 CURVE",
"518 325 OFFCURVE",
"523 334 OFFCURVE",
"523 344 CURVE SMOOTH",
"523 349 OFFCURVE",
"522 355 OFFCURVE",
"522 360 CURVE SMOOTH",
"522 365 OFFCURVE",
"523 371 OFFCURVE",
"523 375 CURVE SMOOTH",
"523 383 OFFCURVE",
"520 391 OFFCURVE",
"520 399 CURVE SMOOTH",
"520 409 OFFCURVE",
"524 419 OFFCURVE",
"524 429 CURVE",
"525 435 OFFCURVE",
"529 438 OFFCURVE",
"530 445 CURVE",
"530 447 OFFCURVE",
"528 447 OFFCURVE",
"528 450 CURVE",
"526 455 OFFCURVE",
"527 462 OFFCURVE",
"527 468 CURVE",
"525 487 LINE",
"524 493 OFFCURVE",
"521 499 OFFCURVE",
"521 505 CURVE",
"518 525 OFFCURVE",
"520 537 OFFCURVE",
"527 550 CURVE",
"526 558 OFFCURVE",
"520 560 OFFCURVE",
"521 568 CURVE",
"524 579 OFFCURVE",
"521 591 OFFCURVE",
"521 602 CURVE SMOOTH",
"521 631 OFFCURVE",
"528 662 OFFCURVE",
"521 688 CURVE",
"513 693 OFFCURVE",
"495 698 OFFCURVE",
"483 694 CURVE",
"476 691 OFFCURVE",
"475 683 OFFCURVE",
"472 677 CURVE",
"470 666 OFFCURVE",
"475 662 OFFCURVE",
"475 653 CURVE SMOOTH",
"475 580 OFFCURVE",
"478 520 OFFCURVE",
"473 448 CURVE",
"478 428 OFFCURVE",
"476 403 OFFCURVE",
"471 385 CURVE",
"475 374 OFFCURVE",
"470 364 OFFCURVE",
"470 352 CURVE",
"469 332 OFFCURVE",
"477 310 OFFCURVE",
"470 292 CURVE",
"473 271 OFFCURVE",
"466 243 OFFCURVE",
"471 221 CURVE",
"469 200 OFFCURVE",
"463 182 OFFCURVE",
"457 164 CURVE",
"453 157 OFFCURVE",
"450 148 OFFCURVE",
"444 142 CURVE",
"443 131 OFFCURVE",
"434 127 OFFCURVE",
"431 117 CURVE",
"425 114 OFFCURVE",
"421 108 OFFCURVE",
"416 103 CURVE",
"406 95 LINE",
"402 92 LINE",
"400 90 OFFCURVE",
"400 91 OFFCURVE",
"398 90 CURVE",
"386 83 OFFCURVE",
"375 74 OFFCURVE",
"362 67 CURVE",
"352 64 OFFCURVE",
"345 60 OFFCURVE",
"337 55 CURVE",
"329 55 OFFCURVE",
"324 52 OFFCURVE",
"316 51 CURVE",
"296 50 OFFCURVE",
"276 57 OFFCURVE",
"256 53 CURVE",
"245 56 OFFCURVE",
"234 62 OFFCURVE",
"220 57 CURVE",
"209 67 OFFCURVE",
"195 70 OFFCURVE",
"184 78 CURVE SMOOTH",
"175 85 OFFCURVE",
"169 95 OFFCURVE",
"157 98 CURVE",
"148 113 OFFCURVE",
"133 123 OFFCURVE",
"122 135 CURVE",
"117 147 OFFCURVE",
"114 161 OFFCURVE",
"107 171 CURVE",
"109 185 OFFCURVE",
"102 190 OFFCURVE",
"99 199 CURVE",
"101 209 OFFCURVE",
"99 224 OFFCURVE",
"96 234 CURVE",
"99 247 OFFCURVE",
"95 258 OFFCURVE",
"95 269 CURVE",
"93 290 OFFCURVE",
"95 312 OFFCURVE",
"99 330 CURVE",
"98 342 OFFCURVE",
"98 350 OFFCURVE",
"99 362 CURVE",
"98 368 OFFCURVE",
"95 373 OFFCURVE",
"95 381 CURVE",
"97 404 OFFCURVE",
"94 428 OFFCURVE",
"100 448 CURVE",
"96 468 OFFCURVE",
"98 489 OFFCURVE",
"98 508 CURVE",
"99 532 OFFCURVE",
"97 559 OFFCURVE",
"100 582 CURVE",
"95 593 OFFCURVE",
"97 604 OFFCURVE",
"95 615 CURVE",
"99 627 OFFCURVE",
"100 649 OFFCURVE",
"95 660 CURVE",
"98 668 OFFCURVE",
"97 683 OFFCURVE",
"93 690 CURVE",
"85 697 OFFCURVE",
"69 697 OFFCURVE",
"57 693 CURVE",
"52 688 OFFCURVE",
"52 680 OFFCURVE",
"48 675 CURVE",
"53 644 OFFCURVE",
"45 606 OFFCURVE",
"51 578 CURVE",
"47 561 OFFCURVE",
"50 544 OFFCURVE",
"49 526 CURVE",
"48 471 OFFCURVE",
"47 416 OFFCURVE",
"47 368 CURVE SMOOTH",
"47 363 OFFCURVE",
"46 359 OFFCURVE",
"46 354 CURVE",
"45 342 OFFCURVE",
"47 330 OFFCURVE",
"47 318 CURVE SMOOTH",
"47 305 OFFCURVE",
"46 292 OFFCURVE",
"46 280 CURVE SMOOTH",
"46 272 OFFCURVE",
"49 264 OFFCURVE",
"47 256 CURVE",
"44 236 LINE"
);
}
);
width = 567;
}
);
unicode = 0055;
},
{
glyphname = V;
layers = (
{
layerId = "C5490108-C233-4ADF-8B6D-CFE8E3B23812";
paths = (
{
closed = 1;
nodes = (
"511 555 OFFCURVE",
"510 560 OFFCURVE",
"511 564 CURVE",
"513 568 OFFCURVE",
"515 570 OFFCURVE",
"517 573 CURVE",
"517 579 OFFCURVE",
"517 585 OFFCURVE",
"519 589 CURVE",
"522 594 OFFCURVE",
"523 600 OFFCURVE",
"527 603 CURVE",
"527 618 OFFCURVE",
"532 629 OFFCURVE",
"536 639 CURVE",
"539 652 OFFCURVE",
"547 660 OFFCURVE",
"547 676 CURVE",
"546 682 OFFCURVE",
"544 686 OFFCURVE",
"541 690 CURVE",
"532 693 OFFCURVE",
"518 691 OFFCURVE",
"506 691 CURVE",
"495 684 OFFCURVE",
"489 672 OFFCURVE",
"491 652 CURVE",
"481 630 OFFCURVE",
"468 608 OFFCURVE",
"467 583 CURVE",
"459 565 OFFCURVE",
"448 549 OFFCURVE",
"448 522 CURVE",
"431 482 LINE",
"427 468 OFFCURVE",
"423 452 OFFCURVE",
"415 441 CURVE",
"417 428 OFFCURVE",
"411 422 OFFCURVE",
"407 414 CURVE",
"403 387 OFFCURVE",
"391 370 OFFCURVE",
"385 347 CURVE",
"376 338 OFFCURVE",
"377 325 OFFCURVE",
"374 314 CURVE SMOOTH",
"371 302 OFFCURVE",
"364 290 OFFCURVE",
"364 277 CURVE",
"357 268 OFFCURVE",
"355 254 OFFCURVE",
"352 241 CURVE",
"348 237 OFFCURVE",
"346 231 OFFCURVE",
"342 227 CURVE",
"341 218 OFFCURVE",
"337 212 OFFCURVE",
"334 205 CURVE",
"334 195 OFFCURVE",
"329 190 OFFCURVE",
"326 183 CURVE",
"324 168 OFFCURVE",
"322 153 OFFCURVE",
"318 139 CURVE",
"313 124 OFFCURVE",
"310 109 OFFCURVE",
"302 99 CURVE",
"295 101 OFFCURVE",
"296 111 OFFCURVE",
"293 117 CURVE",
"291 124 OFFCURVE",
"291 130 OFFCURVE",
"288 137 CURVE",
"286 153 OFFCURVE",
"280 166 OFFCURVE",
"276 180 CURVE",
"275 196 OFFCURVE",
"265 205 OFFCURVE",
"265 222 CURVE",
"261 236 OFFCURVE",
"253 247 OFFCURVE",
"252 265 CURVE",
"241 279 OFFCURVE",
"238 302 OFFCURVE",
"230 320 CURVE",
"223 339 OFFCURVE",
"220 362 OFFCURVE",
"211 378 CURVE SMOOTH",
"206 387 OFFCURVE",
"204 395 OFFCURVE",
"200 405 CURVE",
"197 411 LINE",
"197 417 OFFCURVE",
"196 421 OFFCURVE",
"194 425 CURVE",
"188 451 LINE",
"185 457 LINE",
"180 471 OFFCURVE",
"176 481 OFFCURVE",
"171 492 CURVE",
"169 500 OFFCURVE",
"167 508 OFFCURVE",
"164 516 CURVE",
"157 539 LINE",
"153 549 OFFCURVE",
"150 561 OFFCURVE",
"147 569 CURVE",
"144 576 OFFCURVE",
"141 579 OFFCURVE",
"139 585 CURVE",
"137 595 OFFCURVE",
"133 603 OFFCURVE",
"130 612 CURVE",
"126 621 OFFCURVE",
"124 631 OFFCURVE",
"119 639 CURVE",
"116 656 OFFCURVE",
"109 678 OFFCURVE",
"100 692 CURVE",
"81 701 OFFCURVE",
"49 699 OFFCURVE",
"51 672 CURVE",
"53 656 OFFCURVE",
"65 650 OFFCURVE",
"67 634 CURVE",
"71 629 OFFCURVE",
"72 622 OFFCURVE",
"75 615 CURVE",
"76 607 OFFCURVE",
"82 603 OFFCURVE",
"81 593 CURVE",
"88 586 OFFCURVE",
"90 575 OFFCURVE",
"95 566 CURVE",
"96 555 OFFCURVE",
"100 546 OFFCURVE",
"101 535 CURVE",
"105 529 OFFCURVE",
"108 523 OFFCURVE",
"111 517 CURVE",
"108 506 OFFCURVE",
"117 505 OFFCURVE",
"119 498 CURVE",
"116 496 OFFCURVE",
"117 492 OFFCURVE",
"117 487 CURVE",
"123 483 OFFCURVE",
"123 475 OFFCURVE",
"128 470 CURVE",
"131 445 OFFCURVE",
"147 433 OFFCURVE",
"145 405 CURVE",
"151 403 OFFCURVE",
"150 393 OFFCURVE",
"155 390 CURVE",
"156 382 OFFCURVE",
"162 379 OFFCURVE",
"164 372 CURVE",
"165 360 OFFCURVE",
"171 352 OFFCURVE",
"173 341 CURVE",
"181 326 OFFCURVE",
"184 309 OFFCURVE",
"189 294 CURVE",
"194 276 OFFCURVE",
"202 260 OFFCURVE",
"203 243 CURVE",
"207 238 OFFCURVE",
"211 232 OFFCURVE",
"213 225 CURVE",
"213 215 OFFCURVE",
"215 207 OFFCURVE",
"219 200 CURVE",
"218 189 OFFCURVE",
"226 186 OFFCURVE",
"224 173 CURVE",
"228 167 OFFCURVE",
"232 161 OFFCURVE",
"235 154 CURVE",
"236 141 OFFCURVE",
"242 134 OFFCURVE",
"241 121 CURVE",
"247 110 OFFCURVE",
"251 96 OFFCURVE",
"257 83 CURVE",
"259 76 OFFCURVE",
"263 72 OFFCURVE",
"263 63 CURVE",
"267 58 OFFCURVE",
"270 52 OFFCURVE",
"269 42 CURVE",
"274 33 OFFCURVE",
"280 25 OFFCURVE",
"280 11 CURVE",
"286 2 OFFCURVE",
"285 -13 OFFCURVE",
"296 -16 CURVE",
"315 -18 OFFCURVE",
"316 -2 OFFCURVE",
"324 6 CURVE",
"329 28 OFFCURVE",
"335 49 OFFCURVE",
"345 66 CURVE",
"346 76 OFFCURVE",
"350 83 OFFCURVE",
"350 94 CURVE",
"356 107 OFFCURVE",
"360 123 OFFCURVE",
"369 135 CURVE",
"371 153 OFFCURVE",
"377 167 OFFCURVE",
"383 180 CURVE",
"383 186 OFFCURVE",
"386 191 OFFCURVE",
"385 198 CURVE",
"394 214 OFFCURVE",
"396 237 OFFCURVE",
"407 251 CURVE",
"407 271 OFFCURVE",
"418 281 OFFCURVE",
"419 301 CURVE",
"434 326 OFFCURVE",
"434 367 OFFCURVE",
"452 388 CURVE",
"452 398 OFFCURVE",
"456 404 OFFCURVE",
"459 411 CURVE",
"463 419 OFFCURVE",
"464 428 OFFCURVE",
"470 432 CURVE",
"469 446 OFFCURVE",
"477 453 OFFCURVE",
"476 466 CURVE",
"481 470 OFFCURVE",
"482 480 OFFCURVE",
"488 485 CURVE",
"486 493 OFFCURVE",
"491 500 OFFCURVE",
"494 507 CURVE",
"497 515 OFFCURVE",
"498 523 OFFCURVE",
"500 531 CURVE",
"510 551 LINE"
);
}
);
width = 574;
}
);
unicode = 0056;
},
{
glyphname = W;
layers = (
{
layerId = "C5490108-C233-4ADF-8B6D-CFE8E3B23812";
paths = (
{
closed = 1;
nodes = (
"868 481 OFFCURVE",
"864 469 OFFCURVE",
"857 458 CURVE",
"859 448 OFFCURVE",
"855 443 OFFCURVE",
"856 433 CURVE",
"851 426 OFFCURVE",
"849 415 OFFCURVE",
"846 403 CURVE",
"842 399 OFFCURVE",
"839 394 OFFCURVE",
"836 389 CURVE",
"835 374 OFFCURVE",
"828 365 OFFCURVE",
"825 351 CURVE",
"821 346 OFFCURVE",
"822 338 OFFCURVE",
"819 332 CURVE SMOOTH",
"816 326 OFFCURVE",
"812 322 OFFCURVE",
"810 317 CURVE",
"811 310 OFFCURVE",
"807 309 OFFCURVE",
"806 304 CURVE",
"806 290 LINE",
"799 277 OFFCURVE",
"798 258 OFFCURVE",
"789 247 CURVE",
"789 235 LINE",
"778 219 OFFCURVE",
"778 192 OFFCURVE",
"767 176 CURVE",
"766 162 OFFCURVE",
"763 149 OFFCURVE",
"758 140 CURVE",
"757 133 OFFCURVE",
"755 124 OFFCURVE",
"752 117 CURVE",
"749 111 OFFCURVE",
"753 99 OFFCURVE",
"743 99 CURVE",
"737 101 OFFCURVE",
"741 112 OFFCURVE",
"740 118 CURVE",
"731 133 OFFCURVE",
"724 152 OFFCURVE",
"724 178 CURVE",
"721 186 OFFCURVE",
"716 192 OFFCURVE",
"712 199 CURVE",
"710 226 OFFCURVE",
"687 240 OFFCURVE",
"691 270 CURVE",
"684 283 OFFCURVE",
"676 295 OFFCURVE",
"668 308 CURVE",
"667 318 OFFCURVE",
"660 328 OFFCURVE",
"657 338 CURVE",
"653 348 OFFCURVE",
"654 360 OFFCURVE",
"647 369 CURVE",
"641 390 OFFCURVE",
"635 410 OFFCURVE",
"635 437 CURVE",
"631 443 OFFCURVE",
"623 445 OFFCURVE",
"619 451 CURVE",
"617 462 OFFCURVE",
"609 468 OFFCURVE",
"605 478 CURVE",
"603 501 OFFCURVE",
"595 519 OFFCURVE",
"585 535 CURVE",
"585 545 OFFCURVE",
"578 549 OFFCURVE",
"575 557 CURVE",
"571 580 OFFCURVE",
"556 592 OFFCURVE",
"555 618 CURVE",
"546 632 OFFCURVE",
"541 649 OFFCURVE",
"537 667 CURVE",
"532 673 OFFCURVE",
"529 682 OFFCURVE",
"526 691 CURVE",
"518 694 OFFCURVE",
"521 705 OFFCURVE",
"509 705 CURVE",
"501 706 OFFCURVE",
"499 700 OFFCURVE",
"494 699 CURVE",
"490 691 OFFCURVE",
"488 685 OFFCURVE",
"488 675 CURVE",
"483 665 OFFCURVE",
"481 650 OFFCURVE",
"476 640 CURVE",
"469 633 OFFCURVE",
"469 618 OFFCURVE",
"462 609 CURVE",
"456 583 OFFCURVE",
"442 565 OFFCURVE",
"438 537 CURVE",
"431 530 OFFCURVE",
"429 518 OFFCURVE",
"422 511 CURVE",
"423 478 OFFCURVE",
"403 466 OFFCURVE",
"399 439 CURVE",
"396 434 OFFCURVE",
"392 432 OFFCURVE",
"391 426 CURVE",
"392 419 OFFCURVE",
"388 416 OFFCURVE",
"387 409 CURVE",
"384 402 OFFCURVE",
"380 396 OFFCURVE",
"378 390 CURVE",
"376 382 LINE",
"372 374 OFFCURVE",
"365 367 OFFCURVE",
"360 360 CURVE",
"358 335 OFFCURVE",
"349 317 OFFCURVE",
"345 295 CURVE",
"333 278 OFFCURVE",
"329 253 OFFCURVE",
"316 237 CURVE",
"317 230 OFFCURVE",
"314 228 OFFCURVE",
"315 221 CURVE",
"308 214 OFFCURVE",
"307 203 OFFCURVE",
"304 193 CURVE",
"300 183 OFFCURVE",
"295 173 OFFCURVE",
"294 161 CURVE",
"289 154 OFFCURVE",
"288 141 OFFCURVE",
"285 131 CURVE",
"278 122 OFFCURVE",
"281 106 OFFCURVE",
"269 105 CURVE",
"264 108 OFFCURVE",
"263 116 OFFCURVE",
"263 124 CURVE",
"261 128 OFFCURVE",
"259 135 OFFCURVE",
"259 144 CURVE",
"256 147 OFFCURVE",
"253 151 OFFCURVE",
"252 155 CURVE",
"250 176 OFFCURVE",
"241 189 OFFCURVE",
"236 206 CURVE",
"235 222 OFFCURVE",
"233 247 OFFCURVE",
"226 262 CURVE SMOOTH",
"218 278 OFFCURVE",
"212 295 OFFCURVE",
"204 311 CURVE",
"202 314 OFFCURVE",
"203 322 OFFCURVE",
"203 327 CURVE",
"199 332 OFFCURVE",
"196 338 OFFCURVE",
"193 344 CURVE",
"192 362 OFFCURVE",
"182 374 OFFCURVE",
"181 392 CURVE",
"174 401 OFFCURVE",
"173 414 OFFCURVE",
"167 423 CURVE",
"166 435 OFFCURVE",
"162 441 OFFCURVE",
"162 453 CURVE",
"160 460 OFFCURVE",
"156 465 OFFCURVE",
"153 471 CURVE",
"153 482 LINE",
"146 488 LINE",
"142 496 LINE SMOOTH",
"136 508 OFFCURVE",
"131 523 OFFCURVE",
"131 540 CURVE",
"129 545 OFFCURVE",
"125 548 OFFCURVE",
"124 554 CURVE",
"125 564 OFFCURVE",
"122 568 OFFCURVE",
"123 578 CURVE",
"118 585 OFFCURVE",
"114 597 OFFCURVE",
"110 605 CURVE",
"107 609 LINE",
"101 621 OFFCURVE",
"98 633 OFFCURVE",
"101 647 CURVE",
"97 658 OFFCURVE",
"87 664 OFFCURVE",
"83 676 CURVE",
"80 682 OFFCURVE",
"84 690 OFFCURVE",
"82 695 CURVE",
"72 697 OFFCURVE",
"63 699 OFFCURVE",
"49 698 CURVE",
"36 691 OFFCURVE",
"22 691 OFFCURVE",
"20 677 CURVE SMOOTH",
"19 669 OFFCURVE",
"25 665 OFFCURVE",
"27 662 CURVE",
"29 656 OFFCURVE",
"32 650 OFFCURVE",
"34 646 CURVE",
"38 634 OFFCURVE",
"43 624 OFFCURVE",
"47 613 CURVE",
"46 605 OFFCURVE",
"46 602 OFFCURVE",
"47 594 CURVE",
"52 586 OFFCURVE",
"58 578 OFFCURVE",
"60 567 CURVE",
"65 559 OFFCURVE",
"69 550 OFFCURVE",
"69 537 CURVE",
"75 527 OFFCURVE",
"79 516 OFFCURVE",
"82 502 CURVE",
"86 491 OFFCURVE",
"91 478 OFFCURVE",
"91 468 CURVE",
"101 459 OFFCURVE",
"105 444 OFFCURVE",
"105 425 CURVE",
"110 418 OFFCURVE",
"112 411 OFFCURVE",
"116 403 CURVE",
"122 381 OFFCURVE",
"130 360 OFFCURVE",
"138 340 CURVE",
"139 336 OFFCURVE",
"140 333 OFFCURVE",
"140 327 CURVE",
"148 314 OFFCURVE",
"152 296 OFFCURVE",
"159 280 CURVE",
"158 271 OFFCURVE",
"162 265 OFFCURVE",
"162 256 CURVE",
"169 244 OFFCURVE",
"172 227 OFFCURVE",
"181 215 CURVE",
"181 205 OFFCURVE",
"186 199 OFFCURVE",
"185 187 CURVE",
"193 177 OFFCURVE",
"198 162 OFFCURVE",
"201 152 CURVE",
"202 150 OFFCURVE",
"202 147 OFFCURVE",
"203 146 CURVE",
"204 140 OFFCURVE",
"203 136 OFFCURVE",
"204 131 CURVE",
"205 129 OFFCURVE",
"207 125 OFFCURVE",
"207 122 CURVE",
"209 118 OFFCURVE",
"211 115 OFFCURVE",
"212 111 CURVE",
"213 105 OFFCURVE",
"214 99 OFFCURVE",
"213 92 CURVE",
"219 89 OFFCURVE",
"217 79 OFFCURVE",
"223 76 CURVE",
"231 57 LINE",
"234 52 OFFCURVE",
"236 45 OFFCURVE",
"239 38 CURVE",
"240 35 OFFCURVE",
"240 32 OFFCURVE",
"242 29 CURVE",
"243 26 OFFCURVE",
"246 23 OFFCURVE",
"246 20 CURVE",
"248 5 OFFCURVE",
"254 -6 OFFCURVE",
"269 -9 CURVE",
"280 -5 OFFCURVE",
"281 8 OFFCURVE",
"291 13 CURVE",
"291 21 OFFCURVE",
"296 23 OFFCURVE",
"297 31 CURVE",
"299 36 OFFCURVE",
"306 37 OFFCURVE",
"306 45 CURVE",
"308 63 OFFCURVE",
"318 74 OFFCURVE",
"319 94 CURVE",
"325 103 OFFCURVE",
"329 115 OFFCURVE",
"336 125 CURVE",
"336 141 OFFCURVE",
"347 155 OFFCURVE",
"348 174 CURVE",
"353 180 OFFCURVE",
"354 190 OFFCURVE",
"360 194 CURVE",
"362 207 OFFCURVE",
"367 215 OFFCURVE",
"373 223 CURVE",
"375 239 OFFCURVE",
"382 250 OFFCURVE",
"387 262 CURVE",
"393 283 OFFCURVE",
"399 304 OFFCURVE",
"408 322 CURVE",
"410 332 OFFCURVE",
"416 340 OFFCURVE",
"420 349 CURVE SMOOTH",
"424 358 OFFCURVE",
"426 370 OFFCURVE",
"433 377 CURVE",
"432 390 OFFCURVE",
"440 394 OFFCURVE",
"439 407 CURVE",
"449 417 LINE",
"449 422 OFFCURVE",
"448 428 OFFCURVE",
"451 431 CURVE",
"454 439 OFFCURVE",
"461 442 OFFCURVE",
"465 448 CURVE",
"464 456 OFFCURVE",
"466 460 OFFCURVE",
"466 467 CURVE",
"478 483 OFFCURVE",
"483 506 OFFCURVE",
"485 533 CURVE",
"493 541 OFFCURVE",
"494 557 OFFCURVE",
"501 566 CURVE",
"501 583 LINE",
"504 587 OFFCURVE",
"502 595 OFFCURVE",
"509 594 CURVE",
"515 591 OFFCURVE",
"515 581 OFFCURVE",
"517 572 CURVE",
"520 569 OFFCURVE",
"522 564 OFFCURVE",
"525 560 CURVE",
"525 550 LINE",
"531 543 OFFCURVE",
"533 532 OFFCURVE",
"537 524 CURVE",
"538 518 OFFCURVE",
"540 513 OFFCURVE",
"539 506 CURVE",
"545 499 OFFCURVE",
"550 491 OFFCURVE",
"548 476 CURVE",
"564 454 OFFCURVE",
"566 419 OFFCURVE",
"579 397 CURVE",
"580 394 OFFCURVE",
"582 390 OFFCURVE",
"581 385 CURVE",
"589 375 OFFCURVE",
"592 363 OFFCURVE",
"597 352 CURVE SMOOTH",
"603 338 LINE",
"606 330 OFFCURVE",
"608 322 OFFCURVE",
"611 315 CURVE",
"612 313 OFFCURVE",
"615 312 OFFCURVE",
"616 309 CURVE",
"617 307 OFFCURVE",
"616 304 OFFCURVE",
"617 301 CURVE",
"620 294 OFFCURVE",
"623 286 OFFCURVE",
"625 279 CURVE",
"629 269 OFFCURVE",
"634 259 OFFCURVE",
"635 248 CURVE",
"642 235 OFFCURVE",
"649 222 OFFCURVE",
"655 208 CURVE",
"658 200 OFFCURVE",
"660 191 OFFCURVE",
"661 181 CURVE",
"676 158 LINE",
"674 143 OFFCURVE",
"683 140 OFFCURVE",
"682 126 CURVE",
"689 112 OFFCURVE",
"699 97 OFFCURVE",
"699 73 CURVE",
"706 64 OFFCURVE",
"712 55 OFFCURVE",
"718 44 CURVE",
"722 29 OFFCURVE",
"725 13 OFFCURVE",
"730 -1 CURVE",
"736 -4 OFFCURVE",
"744 -5 OFFCURVE",
"754 -5 CURVE",
"768 1 OFFCURVE",
"773 18 OFFCURVE",
"773 39 CURVE",
"787 54 OFFCURVE",
"788 81 OFFCURVE",
"800 97 CURVE",
"797 103 OFFCURVE",
"799 106 OFFCURVE",
"800 112 CURVE",
"806 122 OFFCURVE",
"814 130 OFFCURVE",
"813 146 CURVE",
"818 152 OFFCURVE",
"821 160 OFFCURVE",
"824 168 CURVE SMOOTH",
"827 176 OFFCURVE",
"834 182 OFFCURVE",
"832 195 CURVE",
"838 199 OFFCURVE",
"837 208 OFFCURVE",
"840 214 CURVE",
"843 226 OFFCURVE",
"849 237 OFFCURVE",
"854 247 CURVE",
"854 268 OFFCURVE",
"861 281 OFFCURVE",
"865 298 CURVE",
"867 303 OFFCURVE",
"872 306 OFFCURVE",
"874 312 CURVE",
"875 324 OFFCURVE",
"881 330 OFFCURVE",
"881 343 CURVE",
"894 365 OFFCURVE",
"899 395 OFFCURVE",
"914 417 CURVE",
"912 429 OFFCURVE",
"917 434 OFFCURVE",
"917 443 CURVE",
"921 450 OFFCURVE",
"926 456 OFFCURVE",
"927 466 CURVE",
"929 475 OFFCURVE",
"936 479 OFFCURVE",
"935 492 CURVE",
"940 496 OFFCURVE",
"941 504 OFFCURVE",
"946 509 CURVE",
"948 528 OFFCURVE",
"955 543 OFFCURVE",
"960 561 CURVE",
"964 568 OFFCURVE",
"966 577 OFFCURVE",
"968 586 CURVE",
"973 591 OFFCURVE",
"974 602 OFFCURVE",
"976 611 CURVE",
"982 622 OFFCURVE",
"987 634 OFFCURVE",
"993 644 CURVE",
"992 658 OFFCURVE",
"996 666 OFFCURVE",
"996 678 CURVE",
"993 684 OFFCURVE",
"989 689 OFFCURVE",
"983 693 CURVE",
"967 697 OFFCURVE",
"945 695 OFFCURVE",
"935 685 CURVE",
"928 672 OFFCURVE",
"930 659 OFFCURVE",
"927 643 CURVE",
"921 633 OFFCURVE",
"914 625 OFFCURVE",
"916 608 CURVE",
"913 602 OFFCURVE",
"908 598 OFFCURVE",
"906 591 CURVE SMOOTH",
"903 580 OFFCURVE",
"900 568 OFFCURVE",
"894 559 CURVE",
"895 545 OFFCURVE",
"886 542 OFFCURVE",
"887 528 CURVE",
"883 522 OFFCURVE",
"877 518 OFFCURVE",
"875 510 CURVE",
"875 492 LINE"
);
}
);
width = 1005;
}
);
unicode = 0057;
},
{
glyphname = X;
layers = (
{
layerId = "C5490108-C233-4ADF-8B6D-CFE8E3B23812";
paths = (
{
closed = 1;
nodes = (
"221 424 OFFCURVE",
"220 433 OFFCURVE",
"216 441 CURVE",
"203 463 LINE",
"195 478 OFFCURVE",
"187 493 OFFCURVE",
"178 508 CURVE",
"180 520 OFFCURVE",
"172 521 OFFCURVE",
"173 532 CURVE",
"167 539 OFFCURVE",
"164 548 OFFCURVE",
"159 556 CURVE",
"155 564 OFFCURVE",
"147 571 OFFCURVE",
"145 581 CURVE",
"140 586 OFFCURVE",
"135 592 OFFCURVE",
"131 598 CURVE",
"128 605 OFFCURVE",
"126 611 OFFCURVE",
"121 616 CURVE",
"122 625 OFFCURVE",
"113 626 OFFCURVE",
"112 635 CURVE",
"112 646 LINE",
"103 654 OFFCURVE",
"97 665 OFFCURVE",
"91 677 CURVE",
"81 687 OFFCURVE",
"62 687 OFFCURVE",
"44 685 CURVE",
"39 680 OFFCURVE",
"32 677 OFFCURVE",
"32 668 CURVE",
"31 651 OFFCURVE",
"49 651 OFFCURVE",
"46 631 CURVE",
"50 628 OFFCURVE",
"54 626 OFFCURVE",
"57 622 CURVE",
"58 612 OFFCURVE",
"65 609 OFFCURVE",
"68 600 CURVE",
"73 593 OFFCURVE",
"75 584 OFFCURVE",
"79 576 CURVE",
"84 571 OFFCURVE",
"90 566 OFFCURVE",
"93 559 CURVE",
"95 555 OFFCURVE",
"96 551 OFFCURVE",
"96 545 CURVE",
"101 539 OFFCURVE",
"104 532 OFFCURVE",
"109 526 CURVE",
"111 514 OFFCURVE",
"118 507 OFFCURVE",
"123 497 CURVE",
"127 488 OFFCURVE",
"133 479 OFFCURVE",
"139 471 CURVE",
"141 461 OFFCURVE",
"147 454 OFFCURVE",
"151 447 CURVE",
"151 442 OFFCURVE",
"154 439 OFFCURVE",
"153 433 CURVE",
"158 425 OFFCURVE",
"166 420 OFFCURVE",
"166 408 CURVE",
"169 405 OFFCURVE",
"173 403 OFFCURVE",
"175 401 CURVE SMOOTH",
"176 400 OFFCURVE",
"175 398 OFFCURVE",
"176 397 CURVE",
"178 394 OFFCURVE",
"181 394 OFFCURVE",
"182 392 CURVE",
"184 390 OFFCURVE",
"184 386 OFFCURVE",
"186 384 CURVE",
"192 375 OFFCURVE",
"203 367 OFFCURVE",
"205 357 CURVE",
"208 336 OFFCURVE",
"189 323 OFFCURVE",
"184 302 CURVE",
"177 294 OFFCURVE",
"165 291 OFFCURVE",
"160 280 CURVE",
"158 275 OFFCURVE",
"161 273 OFFCURVE",
"160 266 CURVE",
"149 249 OFFCURVE",
"140 229 OFFCURVE",
"130 211 CURVE",
"127 208 OFFCURVE",
"130 200 OFFCURVE",
"127 196 CURVE",
"124 196 OFFCURVE",
"123 194 OFFCURVE",
"118 195 CURVE",
"119 174 OFFCURVE",
"99 174 OFFCURVE",
"94 160 CURVE",
"93 155 OFFCURVE",
"97 155 OFFCURVE",
"96 149 CURVE",
"92 142 OFFCURVE",
"88 135 OFFCURVE",
"83 130 CURVE",
"80 118 OFFCURVE",
"73 111 OFFCURVE",
"70 100 CURVE SMOOTH",
"67 89 OFFCURVE",
"60 82 OFFCURVE",
"56 72 CURVE",
"48 67 OFFCURVE",
"41 62 OFFCURVE",
"35 55 CURVE",
"34 47 OFFCURVE",
"35 46 OFFCURVE",
"35 37 CURVE",
"32 33 OFFCURVE",
"31 28 OFFCURVE",
"29 23 CURVE SMOOTH",
"27 18 OFFCURVE",
"24 13 OFFCURVE",
"24 6 CURVE",
"32 -7 OFFCURVE",
"57 -9 OFFCURVE",
"73 -4 CURVE",
"80 4 OFFCURVE",
"86 14 OFFCURVE",
"92 23 CURVE",
"100 31 OFFCURVE",
"103 43 OFFCURVE",
"111 50 CURVE",
"111 55 OFFCURVE",
"115 57 OFFCURVE",
"114 62 CURVE",
"125 69 OFFCURVE",
"126 85 OFFCURVE",
"138 91 CURVE",
"136 103 OFFCURVE",
"142 108 OFFCURVE",
"144 116 CURVE",
"147 122 OFFCURVE",
"155 120 OFFCURVE",
"157 127 CURVE",
"158 143 OFFCURVE",
"166 150 OFFCURVE",
"168 165 CURVE",
"173 169 OFFCURVE",
"173 176 OFFCURVE",
"176 181 CURVE",
"177 182 OFFCURVE",
"180 182 OFFCURVE",
"181 184 CURVE SMOOTH",
"183 188 OFFCURVE",
"182 192 OFFCURVE",
"182 198 CURVE",
"188 201 OFFCURVE",
"191 206 OFFCURVE",
"195 211 CURVE",
"195 223 OFFCURVE",
"202 228 OFFCURVE",
"206 236 CURVE",
"210 243 OFFCURVE",
"213 253 OFFCURVE",
"219 259 CURVE",
"220 272 OFFCURVE",
"224 282 OFFCURVE",
"236 285 CURVE",
"243 284 OFFCURVE",
"244 276 OFFCURVE",
"249 272 CURVE",
"250 265 OFFCURVE",
"255 261 OFFCURVE",
"257 255 CURVE",
"259 250 OFFCURVE",
"260 243 OFFCURVE",
"261 237 CURVE",
"264 232 OFFCURVE",
"270 231 OFFCURVE",
"272 226 CURVE SMOOTH",
"275 219 OFFCURVE",
"279 212 OFFCURVE",
"283 206 CURVE",
"286 197 OFFCURVE",
"290 189 OFFCURVE",
"294 182 CURVE",
"296 178 OFFCURVE",
"296 177 OFFCURVE",
"294 173 CURVE",
"300 168 OFFCURVE",
"304 162 OFFCURVE",
"309 155 CURVE",
"309 145 OFFCURVE",
"317 144 OFFCURVE",
"320 136 CURVE",
"319 126 OFFCURVE",
"326 123 OFFCURVE",
"324 112 CURVE",
"329 106 OFFCURVE",
"333 98 OFFCURVE",
"338 92 CURVE",
"341 76 OFFCURVE",
"355 70 OFFCURVE",
"357 53 CURVE",
"365 46 OFFCURVE",
"371 39 OFFCURVE",
"376 30 CURVE",
"378 23 OFFCURVE",
"382 18 OFFCURVE",
"382 10 CURVE",
"387 6 OFFCURVE",
"391 2 OFFCURVE",
"395 -3 CURVE",
"407 -5 OFFCURVE",
"417 -9 OFFCURVE",
"433 -7 CURVE",
"435 -4 OFFCURVE",
"438 0 OFFCURVE",
"442 2 CURVE",
"443 14 OFFCURVE",
"439 21 OFFCURVE",
"441 34 CURVE",
"437 40 OFFCURVE",
"429 42 OFFCURVE",
"426 49 CURVE SMOOTH",
"424 54 OFFCURVE",
"424 60 OFFCURVE",
"423 65 CURVE",
"417 72 OFFCURVE",
"413 83 OFFCURVE",
"406 89 CURVE",
"398 104 OFFCURVE",
"387 117 OFFCURVE",
"381 133 CURVE",
"379 139 OFFCURVE",
"380 150 OFFCURVE",
"378 157 CURVE",
"373 166 OFFCURVE",
"364 172 OFFCURVE",
"357 180 CURVE",
"353 192 OFFCURVE",
"344 198 OFFCURVE",
"342 212 CURVE",
"334 220 OFFCURVE",
"331 233 OFFCURVE",
"323 240 CURVE",
"323 245 OFFCURVE",
"321 248 OFFCURVE",
"320 251 CURVE",
"308 264 OFFCURVE",
"300 282 OFFCURVE",
"290 297 CURVE",
"283 318 OFFCURVE",
"270 333 OFFCURVE",
"266 356 CURVE",
"271 368 OFFCURVE",
"278 377 OFFCURVE",
"285 387 CURVE SMOOTH",
"292 397 OFFCURVE",
"298 411 OFFCURVE",
"307 419 CURVE",
"310 436 OFFCURVE",
"323 444 OFFCURVE",
"328 461 CURVE",
"334 465 OFFCURVE",
"338 473 OFFCURVE",
"344 478 CURVE",
"343 485 OFFCURVE",
"347 487 OFFCURVE",
"347 494 CURVE",
"352 498 OFFCURVE",
"355 504 OFFCURVE",
"358 510 CURVE SMOOTH",
"361 516 OFFCURVE",
"364 527 OFFCURVE",
"367 530 CURVE",
"369 531 OFFCURVE",
"368 532 OFFCURVE",
"369 533 CURVE",
"373 540 OFFCURVE",
"380 544 OFFCURVE",
"385 551 CURVE",
"386 559 OFFCURVE",
"392 564 OFFCURVE",
"393 574 CURVE",
"395 579 OFFCURVE",
"398 584 OFFCURVE",
"402 588 CURVE",
"404 602 OFFCURVE",
"412 609 OFFCURVE",
"415 622 CURVE",
"420 628 OFFCURVE",
"426 634 OFFCURVE",
"427 644 CURVE",
"434 651 OFFCURVE",
"443 657 OFFCURVE",
"441 674 CURVE",
"439 675 OFFCURVE",
"438 677 OFFCURVE",
"438 680 CURVE",
"426 688 OFFCURVE",
"405 688 OFFCURVE",
"388 683 CURVE",
"382 674 OFFCURVE",
"378 664 OFFCURVE",
"370 658 CURVE",
"371 651 OFFCURVE",
"366 649 OFFCURVE",
"367 642 CURVE",
"351 617 OFFCURVE",
"340 588 OFFCURVE",
"320 566 CURVE",
"317 550 OFFCURVE",
"310 538 OFFCURVE",
"306 524 CURVE",
"302 519 OFFCURVE",
"298 514 OFFCURVE",
"293 510 CURVE",
"290 498 OFFCURVE",
"283 489 OFFCURVE",
"276 482 CURVE",
"272 470 OFFCURVE",
"265 461 OFFCURVE",
"263 447 CURVE",
"256 438 OFFCURVE",
"255 423 OFFCURVE",
"243 419 CURVE",
"229 419 LINE"
);
}
);
width = 478;
}
);
unicode = 0058;
},
{
glyphname = Y;
layers = (
{
layerId = "C5490108-C233-4ADF-8B6D-CFE8E3B23812";
paths = (
{
closed = 1;
nodes = (
"470 585 OFFCURVE",
"475 587 OFFCURVE",
"474 594 CURVE",
"483 599 OFFCURVE",
"487 609 OFFCURVE",
"490 621 CURVE",
"492 624 OFFCURVE",
"497 626 OFFCURVE",
"501 629 CURVE",
"501 639 OFFCURVE",
"507 642 OFFCURVE",
"510 649 CURVE",
"513 658 OFFCURVE",
"519 662 OFFCURVE",
"518 674 CURVE",
"512 686 OFFCURVE",
"501 692 OFFCURVE",
"486 695 CURVE",
"463 688 OFFCURVE",
"450 670 OFFCURVE",
"438 652 CURVE",
"437 632 OFFCURVE",
"424 624 OFFCURVE",
"422 605 CURVE",
"417 600 OFFCURVE",
"409 599 OFFCURVE",
"408 591 CURVE",
"406 587 OFFCURVE",
"403 583 OFFCURVE",
"403 577 CURVE",
"396 570 OFFCURVE",
"392 563 OFFCURVE",
"389 553 CURVE",
"375 538 LINE",
"372 530 OFFCURVE",
"369 522 OFFCURVE",
"365 516 CURVE",
"362 508 OFFCURVE",
"357 501 OFFCURVE",
"354 493 CURVE",
"347 479 OFFCURVE",
"337 467 OFFCURVE",
"332 451 CURVE",
"321 440 OFFCURVE",
"315 423 OFFCURVE",
"305 410 CURVE",
"299 394 OFFCURVE",
"292 380 OFFCURVE",
"283 369 CURVE",
"281 363 OFFCURVE",
"279 358 OFFCURVE",
"272 358 CURVE",
"266 359 OFFCURVE",
"262 363 OFFCURVE",
"259 367 CURVE",
"257 373 OFFCURVE",
"251 375 OFFCURVE",
"250 382 CURVE",
"248 390 OFFCURVE",
"253 394 OFFCURVE",
"250 400 CURVE",
"249 410 OFFCURVE",
"241 414 OFFCURVE",
"236 421 CURVE",
"233 428 OFFCURVE",
"228 432 OFFCURVE",
"225 438 CURVE",
"223 440 OFFCURVE",
"223 444 OFFCURVE",
"223 448 CURVE",
"215 457 OFFCURVE",
"210 468 OFFCURVE",
"203 478 CURVE",
"199 482 OFFCURVE",
"195 487 OFFCURVE",
"192 492 CURVE",
"188 498 OFFCURVE",
"187 504 OFFCURVE",
"182 509 CURVE SMOOTH",
"178 513 OFFCURVE",
"179 523 OFFCURVE",
"174 527 CURVE",
"172 532 OFFCURVE",
"169 538 OFFCURVE",
"165 542 CURVE",
"161 555 OFFCURVE",
"152 564 OFFCURVE",
"146 575 CURVE",
"142 587 OFFCURVE",
"137 596 OFFCURVE",
"130 605 CURVE",
"124 623 LINE",
"122 624 OFFCURVE",
"119 625 OFFCURVE",
"119 629 CURVE",
"116 634 OFFCURVE",
"109 637 OFFCURVE",
"105 644 CURVE",
"89 680 LINE",
"79 686 OFFCURVE",
"66 690 OFFCURVE",
"53 693 CURVE",
"42 688 OFFCURVE",
"29 687 OFFCURVE",
"26 675 CURVE",
"23 666 OFFCURVE",
"33 659 OFFCURVE",
"34 648 CURVE",
"43 640 OFFCURVE",
"48 628 OFFCURVE",
"56 618 CURVE",
"59 602 OFFCURVE",
"71 594 OFFCURVE",
"74 577 CURVE",
"78 574 OFFCURVE",
"83 571 OFFCURVE",
"85 565 CURVE SMOOTH",
"87 559 OFFCURVE",
"92 556 OFFCURVE",
"94 551 CURVE",
"100 540 OFFCURVE",
"107 531 OFFCURVE",
"111 517 CURVE",
"114 512 OFFCURVE",
"121 510 OFFCURVE",
"124 504 CURVE",
"127 491 OFFCURVE",
"136 485 OFFCURVE",
"141 475 CURVE",
"141 468 OFFCURVE",
"146 466 OFFCURVE",
"145 459 CURVE",
"155 450 OFFCURVE",
"163 437 OFFCURVE",
"170 424 CURVE",
"175 420 OFFCURVE",
"178 413 OFFCURVE",
"181 407 CURVE",
"183 400 OFFCURVE",
"190 396 OFFCURVE",
"193 389 CURVE",
"192 383 OFFCURVE",
"194 380 OFFCURVE",
"195 375 CURVE",
"197 368 OFFCURVE",
"207 368 OFFCURVE",
"209 359 CURVE SMOOTH",
"210 355 OFFCURVE",
"210 348 OFFCURVE",
"212 344 CURVE",
"223 328 LINE",
"227 323 OFFCURVE",
"234 321 OFFCURVE",
"236 314 CURVE",
"240 306 OFFCURVE",
"240 292 OFFCURVE",
"245 284 CURVE",
"246 264 OFFCURVE",
"248 249 OFFCURVE",
"248 232 CURVE",
"247 226 OFFCURVE",
"244 222 OFFCURVE",
"243 216 CURVE",
"246 201 OFFCURVE",
"246 184 OFFCURVE",
"248 169 CURVE",
"246 158 OFFCURVE",
"245 155 OFFCURVE",
"247 144 CURVE",
"242 136 OFFCURVE",
"244 121 OFFCURVE",
"240 112 CURVE",
"244 105 OFFCURVE",
"244 95 OFFCURVE",
"246 87 CURVE",
"237 72 OFFCURVE",
"245 51 OFFCURVE",
"248 35 CURVE",
"246 27 OFFCURVE",
"244 20 OFFCURVE",
"243 11 CURVE",
"246 9 OFFCURVE",
"248 2 OFFCURVE",
"249 0 CURVE",
"254 -5 OFFCURVE",
"270 -8 OFFCURVE",
"276 -8 CURVE",
"288 -7 OFFCURVE",
"297 2 OFFCURVE",
"306 5 CURVE",
"304 14 OFFCURVE",
"301 20 OFFCURVE",
"298 28 CURVE",
"297 57 OFFCURVE",
"295 85 OFFCURVE",
"295 114 CURVE",
"297 127 OFFCURVE",
"300 142 OFFCURVE",
"300 156 CURVE SMOOTH",
"300 179 OFFCURVE",
"293 202 OFFCURVE",
"300 224 CURVE",
"296 250 OFFCURVE",
"296 273 OFFCURVE",
"297 303 CURVE",
"303 319 OFFCURVE",
"320 322 OFFCURVE",
"327 336 CURVE",
"331 337 OFFCURVE",
"328 345 OFFCURVE",
"329 348 CURVE",
"333 353 OFFCURVE",
"336 360 OFFCURVE",
"341 364 CURVE",
"343 374 OFFCURVE",
"347 380 OFFCURVE",
"352 386 CURVE",
"355 395 OFFCURVE",
"361 401 OFFCURVE",
"367 407 CURVE",
"369 413 OFFCURVE",
"374 416 OFFCURVE",
"373 424 CURVE",
"386 432 OFFCURVE",
"390 449 OFFCURVE",
"401 457 CURVE",
"407 473 OFFCURVE",
"418 486 OFFCURVE",
"424 502 CURVE",
"432 517 OFFCURVE",
"441 531 OFFCURVE",
"450 543 CURVE",
"452 550 OFFCURVE",
"455 555 OFFCURVE",
"457 562 CURVE",
"471 578 LINE"
);
}
);
width = 537;
}
);
unicode = 0059;
},
{
glyphname = Z;
layers = (
{
layerId = "C5490108-C233-4ADF-8B6D-CFE8E3B23812";
paths = (
{
closed = 1;
nodes = (
"243 265 LINE",
"246 269 OFFCURVE",
"248 272 OFFCURVE",
"249 275 CURVE",
"253 276 LINE",
"255 281 OFFCURVE",
"255 287 OFFCURVE",
"257 292 CURVE",
"267 300 OFFCURVE",
"270 313 OFFCURVE",
"281 319 CURVE",
"284 337 OFFCURVE",
"301 341 OFFCURVE",
"303 360 CURVE",
"319 377 LINE",
"319 383 OFFCURVE",
"322 387 OFFCURVE",
"324 391 CURVE",
"326 396 OFFCURVE",
"327 402 OFFCURVE",
"331 406 CURVE",
"333 409 OFFCURVE",
"338 412 OFFCURVE",
"341 415 CURVE SMOOTH",
"343 417 OFFCURVE",
"343 419 OFFCURVE",
"344 421 CURVE",
"349 428 LINE",
"353 437 OFFCURVE",
"359 444 OFFCURVE",
"363 453 CURVE",
"368 461 OFFCURVE",
"377 466 OFFCURVE",
"381 475 CURVE",
"387 492 LINE",
"394 499 OFFCURVE",
"397 508 OFFCURVE",
"406 513 CURVE",
"407 520 OFFCURVE",
"410 527 OFFCURVE",
"414 532 CURVE",
"420 532 OFFCURVE",
"421 540 OFFCURVE",
"426 544 CURVE",
"430 560 LINE",
"434 565 OFFCURVE",
"439 571 OFFCURVE",
"445 575 CURVE",
"449 590 OFFCURVE",
"457 600 OFFCURVE",
"467 609 CURVE",
"469 619 OFFCURVE",
"475 625 OFFCURVE",
"477 635 CURVE",
"484 647 OFFCURVE",
"500 650 OFFCURVE",
"501 668 CURVE",
"500 678 OFFCURVE",
"493 682 OFFCURVE",
"488 687 CURVE",
"477 691 OFFCURVE",
"458 688 OFFCURVE",
"444 689 CURVE",
"437 690 OFFCURVE",
"435 693 OFFCURVE",
"427 694 CURVE",
"411 695 OFFCURVE",
"393 692 OFFCURVE",
"377 693 CURVE",
"371 693 OFFCURVE",
"364 694 OFFCURVE",
"358 694 CURVE SMOOTH",
"348 694 OFFCURVE",
"338 691 OFFCURVE",
"327 691 CURVE",
"313 690 OFFCURVE",
"300 693 OFFCURVE",
"286 693 CURVE SMOOTH",
"241 692 OFFCURVE",
"193 692 OFFCURVE",
"152 688 CURVE",
"121 687 OFFCURVE",
"91 692 OFFCURVE",
"62 688 CURVE",
"57 683 OFFCURVE",
"55 674 OFFCURVE",
"54 665 CURVE SMOOTH",
"53 652 OFFCURVE",
"58 647 OFFCURVE",
"62 639 CURVE",
"69 635 OFFCURVE",
"83 637 OFFCURVE",
"92 635 CURVE",
"107 630 OFFCURVE",
"127 628 OFFCURVE",
"143 631 CURVE",
"159 630 OFFCURVE",
"170 629 OFFCURVE",
"184 633 CURVE",
"193 629 OFFCURVE",
"206 631 OFFCURVE",
"212 631 CURVE SMOOTH",
"215 631 OFFCURVE",
"216 630 OFFCURVE",
"218 629 CURVE",
"223 629 OFFCURVE",
"227 628 OFFCURVE",
"231 628 CURVE SMOOTH",
"241 628 OFFCURVE",
"249 633 OFFCURVE",
"259 634 CURVE SMOOTH",
"283 637 OFFCURVE",
"307 634 OFFCURVE",
"333 634 CURVE",
"340 635 OFFCURVE",
"344 637 OFFCURVE",
"351 637 CURVE SMOOTH",
"362 637 OFFCURVE",
"372 638 OFFCURVE",
"382 639 CURVE",
"393 639 OFFCURVE",
"406 641 OFFCURVE",
"409 633 CURVE",
"405 618 OFFCURVE",
"393 607 OFFCURVE",
"387 596 CURVE",
"381 584 LINE",
"378 580 OFFCURVE",
"373 578 OFFCURVE",
"371 574 CURVE",
"365 555 OFFCURVE",
"355 540 OFFCURVE",
"341 529 CURVE",
"334 506 OFFCURVE",
"318 492 OFFCURVE",
"311 469 CURVE",
"301 461 OFFCURVE",
"296 447 OFFCURVE",
"288 437 CURVE",
"279 427 OFFCURVE",
"273 414 OFFCURVE",
"265 402 CURVE",
"263 396 OFFCURVE",
"259 391 OFFCURVE",
"254 387 CURVE",
"253 379 OFFCURVE",
"248 374 OFFCURVE",
"245 368 CURVE",
"236 358 OFFCURVE",
"232 343 OFFCURVE",
"221 336 CURVE",
"221 326 OFFCURVE",
"214 322 OFFCURVE",
"213 313 CURVE",
"208 307 OFFCURVE",
"203 301 OFFCURVE",
"199 295 CURVE SMOOTH",
"195 289 OFFCURVE",
"192 283 OFFCURVE",
"190 278 CURVE",
"186 276 LINE",
"180 267 LINE",
"174 254 LINE",
"169 249 OFFCURVE",
"165 243 OFFCURVE",
"163 237 CURVE",
"158 235 OFFCURVE",
"159 227 OFFCURVE",
"155 224 CURVE",
"150 222 OFFCURVE",
"147 217 OFFCURVE",
"145 212 CURVE",
"142 207 OFFCURVE",
"141 200 OFFCURVE",
"139 194 CURVE",
"123 177 OFFCURVE",
"109 155 OFFCURVE",
"97 132 CURVE",
"89 126 OFFCURVE",
"85 117 OFFCURVE",
"82 111 CURVE",
"79 106 OFFCURVE",
"75 104 OFFCURVE",
"72 100 CURVE SMOOTH",
"68 95 OFFCURVE",
"66 88 OFFCURVE",
"63 83 CURVE",
"60 77 OFFCURVE",
"55 72 OFFCURVE",
"52 67 CURVE SMOOTH",
"48 60 OFFCURVE",
"49 52 OFFCURVE",
"44 45 CURVE",
"40 37 OFFCURVE",
"28 37 OFFCURVE",
"25 28 CURVE SMOOTH",
"23 22 OFFCURVE",
"21 17 OFFCURVE",
"20 10 CURVE",
"25 0 OFFCURVE",
"34 -4 OFFCURVE",
"46 -5 CURVE",
"48 -6 OFFCURVE",
"50 -4 OFFCURVE",
"54 -4 CURVE SMOOTH",
"56 -4 OFFCURVE",
"60 -5 OFFCURVE",
"63 -5 CURVE",
"89 -6 OFFCURVE",
"106 -2 OFFCURVE",
"128 -2 CURVE SMOOTH",
"131 -2 OFFCURVE",
"133 -4 OFFCURVE",
"137 -4 CURVE SMOOTH",
"141 -4 OFFCURVE",
"145 -3 OFFCURVE",
"148 -3 CURVE",
"172 -4 OFFCURVE",
"192 -3 OFFCURVE",
"214 -3 CURVE",
"252 -1 OFFCURVE",
"292 -6 OFFCURVE",
"323 -4 CURVE",
"339 -8 OFFCURVE",
"357 -4 OFFCURVE",
"374 -9 CURVE",
"379 -8 OFFCURVE",
"382 -5 OFFCURVE",
"388 -4 CURVE",
"424 -6 OFFCURVE",
"472 -12 OFFCURVE",
"495 8 CURVE",
"505 30 OFFCURVE",
"499 58 OFFCURVE",
"478 60 CURVE",
"465 62 OFFCURVE",
"461 54 OFFCURVE",
"451 54 CURVE",
"403 56 OFFCURVE",
"359 55 OFFCURVE",
"312 59 CURVE",
"300 54 OFFCURVE",
"283 53 OFFCURVE",
"268 56 CURVE",
"260 57 OFFCURVE",
"259 51 OFFCURVE",
"251 53 CURVE",
"241 55 OFFCURVE",
"229 55 OFFCURVE",
"219 57 CURVE",
"212 53 OFFCURVE",
"202 56 OFFCURVE",
"194 54 CURVE",
"191 53 OFFCURVE",
"190 51 OFFCURVE",
"186 51 CURVE",
"169 49 OFFCURVE",
"151 51 OFFCURVE",
"134 49 CURVE",
"127 50 OFFCURVE",
"122 48 OFFCURVE",
"115 48 CURVE",
"111 52 OFFCURVE",
"105 55 OFFCURVE",
"104 62 CURVE",
"106 75 OFFCURVE",
"115 81 OFFCURVE",
"121 89 CURVE",
"126 100 OFFCURVE",
"135 104 OFFCURVE",
"139 116 CURVE",
"145 117 OFFCURVE",
"151 121 OFFCURVE",
"152 128 CURVE",
"158 132 OFFCURVE",
"162 138 OFFCURVE",
"166 142 CURVE",
"169 157 OFFCURVE",
"181 163 OFFCURVE",
"185 177 CURVE",
"191 181 OFFCURVE",
"195 187 OFFCURVE",
"201 191 CURVE",
"202 200 OFFCURVE",
"209 208 OFFCURVE",
"212 213 CURVE",
"214 218 OFFCURVE",
"216 224 OFFCURVE",
"218 227 CURVE SMOOTH",
"222 233 OFFCURVE",
"228 237 OFFCURVE",
"232 243 CURVE",
"233 245 OFFCURVE",
"233 247 OFFCURVE",
"234 248 CURVE",
"238 256 LINE"
);
}
);
width = 550;
}
);
unicode = 005A;
},
{
glyphname = bracketleft;
layers = (
{
layerId = "C5490108-C233-4ADF-8B6D-CFE8E3B23812";
paths = (
{
closed = 1;
nodes = (
"152 175 OFFCURVE",
"153 183 OFFCURVE",
"152 192 CURVE",
"152 199 OFFCURVE",
"153 207 OFFCURVE",
"153 213 CURVE SMOOTH",
"153 227 OFFCURVE",
"152 243 OFFCURVE",
"152 258 CURVE SMOOTH",
"152 317 LINE",
"151 356 OFFCURVE",
"151 391 OFFCURVE",
"152 424 CURVE SMOOTH",
"152 438 OFFCURVE",
"150 451 OFFCURVE",
"150 464 CURVE SMOOTH",
"151 501 OFFCURVE",
"150 538 OFFCURVE",
"150 572 CURVE SMOOTH",
"150 581 OFFCURVE",
"149 589 OFFCURVE",
"154 597 CURVE",
"170 597 OFFCURVE",
"183 594 OFFCURVE",
"195 591 CURVE",
"210 592 OFFCURVE",
"224 593 OFFCURVE",
"229 604 CURVE",
"228 611 OFFCURVE",
"228 618 OFFCURVE",
"228 626 CURVE",
"226 645 LINE",
"218 651 OFFCURVE",
"202 651 OFFCURVE",
"191 648 CURVE",
"170 649 OFFCURVE",
"148 649 OFFCURVE",
"129 648 CURVE",
"118 648 OFFCURVE",
"106 649 OFFCURVE",
"99 642 CURVE",
"99 624 OFFCURVE",
"97 600 OFFCURVE",
"101 580 CURVE",
"99 502 LINE SMOOTH",
"99 500 OFFCURVE",
"101 498 OFFCURVE",
"101 496 CURVE SMOOTH",
"101 492 OFFCURVE",
"99 491 OFFCURVE",
"99 487 CURVE",
"100 477 OFFCURVE",
"100 467 OFFCURVE",
"102 459 CURVE",
"100 455 OFFCURVE",
"101 450 OFFCURVE",
"99 446 CURVE",
"103 431 OFFCURVE",
"101 414 OFFCURVE",
"101 397 CURVE",
"100 377 OFFCURVE",
"103 356 OFFCURVE",
"99 341 CURVE",
"103 317 OFFCURVE",
"100 295 OFFCURVE",
"101 272 CURVE",
"101 241 LINE SMOOTH",
"101 239 OFFCURVE",
"102 237 OFFCURVE",
"102 235 CURVE SMOOTH",
"101 192 OFFCURVE",
"101 147 OFFCURVE",
"101 101 CURVE SMOOTH",
"101 95 OFFCURVE",
"99 93 OFFCURVE",
"98 90 CURVE",
"101 77 OFFCURVE",
"100 62 OFFCURVE",
"99 49 CURVE",
"101 43 OFFCURVE",
"103 39 OFFCURVE",
"102 32 CURVE",
"105 23 OFFCURVE",
"94 23 OFFCURVE",
"98 16 CURVE",
"101 9 OFFCURVE",
"108 5 OFFCURVE",
"118 5 CURVE SMOOTH",
"125 5 OFFCURVE",
"135 3 OFFCURVE",
"145 4 CURVE",
"150 5 OFFCURVE",
"158 5 OFFCURVE",
"164 5 CURVE",
"165 2 OFFCURVE",
"166 5 OFFCURVE",
"168 5 CURVE SMOOTH",
"176 5 OFFCURVE",
"187 5 OFFCURVE",
"195 2 CURVE",
"205 5 OFFCURVE",
"213 4 OFFCURVE",
"223 7 CURVE",
"232 12 OFFCURVE",
"230 23 OFFCURVE",
"229 35 CURVE",
"229 43 OFFCURVE",
"231 51 OFFCURVE",
"227 56 CURVE",
"221 62 OFFCURVE",
"210 62 OFFCURVE",
"199 59 CURVE",
"190 60 OFFCURVE",
"178 58 OFFCURVE",
"170 61 CURVE",
"165 58 OFFCURVE",
"157 56 OFFCURVE",
"153 58 CURVE",
"149 76 OFFCURVE",
"153 94 OFFCURVE",
"153 112 CURVE SMOOTH",
"153 118 OFFCURVE",
"152 124 OFFCURVE",
"152 131 CURVE SMOOTH",
"152 140 OFFCURVE",
"153 149 OFFCURVE",
"152 155 CURVE",
"152 165 LINE SMOOTH"
);
}
);
width = 307;
}
);
unicode = 005B;
},
{
glyphname = backslash;
layers = (
{
layerId = "C5490108-C233-4ADF-8B6D-CFE8E3B23812";
paths = (
{
closed = 1;
nodes = (
"157 431 OFFCURVE",
"149 453 OFFCURVE",
"139 473 CURVE",
"138 484 OFFCURVE",
"129 497 OFFCURVE",
"123 508 CURVE",
"122 510 OFFCURVE",
"124 510 OFFCURVE",
"123 512 CURVE SMOOTH",
"116 527 OFFCURVE",
"109 541 OFFCURVE",
"106 555 CURVE",
"103 562 OFFCURVE",
"98 565 OFFCURVE",
"95 572 CURVE",
"73 630 OFFCURVE",
"97 568 OFFCURVE",
"72 626 CURVE SMOOTH",
"69 633 OFFCURVE",
"71 642 OFFCURVE",
"66 647 CURVE",
"63 653 OFFCURVE",
"66 661 OFFCURVE",
"58 667 CURVE",
"46 683 OFFCURVE",
"45 682 OFFCURVE",
"24 683 CURVE SMOOTH",
"4 684 OFFCURVE",
"10 681 OFFCURVE",
"9 666 CURVE",
"13 657 OFFCURVE",
"19 650 OFFCURVE",
"24 642 CURVE",
"27 631 OFFCURVE",
"33 619 OFFCURVE",
"40 608 CURVE",
"50 580 OFFCURVE",
"82 524 OFFCURVE",
"94 487 CURVE",
"110 451 OFFCURVE",
"136 403 OFFCURVE",
"146 366 CURVE",
"156 350 OFFCURVE",
"158 333 OFFCURVE",
"170 317 CURVE",
"172 301 OFFCURVE",
"185 285 OFFCURVE",
"189 268 CURVE SMOOTH",
"192 253 LINE",
"203 243 OFFCURVE",
"233 166 OFFCURVE",
"239 153 CURVE SMOOTH",
"245 141 OFFCURVE",
"249 130 OFFCURVE",
"255 117 CURVE",
"261 102 LINE",
"273 78 OFFCURVE",
"288 41 OFFCURVE",
"298 14 CURVE",
"305 -3 OFFCURVE",
"313 -19 OFFCURVE",
"318 -36 CURVE",
"332 -73 OFFCURVE",
"329 -97 OFFCURVE",
"375 -82 CURVE",
"381 -74 OFFCURVE",
"371 -53 OFFCURVE",
"361 -40 CURVE",
"350 -13 OFFCURVE",
"341 6 OFFCURVE",
"336 29 CURVE",
"333 39 OFFCURVE",
"326 40 OFFCURVE",
"323 48 CURVE",
"300 100 OFFCURVE",
"278 142 OFFCURVE",
"262 190 CURVE",
"262 192 OFFCURVE",
"254 200 OFFCURVE",
"257 202 CURVE",
"259 205 OFFCURVE",
"229 269 OFFCURVE",
"229 269 CURVE",
"218 285 OFFCURVE",
"213 301 OFFCURVE",
"206 319 CURVE SMOOTH",
"200 333 OFFCURVE",
"196 349 OFFCURVE",
"187 366 CURVE SMOOTH",
"184 372 OFFCURVE",
"178 380 OFFCURVE",
"175 386 CURVE",
"167 408 LINE"
);
}
);
width = 390;
}
);
unicode = 005C;
},
{
glyphname = bracketright;
layers = (
{
layerId = "C5490108-C233-4ADF-8B6D-CFE8E3B23812";
paths = (
{
closed = 1;
nodes = (
"166 48 OFFCURVE",
"168 71 OFFCURVE",
"168 93 CURVE SMOOTH",
"168 109 OFFCURVE",
"167 126 OFFCURVE",
"167 142 CURVE SMOOTH",
"167 151 OFFCURVE",
"168 159 OFFCURVE",
"168 167 CURVE SMOOTH",
"168 176 OFFCURVE",
"167 185 OFFCURVE",
"167 194 CURVE SMOOTH",
"167 250 OFFCURVE",
"165 329 OFFCURVE",
"167 387 CURVE SMOOTH",
"167 393 LINE",
"166 408 OFFCURVE",
"165 430 OFFCURVE",
"165 448 CURVE SMOOTH",
"165 465 OFFCURVE",
"167 484 OFFCURVE",
"167 500 CURVE",
"166 542 OFFCURVE",
"164 583 OFFCURVE",
"168 623 CURVE",
"168 630 OFFCURVE",
"170 646 OFFCURVE",
"164 652 CURVE",
"161 653 OFFCURVE",
"157 656 OFFCURVE",
"151 655 CURVE SMOOTH",
"145 654 OFFCURVE",
"141 656 OFFCURVE",
"137 657 CURVE",
"134 656 OFFCURVE",
"131 654 OFFCURVE",
"127 655 CURVE",
"122 656 OFFCURVE",
"117 657 OFFCURVE",
"111 657 CURVE",
"105 656 OFFCURVE",
"97 654 OFFCURVE",
"89 654 CURVE SMOOTH",
"83 654 OFFCURVE",
"78 655 OFFCURVE",
"74 657 CURVE",
"64 655 OFFCURVE",
"49 658 OFFCURVE",
"41 652 CURVE",
"36 645 OFFCURVE",
"37 632 OFFCURVE",
"35 620 CURVE",
"38 615 OFFCURVE",
"38 605 OFFCURVE",
"43 602 CURVE",
"49 599 OFFCURVE",
"54 596 OFFCURVE",
"62 597 CURVE",
"69 599 OFFCURVE",
"77 597 OFFCURVE",
"83 598 CURVE",
"90 601 OFFCURVE",
"107 600 OFFCURVE",
"114 600 CURVE",
"111 587 OFFCURVE",
"114 575 OFFCURVE",
"114 564 CURVE SMOOTH",
"114 556 OFFCURVE",
"112 551 OFFCURVE",
"113 543 CURVE",
"113 538 OFFCURVE",
"114 534 OFFCURVE",
"115 529 CURVE",
"115 523 OFFCURVE",
"114 516 OFFCURVE",
"114 509 CURVE SMOOTH",
"114 502 OFFCURVE",
"115 496 OFFCURVE",
"115 489 CURVE SMOOTH",
"115 475 OFFCURVE",
"114 462 OFFCURVE",
"114 449 CURVE SMOOTH",
"114 440 OFFCURVE",
"115 433 OFFCURVE",
"115 425 CURVE SMOOTH",
"115 416 OFFCURVE",
"114 408 OFFCURVE",
"114 399 CURVE SMOOTH",
"114 389 OFFCURVE",
"116 379 OFFCURVE",
"116 369 CURVE SMOOTH",
"116 359 OFFCURVE",
"115 348 OFFCURVE",
"115 336 CURVE",
"114 319 OFFCURVE",
"114 300 OFFCURVE",
"114 280 CURVE SMOOTH",
"114 272 OFFCURVE",
"115 263 OFFCURVE",
"115 255 CURVE SMOOTH",
"115 229 OFFCURVE",
"113 205 OFFCURVE",
"116 184 CURVE",
"115 178 OFFCURVE",
"112 175 OFFCURVE",
"113 167 CURVE",
"119 139 OFFCURVE",
"113 106 OFFCURVE",
"116 76 CURVE",
"117 70 OFFCURVE",
"116 65 OFFCURVE",
"111 63 CURVE",
"101 62 OFFCURVE",
"97 66 OFFCURVE",
"89 67 CURVE",
"75 65 OFFCURVE",
"63 71 OFFCURVE",
"49 67 CURVE",
"45 64 OFFCURVE",
"40 61 OFFCURVE",
"38 57 CURVE",
"38 48 OFFCURVE",
"35 33 OFFCURVE",
"38 21 CURVE",
"38 17 OFFCURVE",
"38 12 OFFCURVE",
"40 10 CURVE",
"43 4 OFFCURVE",
"53 4 OFFCURVE",
"58 0 CURVE",
"87 2 OFFCURVE",
"117 7 OFFCURVE",
"143 3 CURVE",
"148 5 OFFCURVE",
"153 7 OFFCURVE",
"159 8 CURVE",
"164 10 OFFCURVE",
"168 14 OFFCURVE",
"171 18 CURVE",
"171 29 LINE"
);
}
);
width = 265;
}
);
unicode = 005D;
},
{
glyphname = a;
layers = (
{
layerId = "C5490108-C233-4ADF-8B6D-CFE8E3B23812";
paths = (
{
closed = 1;
nodes = (
"419 2 OFFCURVE",
"428 0 CURVE",
"435 4 OFFCURVE",
"444 6 OFFCURVE",
"447 14 CURVE",
"453 26 OFFCURVE",
"448 44 OFFCURVE",
"450 55 CURVE",
"446 62 OFFCURVE",
"446 74 OFFCURVE",
"444 83 CURVE",
"448 98 OFFCURVE",
"446 112 OFFCURVE",
"446 129 CURVE",
"445 137 OFFCURVE",
"450 139 OFFCURVE",
"449 146 CURVE SMOOTH",
"442 199 OFFCURVE",
"446 251 OFFCURVE",
"442 306 CURVE",
"447 321 OFFCURVE",
"447 344 OFFCURVE",
"444 359 CURVE",
"446 363 OFFCURVE",
"446 370 OFFCURVE",
"447 375 CURVE",
"444 391 OFFCURVE",
"447 414 OFFCURVE",
"441 427 CURVE",
"432 434 OFFCURVE",
"409 437 OFFCURVE",
"401 427 CURVE",
"399 420 OFFCURVE",
"402 410 OFFCURVE",
"401 400 CURVE",
"401 389 OFFCURVE",
"401 374 OFFCURVE",
"395 369 CURVE",
"380 373 OFFCURVE",
"376 390 OFFCURVE",
"367 402 CURVE",
"356 405 OFFCURVE",
"348 411 OFFCURVE",
"340 416 CURVE",
"332 422 OFFCURVE",
"321 425 OFFCURVE",
"313 432 CURVE",
"300 431 OFFCURVE",
"290 434 OFFCURVE",
"280 436 CURVE",
"242 440 OFFCURVE",
"198 440 OFFCURVE",
"168 427 CURVE",
"159 426 OFFCURVE",
"151 423 OFFCURVE",
"143 421 CURVE",
"128 408 OFFCURVE",
"114 395 OFFCURVE",
"97 384 CURVE",
"89 375 OFFCURVE",
"80 366 OFFCURVE",
"74 354 CURVE",
"65 345 OFFCURVE",
"61 331 OFFCURVE",
"52 321 CURVE",
"47 294 OFFCURVE",
"36 271 OFFCURVE",
"37 238 CURVE",
"35 232 OFFCURVE",
"35 224 OFFCURVE",
"33 217 CURVE",
"36 207 OFFCURVE",
"34 195 OFFCURVE",
"34 183 CURVE",
"35 169 OFFCURVE",
"37 156 OFFCURVE",
"34 143 CURVE",
"36 134 OFFCURVE",
"45 132 OFFCURVE",
"47 123 CURVE",
"49 103 OFFCURVE",
"60 92 OFFCURVE",
"64 74 CURVE",
"70 66 OFFCURVE",
"77 59 OFFCURVE",
"83 52 CURVE",
"88 43 OFFCURVE",
"99 39 OFFCURVE",
"104 30 CURVE",
"107 27 OFFCURVE",
"115 28 OFFCURVE",
"116 23 CURVE",
"120 21 OFFCURVE",
"122 17 OFFCURVE",
"126 14 CURVE",
"134 14 OFFCURVE",
"137 9 OFFCURVE",
"143 8 CURVE",
"146 2 OFFCURVE",
"157 5 OFFCURVE",
"160 0 CURVE",
"173 1 OFFCURVE",
"181 -3 OFFCURVE",
"190 -5 CURVE",
"203 -4 OFFCURVE",
"213 -6 OFFCURVE",
"222 -10 CURVE",
"230 -5 OFFCURVE",
"237 -8 OFFCURVE",
"245 -10 CURVE",
"264 -4 OFFCURVE",
"290 -6 OFFCURVE",
"308 0 CURVE",
"317 4 OFFCURVE",
"324 9 OFFCURVE",
"332 14 CURVE",
"337 16 OFFCURVE",
"343 15 OFFCURVE",
"348 17 CURVE",
"357 23 OFFCURVE",
"364 30 OFFCURVE",
"373 36 CURVE",
"382 46 OFFCURVE",
"386 62 OFFCURVE",
"403 64 CURVE",
"407 48 OFFCURVE",
"400 22 OFFCURVE",
"401 8 CURVE",
"408 2 OFFCURVE"
);
},
{
closed = 1;
nodes = (
"136 82 OFFCURVE",
"134 82 OFFCURVE",
"132 83 CURVE",
"124 89 OFFCURVE",
"116 100 OFFCURVE",
"107 107 CURVE",
"103 117 OFFCURVE",
"99 126 OFFCURVE",
"93 134 CURVE",
"91 143 OFFCURVE",
"89 151 OFFCURVE",
"85 157 CURVE",
"84 172 OFFCURVE",
"82 183 OFFCURVE",
"80 197 CURVE",
"75 223 OFFCURVE",
"88 250 OFFCURVE",
"91 277 CURVE",
"98 289 OFFCURVE",
"105 299 OFFCURVE",
"108 315 CURVE",
"114 321 OFFCURVE",
"122 326 OFFCURVE",
"124 336 CURVE",
"134 341 OFFCURVE",
"141 349 OFFCURVE",
"148 358 CURVE",
"162 363 OFFCURVE",
"172 372 OFFCURVE",
"184 380 CURVE",
"189 380 OFFCURVE",
"194 382 OFFCURVE",
"201 381 CURVE",
"210 383 OFFCURVE",
"214 390 OFFCURVE",
"223 392 CURVE",
"247 388 OFFCURVE",
"284 397 OFFCURVE",
"296 381 CURVE",
"305 382 OFFCURVE",
"310 380 OFFCURVE",
"316 378 CURVE",
"323 377 OFFCURVE",
"323 371 OFFCURVE",
"329 370 CURVE",
"332 367 OFFCURVE",
"338 366 OFFCURVE",
"343 364 CURVE",
"368 340 LINE",
"369 334 OFFCURVE",
"376 333 OFFCURVE",
"376 326 CURVE",
"379 321 OFFCURVE",
"383 318 OFFCURVE",
"386 313 CURVE",
"388 303 OFFCURVE",
"392 293 OFFCURVE",
"398 287 CURVE",
"399 273 OFFCURVE",
"403 264 OFFCURVE",
"406 254 CURVE",
"407 219 OFFCURVE",
"406 193 OFFCURVE",
"403 162 CURVE",
"401 149 OFFCURVE",
"393 141 OFFCURVE",
"392 127 CURVE",
"386 122 OFFCURVE",
"382 114 OFFCURVE",
"379 105 CURVE",
"366 91 OFFCURVE",
"350 80 OFFCURVE",
"337 66 CURVE",
"327 64 OFFCURVE",
"320 59 OFFCURVE",
"313 53 CURVE",
"305 53 OFFCURVE",
"300 51 OFFCURVE",
"296 47 CURVE",
"287 48 OFFCURVE",
"281 46 OFFCURVE",
"274 44 CURVE",
"248 44 OFFCURVE",
"226 41 OFFCURVE",
"203 45 CURVE",
"182 51 OFFCURVE",
"164 59 OFFCURVE",
"149 71 CURVE SMOOTH",
"138 80 LINE"
);
}
);
width = 486;
}
);
unicode = 0061;
},
{
glyphname = b;
layers = (
{
layerId = "C5490108-C233-4ADF-8B6D-CFE8E3B23812";
paths = (
{
closed = 1;
nodes = (
"317 438 OFFCURVE",
"303 444 OFFCURVE",
"288 444 CURVE",
"281 445 OFFCURVE",
"274 443 OFFCURVE",
"266 443 CURVE SMOOTH",
"259 443 OFFCURVE",
"252 445 OFFCURVE",
"246 444 CURVE",
"230 444 OFFCURVE",
"215 438 OFFCURVE",
"200 436 CURVE",
"192 432 OFFCURVE",
"186 425 OFFCURVE",
"173 425 CURVE",
"169 420 OFFCURVE",
"167 413 OFFCURVE",
"159 411 CURVE",
"143 397 LINE",
"137 394 OFFCURVE",
"135 386 OFFCURVE",
"127 384 CURVE",
"122 380 OFFCURVE",
"120 371 OFFCURVE",
"110 372 CURVE",
"97 396 OFFCURVE",
"109 435 OFFCURVE",
"104 468 CURVE",
"106 476 OFFCURVE",
"108 485 OFFCURVE",
"109 495 CURVE",
"103 513 OFFCURVE",
"111 533 OFFCURVE",
"104 553 CURVE",
"109 567 OFFCURVE",
"107 585 OFFCURVE",
"107 597 CURVE SMOOTH",
"107 602 OFFCURVE",
"109 606 OFFCURVE",
"109 610 CURVE",
"107 661 OFFCURVE",
"107 713 OFFCURVE",
"107 760 CURVE SMOOTH",
"107 769 OFFCURVE",
"112 780 OFFCURVE",
"104 788 CURVE",
"88 793 OFFCURVE",
"71 786 OFFCURVE",
"61 780 CURVE",
"55 767 OFFCURVE",
"54 737 OFFCURVE",
"60 722 CURVE",
"55 708 OFFCURVE",
"61 693 OFFCURVE",
"61 678 CURVE SMOOTH",
"61 672 OFFCURVE",
"60 666 OFFCURVE",
"60 660 CURVE",
"58 637 OFFCURVE",
"64 612 OFFCURVE",
"58 596 CURVE",
"64 568 OFFCURVE",
"57 533 OFFCURVE",
"61 503 CURVE",
"63 495 OFFCURVE",
"57 495 OFFCURVE",
"58 487 CURVE",
"67 472 OFFCURVE",
"60 451 OFFCURVE",
"61 430 CURVE",
"62 419 OFFCURVE",
"65 408 OFFCURVE",
"64 399 CURVE",
"64 391 OFFCURVE",
"60 384 OFFCURVE",
"60 378 CURVE",
"62 372 OFFCURVE",
"63 364 OFFCURVE",
"64 358 CURVE",
"60 326 OFFCURVE",
"64 295 OFFCURVE",
"61 266 CURVE",
"62 259 OFFCURVE",
"66 254 OFFCURVE",
"66 246 CURVE",
"59 218 OFFCURVE",
"68 188 OFFCURVE",
"61 162 CURVE",
"67 139 OFFCURVE",
"63 108 OFFCURVE",
"66 85 CURVE",
"62 77 OFFCURVE",
"61 67 OFFCURVE",
"60 57 CURVE",
"60 48 OFFCURVE",
"67 46 OFFCURVE",
"68 38 CURVE",
"66 29 OFFCURVE",
"62 17 OFFCURVE",
"66 8 CURVE",
"72 0 OFFCURVE",
"91 0 OFFCURVE",
"101 4 CURVE",
"103 7 OFFCURVE",
"111 5 OFFCURVE",
"110 11 CURVE",
"116 15 OFFCURVE",
"111 29 OFFCURVE",
"110 36 CURVE",
"115 44 OFFCURVE",
"106 57 OFFCURVE",
"112 64 CURVE",
"123 62 OFFCURVE",
"127 52 OFFCURVE",
"132 44 CURVE",
"144 38 OFFCURVE",
"152 28 OFFCURVE",
"161 19 CURVE",
"170 17 OFFCURVE",
"176 11 OFFCURVE",
"184 8 CURVE",
"186 3 OFFCURVE",
"191 11 OFFCURVE",
"194 6 CURVE",
"197 5 OFFCURVE",
"197 0 OFFCURVE",
"203 1 CURVE",
"238 3 OFFCURVE",
"274 -2 OFFCURVE",
"310 3 CURVE",
"318 7 OFFCURVE",
"327 9 OFFCURVE",
"339 8 CURVE",
"349 16 OFFCURVE",
"362 15 OFFCURVE",
"373 20 CURVE",
"385 26 OFFCURVE",
"392 38 OFFCURVE",
"403 44 CURVE",
"407 49 OFFCURVE",
"412 53 OFFCURVE",
"417 57 CURVE",
"423 61 OFFCURVE",
"425 67 OFFCURVE",
"433 69 CURVE",
"435 75 OFFCURVE",
"438 79 OFFCURVE",
"443 82 CURVE",
"445 89 OFFCURVE",
"448 97 OFFCURVE",
"454 101 CURVE",
"452 114 OFFCURVE",
"459 118 OFFCURVE",
"462 127 CURVE",
"461 139 OFFCURVE",
"466 143 OFFCURVE",
"463 153 CURVE",
"470 166 OFFCURVE",
"472 185 OFFCURVE",
"471 206 CURVE",
"465 219 OFFCURVE",
"468 232 OFFCURVE",
"468 250 CURVE",
"464 265 OFFCURVE",
"463 274 OFFCURVE",
"463 291 CURVE",
"458 307 OFFCURVE",
"455 323 OFFCURVE",
"449 337 CURVE",
"443 341 OFFCURVE",
"442 350 OFFCURVE",
"438 356 CURVE",
"433 361 OFFCURVE",
"429 367 OFFCURVE",
"425 373 CURVE",
"418 379 OFFCURVE",
"411 386 OFFCURVE",
"405 394 CURVE",
"395 401 OFFCURVE",
"383 406 OFFCURVE",
"376 416 CURVE",
"331 438 LINE"
);
},
{
closed = 1;
nodes = (
"103 225 OFFCURVE",
"105 248 OFFCURVE",
"110 268 CURVE",
"110 283 OFFCURVE",
"117 292 OFFCURVE",
"118 306 CURVE",
"126 317 OFFCURVE",
"136 326 OFFCURVE",
"142 340 CURVE",
"181 367 LINE",
"192 377 OFFCURVE",
"210 381 OFFCURVE",
"225 388 CURVE",
"257 388 LINE",
"265 386 OFFCURVE",
"265 393 OFFCURVE",
"272 392 CURVE",
"286 391 OFFCURVE",
"301 390 OFFCURVE",
"313 388 CURVE",
"330 379 OFFCURVE",
"349 371 OFFCURVE",
"364 361 CURVE",
"367 355 OFFCURVE",
"373 351 OFFCURVE",
"375 343 CURVE",
"380 339 OFFCURVE",
"387 337 OFFCURVE",
"392 332 CURVE",
"400 317 OFFCURVE",
"407 301 OFFCURVE",
"416 287 CURVE",
"413 263 OFFCURVE",
"425 253 OFFCURVE",
"425 233 CURVE",
"427 233 OFFCURVE",
"427 232 OFFCURVE",
"427 231 CURVE",
"425 200 OFFCURVE",
"419 173 OFFCURVE",
"414 145 CURVE",
"408 135 OFFCURVE",
"401 126 OFFCURVE",
"399 113 CURVE",
"388 105 OFFCURVE",
"380 95 OFFCURVE",
"369 88 CURVE",
"364 84 OFFCURVE",
"362 76 OFFCURVE",
"358 72 CURVE",
"349 68 OFFCURVE",
"339 66 OFFCURVE",
"332 60 CURVE",
"318 60 OFFCURVE",
"303 51 OFFCURVE",
"287 50 CURVE",
"279 50 OFFCURVE",
"271 52 OFFCURVE",
"263 52 CURVE SMOOTH",
"254 52 OFFCURVE",
"246 50 OFFCURVE",
"238 50 CURVE",
"217 52 OFFCURVE",
"200 62 OFFCURVE",
"184 68 CURVE",
"178 69 OFFCURVE",
"175 74 OFFCURVE",
"172 77 CURVE",
"162 80 OFFCURVE",
"159 91 OFFCURVE",
"151 96 CURVE",
"147 99 OFFCURVE",
"140 99 OFFCURVE",
"135 104 CURVE",
"133 113 OFFCURVE",
"129 120 OFFCURVE",
"123 126 CURVE",
"122 140 OFFCURVE",
"115 150 OFFCURVE",
"110 161 CURVE",
"104 200 LINE"
);
}
);
width = 510;
}
);
unicode = 0062;
},
{
glyphname = c;
layers = (
{
layerId = "C5490108-C233-4ADF-8B6D-CFE8E3B23812";
paths = (
{
closed = 1;
nodes = (
"390 406 OFFCURVE",
"388 412 OFFCURVE",
"385 414 CURVE",
"373 425 OFFCURVE",
"355 431 OFFCURVE",
"339 438 CURVE",
"322 444 OFFCURVE",
"301 446 OFFCURVE",
"283 451 CURVE",
"248 449 OFFCURVE",
"213 447 OFFCURVE",
"183 441 CURVE",
"175 438 OFFCURVE",
"168 434 OFFCURVE",
"161 430 CURVE",
"135 428 OFFCURVE",
"129 407 OFFCURVE",
"112 395 CURVE",
"102 387 OFFCURVE",
"95 375 OFFCURVE",
"84 367 CURVE",
"82 359 OFFCURVE",
"76 354 OFFCURVE",
"73 347 CURVE",
"71 338 OFFCURVE",
"63 335 OFFCURVE",
"60 328 CURVE",
"54 301 OFFCURVE",
"45 276 OFFCURVE",
"45 243 CURVE",
"32 217 OFFCURVE",
"44 189 OFFCURVE",
"45 159 CURVE",
"48 151 OFFCURVE",
"56 147 OFFCURVE",
"54 134 CURVE",
"60 131 OFFCURVE",
"62 124 OFFCURVE",
"65 118 CURVE",
"71 114 OFFCURVE",
"76 110 OFFCURVE",
"78 102 CURVE",
"88 93 OFFCURVE",
"93 80 OFFCURVE",
"100 68 CURVE",
"104 63 OFFCURVE",
"110 60 OFFCURVE",
"116 57 CURVE",
"118 49 OFFCURVE",
"124 44 OFFCURVE",
"128 38 CURVE",
"137 35 OFFCURVE",
"144 30 OFFCURVE",
"153 28 CURVE",
"158 21 OFFCURVE",
"171 21 OFFCURVE",
"177 16 CURVE",
"187 15 OFFCURVE",
"194 13 OFFCURVE",
"202 11 CURVE",
"244 7 OFFCURVE",
"287 8 OFFCURVE",
"328 12 CURVE",
"333 16 OFFCURVE",
"340 17 OFFCURVE",
"347 19 CURVE",
"362 31 OFFCURVE",
"383 38 OFFCURVE",
"396 52 CURVE",
"395 57 OFFCURVE",
"401 62 OFFCURVE",
"402 69 CURVE",
"405 85 OFFCURVE",
"402 106 OFFCURVE",
"390 110 CURVE",
"376 108 OFFCURVE",
"373 94 OFFCURVE",
"361 90 CURVE",
"356 88 OFFCURVE",
"352 85 OFFCURVE",
"344 85 CURVE",
"338 79 OFFCURVE",
"331 73 OFFCURVE",
"324 69 CURVE",
"315 66 OFFCURVE",
"306 64 OFFCURVE",
"298 60 CURVE",
"286 60 OFFCURVE",
"275 59 OFFCURVE",
"265 57 CURVE",
"257 59 OFFCURVE",
"246 61 OFFCURVE",
"237 58 CURVE",
"229 62 OFFCURVE",
"217 61 OFFCURVE",
"207 63 CURVE",
"201 67 OFFCURVE",
"193 68 OFFCURVE",
"186 72 CURVE",
"182 77 OFFCURVE",
"174 78 OFFCURVE",
"169 80 CURVE",
"168 83 LINE",
"164 85 OFFCURVE",
"158 88 OFFCURVE",
"157 90 CURVE",
"154 92 OFFCURVE",
"150 91 OFFCURVE",
"149 94 CURVE",
"143 99 OFFCURVE",
"138 103 OFFCURVE",
"131 107 CURVE",
"124 119 OFFCURVE",
"113 128 OFFCURVE",
"106 142 CURVE",
"97 156 OFFCURVE",
"88 175 OFFCURVE",
"86 195 CURVE",
"85 198 OFFCURVE",
"84 199 OFFCURVE",
"84 202 CURVE",
"84 202 OFFCURVE",
"86 205 OFFCURVE",
"86 208 CURVE",
"82 220 LINE",
"80 238 OFFCURVE",
"83 251 OFFCURVE",
"87 265 CURVE",
"90 274 OFFCURVE",
"94 282 OFFCURVE",
"95 291 CURVE",
"105 306 OFFCURVE",
"113 323 OFFCURVE",
"123 337 CURVE",
"137 346 OFFCURVE",
"147 359 OFFCURVE",
"160 369 CURVE",
"172 372 OFFCURVE",
"180 379 OFFCURVE",
"190 384 CURVE",
"203 384 OFFCURVE",
"209 391 OFFCURVE",
"223 391 CURVE",
"229 396 OFFCURVE",
"237 400 OFFCURVE",
"246 402 CURVE",
"261 400 OFFCURVE",
"270 392 OFFCURVE",
"286 395 CURVE",
"300 388 OFFCURVE",
"318 385 OFFCURVE",
"338 383 CURVE",
"355 374 OFFCURVE",
"363 355 OFFCURVE",
"390 356 CURVE",
"400 362 OFFCURVE",
"404 373 OFFCURVE",
"401 388 CURVE",
"401 389 OFFCURVE",
"397 390 OFFCURVE",
"396 392 CURVE",
"393 400 LINE"
);
}
);
width = 438;
}
);
unicode = 0063;
},
{
glyphname = d;
layers = (
{
layerId = "C5490108-C233-4ADF-8B6D-CFE8E3B23812";
paths = (
{
closed = 1;
nodes = (
"443 688 OFFCURVE",
"440 704 OFFCURVE",
"440 720 CURVE SMOOTH",
"440 731 OFFCURVE",
"443 741 OFFCURVE",
"440 752 CURVE",
"444 766 OFFCURVE",
"445 790 OFFCURVE",
"435 799 CURVE",
"430 803 OFFCURVE",
"424 803 OFFCURVE",
"416 802 CURVE",
"409 802 OFFCURVE",
"400 801 OFFCURVE",
"396 796 CURVE",
"396 792 OFFCURVE",
"393 790 OFFCURVE",
"391 788 CURVE",
"391 775 OFFCURVE",
"397 763 OFFCURVE",
"398 750 CURVE SMOOTH",
"399 736 OFFCURVE",
"396 722 OFFCURVE",
"396 708 CURVE SMOOTH",
"396 700 OFFCURVE",
"397 693 OFFCURVE",
"398 685 CURVE",
"398 656 OFFCURVE",
"398 631 OFFCURVE",
"396 604 CURVE",
"396 595 OFFCURVE",
"400 590 OFFCURVE",
"399 581 CURVE",
"399 574 OFFCURVE",
"395 569 OFFCURVE",
"396 559 CURVE",
"399 543 OFFCURVE",
"398 526 OFFCURVE",
"398 511 CURVE SMOOTH",
"398 502 OFFCURVE",
"399 494 OFFCURVE",
"399 485 CURVE SMOOTH",
"399 476 OFFCURVE",
"398 467 OFFCURVE",
"398 458 CURVE SMOOTH",
"398 431 OFFCURVE",
"405 398 OFFCURVE",
"394 378 CURVE",
"391 375 OFFCURVE",
"387 382 OFFCURVE",
"385 384 CURVE",
"381 386 OFFCURVE",
"379 391 OFFCURVE",
"375 394 CURVE",
"370 402 OFFCURVE",
"362 407 OFFCURVE",
"357 414 CURVE",
"351 419 OFFCURVE",
"343 421 OFFCURVE",
"339 427 CURVE",
"336 434 OFFCURVE",
"326 434 OFFCURVE",
"323 441 CURVE",
"307 441 OFFCURVE",
"298 449 OFFCURVE",
"286 454 CURVE",
"254 455 OFFCURVE",
"217 453 OFFCURVE",
"182 454 CURVE",
"171 448 OFFCURVE",
"158 445 OFFCURVE",
"145 441 CURVE",
"129 430 OFFCURVE",
"115 416 OFFCURVE",
"98 405 CURVE",
"88 390 OFFCURVE",
"79 375 OFFCURVE",
"65 364 CURVE",
"62 354 OFFCURVE",
"55 349 OFFCURVE",
"52 339 CURVE",
"50 329 OFFCURVE",
"43 322 OFFCURVE",
"41 312 CURVE",
"32 295 OFFCURVE",
"27 110 OFFCURVE",
"52 99 CURVE",
"66 90 OFFCURVE",
"74 75 OFFCURVE",
"85 64 CURVE",
"91 59 OFFCURVE",
"94 51 OFFCURVE",
"103 49 CURVE",
"104 44 OFFCURVE",
"109 43 OFFCURVE",
"111 39 CURVE",
"115 38 OFFCURVE",
"115 31 OFFCURVE",
"119 30 CURVE",
"129 26 OFFCURVE",
"138 21 OFFCURVE",
"147 16 CURVE",
"158 14 OFFCURVE",
"167 10 OFFCURVE",
"177 8 CURVE",
"188 5 OFFCURVE",
"203 7 OFFCURVE",
"212 1 CURVE",
"217 2 OFFCURVE",
"220 6 OFFCURVE",
"227 4 CURVE",
"244 2 OFFCURVE",
"264 4 OFFCURVE",
"278 9 CURVE",
"291 8 OFFCURVE",
"299 12 OFFCURVE",
"312 11 CURVE",
"322 17 OFFCURVE",
"334 19 OFFCURVE",
"347 22 CURVE",
"352 25 OFFCURVE",
"355 31 OFFCURVE",
"360 34 CURVE",
"372 39 OFFCURVE",
"373 54 OFFCURVE",
"387 58 CURVE",
"391 62 OFFCURVE",
"390 72 OFFCURVE",
"398 72 CURVE",
"400 65 OFFCURVE",
"401 56 OFFCURVE",
"401 47 CURVE",
"400 38 OFFCURVE",
"395 31 OFFCURVE",
"398 25 CURVE SMOOTH",
"404 13 OFFCURVE",
"429 14 OFFCURVE",
"440 22 CURVE",
"446 25 OFFCURVE",
"443 37 OFFCURVE",
"446 44 CURVE",
"440 83 OFFCURVE",
"444 135 OFFCURVE",
"442 175 CURVE SMOOTH",
"441 194 OFFCURVE",
"441 212 OFFCURVE",
"442 231 CURVE",
"442 244 OFFCURVE",
"440 257 OFFCURVE",
"440 269 CURVE SMOOTH",
"440 276 OFFCURVE",
"442 281 OFFCURVE",
"442 288 CURVE SMOOTH",
"442 307 OFFCURVE",
"440 327 OFFCURVE",
"439 347 CURVE",
"447 368 OFFCURVE",
"441 393 OFFCURVE",
"442 419 CURVE",
"442 435 OFFCURVE",
"445 451 OFFCURVE",
"445 466 CURVE SMOOTH",
"445 481 OFFCURVE",
"443 497 OFFCURVE",
"443 512 CURVE SMOOTH",
"443 519 OFFCURVE",
"445 525 OFFCURVE",
"445 531 CURVE",
"444 547 OFFCURVE",
"440 561 OFFCURVE",
"440 577 CURVE SMOOTH",
"440 592 OFFCURVE",
"443 607 OFFCURVE",
"443 622 CURVE",
"444 635 OFFCURVE",
"444 649 OFFCURVE",
"443 660 CURVE",
"443 671 LINE SMOOTH"
);
},
{
closed = 1;
nodes = (
"403 261 OFFCURVE",
"402 241 CURVE",
"406 233 OFFCURVE",
"403 218 OFFCURVE",
"404 208 CURVE",
"400 195 OFFCURVE",
"398 179 OFFCURVE",
"396 164 CURVE",
"392 150 OFFCURVE",
"383 141 OFFCURVE",
"380 126 CURVE",
"376 121 OFFCURVE",
"371 116 OFFCURVE",
"364 113 CURVE",
"362 107 OFFCURVE",
"358 102 OFFCURVE",
"355 96 CURVE",
"337 84 OFFCURVE",
"322 70 OFFCURVE",
"295 68 CURVE",
"289 64 OFFCURVE",
"283 61 OFFCURVE",
"276 58 CURVE",
"246 56 OFFCURVE",
"229 58 OFFCURVE",
"201 60 CURVE",
"190 62 OFFCURVE",
"181 68 OFFCURVE",
"169 69 CURVE",
"160 76 OFFCURVE",
"153 84 OFFCURVE",
"141 86 CURVE",
"127 102 OFFCURVE",
"112 116 OFFCURVE",
"98 132 CURVE",
"95 142 OFFCURVE",
"91 152 OFFCURVE",
"85 159 CURVE",
"87 170 OFFCURVE",
"82 176 OFFCURVE",
"81 184 CURVE",
"81 200 OFFCURVE",
"79 214 OFFCURVE",
"78 228 CURVE",
"80 237 OFFCURVE",
"82 246 OFFCURVE",
"81 258 CURVE",
"85 282 OFFCURVE",
"93 303 OFFCURVE",
"103 321 CURVE",
"103 325 OFFCURVE",
"106 327 OFFCURVE",
"108 329 CURVE",
"111 333 OFFCURVE",
"114 337 OFFCURVE",
"119 342 CURVE SMOOTH",
"121 344 OFFCURVE",
"121 346 OFFCURVE",
"123 348 CURVE",
"130 354 OFFCURVE",
"141 357 OFFCURVE",
"144 367 CURVE",
"153 368 OFFCURVE",
"157 374 OFFCURVE",
"161 380 CURVE",
"169 382 OFFCURVE",
"178 385 OFFCURVE",
"185 389 CURVE",
"193 391 OFFCURVE",
"200 395 OFFCURVE",
"208 397 CURVE",
"221 397 OFFCURVE",
"230 394 OFFCURVE",
"240 399 CURVE",
"255 390 OFFCURVE",
"274 395 OFFCURVE",
"294 391 CURVE",
"308 383 OFFCURVE",
"320 372 OFFCURVE",
"336 365 CURVE",
"339 362 OFFCURVE",
"342 358 OFFCURVE",
"344 353 CURVE",
"353 352 OFFCURVE",
"357 346 OFFCURVE",
"364 343 CURVE",
"368 338 OFFCURVE",
"372 333 OFFCURVE",
"377 329 CURVE",
"378 321 OFFCURVE",
"383 316 OFFCURVE",
"387 310 CURVE",
"387 302 OFFCURVE",
"391 297 OFFCURVE",
"394 291 CURVE",
"397 275 OFFCURVE"
);
}
);
width = 511;
}
);
unicode = 0064;
},
{
glyphname = e;
layers = (
{
layerId = "C5490108-C233-4ADF-8B6D-CFE8E3B23812";
paths = (
{
closed = 1;
nodes = (
"424 316 OFFCURVE",
"415 333 OFFCURVE",
"413 348 CURVE",
"408 355 OFFCURVE",
"402 362 OFFCURVE",
"399 372 CURVE",
"390 379 OFFCURVE",
"383 389 OFFCURVE",
"376 399 CURVE",
"361 407 OFFCURVE",
"352 419 OFFCURVE",
"341 430 CURVE",
"331 435 OFFCURVE",
"319 437 OFFCURVE",
"312 444 CURVE",
"280 451 OFFCURVE",
"247 455 OFFCURVE",
"212 455 CURVE",
"191 453 OFFCURVE",
"172 447 OFFCURVE",
"153 443 CURVE",
"147 435 OFFCURVE",
"136 432 OFFCURVE",
"126 427 CURVE",
"111 411 OFFCURVE",
"97 395 OFFCURVE",
"81 380 CURVE",
"76 368 OFFCURVE",
"69 359 OFFCURVE",
"63 348 CURVE",
"59 337 OFFCURVE",
"52 326 OFFCURVE",
"49 313 CURVE SMOOTH",
"47 305 OFFCURVE",
"48 290 OFFCURVE",
"46 280 CURVE",
"46 278 OFFCURVE",
"43 275 OFFCURVE",
"43 272 CURVE",
"41 239 LINE",
"40 229 OFFCURVE",
"38 219 OFFCURVE",
"38 209 CURVE SMOOTH",
"38 194 OFFCURVE",
"43 178 OFFCURVE",
"43 164 CURVE",
"49 151 OFFCURVE",
"57 140 OFFCURVE",
"59 123 CURVE",
"63 118 OFFCURVE",
"67 114 OFFCURVE",
"70 109 CURVE",
"76 81 OFFCURVE",
"94 67 OFFCURVE",
"111 50 CURVE",
"122 47 OFFCURVE",
"129 39 OFFCURVE",
"141 36 CURVE",
"145 33 OFFCURVE",
"150 31 OFFCURVE",
"155 28 CURVE",
"160 26 OFFCURVE",
"161 19 OFFCURVE",
"167 19 CURVE",
"194 8 OFFCURVE",
"239 15 OFFCURVE",
"271 11 CURVE",
"278 11 OFFCURVE",
"282 15 OFFCURVE",
"289 16 CURVE",
"320 14 OFFCURVE",
"337 27 OFFCURVE",
"358 36 CURVE",
"368 37 OFFCURVE",
"388 61 OFFCURVE",
"388 71 CURVE",
"394 85 OFFCURVE",
"408 92 OFFCURVE",
"417 104 CURVE",
"422 117 OFFCURVE",
"430 133 OFFCURVE",
"428 148 CURVE",
"419 157 OFFCURVE",
"407 162 OFFCURVE",
"391 164 CURVE",
"382 154 OFFCURVE",
"376 142 OFFCURVE",
"372 127 CURVE",
"364 119 OFFCURVE",
"357 108 OFFCURVE",
"350 98 CURVE",
"342 94 OFFCURVE",
"336 88 OFFCURVE",
"330 85 CURVE",
"318 78 OFFCURVE",
"306 71 OFFCURVE",
"292 66 CURVE SMOOTH",
"280 62 OFFCURVE",
"265 60 OFFCURVE",
"249 60 CURVE",
"239 63 OFFCURVE",
"227 63 OFFCURVE",
"213 63 CURVE",
"204 66 OFFCURVE",
"195 68 OFFCURVE",
"183 68 CURVE",
"168 75 OFFCURVE",
"154 84 OFFCURVE",
"141 93 CURVE",
"134 104 OFFCURVE",
"125 114 OFFCURVE",
"115 123 CURVE",
"114 129 OFFCURVE",
"113 134 OFFCURVE",
"111 138 CURVE",
"107 145 OFFCURVE",
"99 150 OFFCURVE",
"97 157 CURVE",
"98 183 OFFCURVE",
"75 201 OFFCURVE",
"89 224 CURVE",
"109 226 OFFCURVE",
"129 220 OFFCURVE",
"150 220 CURVE",
"158 221 OFFCURVE",
"167 224 OFFCURVE",
"175 224 CURVE SMOOTH",
"187 224 OFFCURVE",
"199 220 OFFCURVE",
"210 220 CURVE SMOOTH",
"215 220 OFFCURVE",
"220 222 OFFCURVE",
"226 222 CURVE SMOOTH",
"238 222 OFFCURVE",
"250 220 OFFCURVE",
"262 220 CURVE",
"282 221 OFFCURVE",
"303 228 OFFCURVE",
"322 222 CURVE",
"330 227 OFFCURVE",
"339 224 OFFCURVE",
"349 224 CURVE SMOOTH",
"375 224 OFFCURVE",
"402 224 OFFCURVE",
"428 225 CURVE",
"431 229 OFFCURVE",
"433 234 OFFCURVE",
"432 243 CURVE",
"429 244 OFFCURVE",
"433 253 OFFCURVE",
"429 254 CURVE",
"428 258 OFFCURVE",
"423 257 OFFCURVE",
"423 263 CURVE",
"430 269 OFFCURVE",
"426 277 OFFCURVE",
"426 285 CURVE SMOOTH",
"426 298 LINE"
);
},
{
closed = 1;
nodes = (
"372 269 OFFCURVE",
"368 266 CURVE",
"358 265 OFFCURVE",
"353 270 OFFCURVE",
"346 271 CURVE",
"334 271 OFFCURVE",
"326 268 OFFCURVE",
"317 272 CURVE",
"305 268 OFFCURVE",
"295 271 OFFCURVE",
"279 269 CURVE",
"273 268 OFFCURVE",
"272 272 OFFCURVE",
"267 272 CURVE",
"252 271 OFFCURVE",
"236 271 OFFCURVE",
"224 266 CURVE",
"216 265 OFFCURVE",
"215 270 OFFCURVE",
"208 271 CURVE",
"195 267 OFFCURVE",
"176 269 OFFCURVE",
"163 265 CURVE",
"138 271 OFFCURVE",
"110 260 OFFCURVE",
"89 263 CURVE",
"85 267 OFFCURVE",
"90 272 OFFCURVE",
"90 277 CURVE",
"88 282 OFFCURVE",
"88 288 OFFCURVE",
"89 295 CURVE",
"94 306 OFFCURVE",
"97 321 OFFCURVE",
"106 329 CURVE",
"106 336 OFFCURVE",
"112 339 OFFCURVE",
"115 345 CURVE",
"118 349 OFFCURVE",
"119 354 OFFCURVE",
"122 358 CURVE",
"124 361 OFFCURVE",
"127 367 OFFCURVE",
"131 370 CURVE",
"133 372 OFFCURVE",
"135 370 OFFCURVE",
"137 372 CURVE",
"143 375 OFFCURVE",
"149 387 OFFCURVE",
"156 391 CURVE",
"170 395 OFFCURVE",
"182 401 OFFCURVE",
"194 406 CURVE",
"211 407 OFFCURVE",
"225 409 OFFCURVE",
"238 413 CURVE",
"251 409 OFFCURVE",
"268 408 OFFCURVE",
"283 406 CURVE",
"296 398 OFFCURVE",
"312 393 OFFCURVE",
"327 386 CURVE",
"332 380 OFFCURVE",
"338 374 OFFCURVE",
"344 369 CURVE",
"346 358 OFFCURVE",
"353 351 OFFCURVE",
"360 343 CURVE",
"361 342 OFFCURVE",
"360 340 OFFCURVE",
"361 339 CURVE SMOOTH",
"363 337 OFFCURVE",
"369 335 OFFCURVE",
"371 331 CURVE",
"369 312 OFFCURVE",
"390 296 OFFCURVE",
"374 282 CURVE",
"373 276 OFFCURVE"
);
}
);
width = 472;
}
);
unicode = 0065;
},
{
glyphname = f;
layers = (
{
layerId = "C5490108-C233-4ADF-8B6D-CFE8E3B23812";
paths = (
{
closed = 1;
nodes = (
"85 254 OFFCURVE",
"81 199 OFFCURVE",
"81 148 CURVE SMOOTH",
"81 128 OFFCURVE",
"84 108 OFFCURVE",
"84 90 CURVE SMOOTH",
"84 81 OFFCURVE",
"82 73 OFFCURVE",
"84 64 CURVE",
"79 49 OFFCURVE",
"73 27 OFFCURVE",
"82 14 CURVE",
"95 9 OFFCURVE",
"120 11 OFFCURVE",
"127 20 CURVE",
"131 35 OFFCURVE",
"122 46 OFFCURVE",
"120 60 CURVE",
"121 152 OFFCURVE",
"122 226 OFFCURVE",
"120 309 CURVE",
"127 333 OFFCURVE",
"118 360 OFFCURVE",
"123 388 CURVE",
"136 399 OFFCURVE",
"157 394 OFFCURVE",
"179 394 CURVE",
"188 392 OFFCURVE",
"189 397 OFFCURVE",
"194 399 CURVE",
"199 407 OFFCURVE",
"199 425 OFFCURVE",
"194 433 CURVE",
"191 435 OFFCURVE",
"187 437 OFFCURVE",
"185 440 CURVE",
"180 440 OFFCURVE",
"173 441 OFFCURVE",
"166 440 CURVE SMOOTH",
"159 439 OFFCURVE",
"154 436 OFFCURVE",
"149 435 CURVE",
"144 439 OFFCURVE",
"132 436 OFFCURVE",
"127 440 CURVE",
"118 455 OFFCURVE",
"123 473 OFFCURVE",
"123 490 CURVE",
"124 498 OFFCURVE",
"122 506 OFFCURVE",
"122 514 CURVE SMOOTH",
"122 544 LINE",
"123 551 OFFCURVE",
"126 557 OFFCURVE",
"127 564 CURVE",
"126 575 OFFCURVE",
"121 580 OFFCURVE",
"127 589 CURVE",
"119 607 OFFCURVE",
"128 640 OFFCURVE",
"120 657 CURVE",
"126 669 OFFCURVE",
"122 686 OFFCURVE",
"122 701 CURVE",
"124 713 OFFCURVE",
"130 720 OFFCURVE",
"133 731 CURVE",
"142 738 OFFCURVE",
"150 746 OFFCURVE",
"161 750 CURVE",
"175 751 OFFCURVE",
"192 748 OFFCURVE",
"204 752 CURVE",
"216 761 OFFCURVE",
"212 797 OFFCURVE",
"201 805 CURVE",
"183 806 OFFCURVE",
"165 805 OFFCURVE",
"149 804 CURVE",
"132 794 OFFCURVE",
"112 787 OFFCURVE",
"100 772 CURVE",
"95 760 OFFCURVE",
"88 750 OFFCURVE",
"82 739 CURVE",
"82 724 OFFCURVE",
"79 712 OFFCURVE",
"76 700 CURVE",
"82 684 OFFCURVE",
"78 658 OFFCURVE",
"79 638 CURVE",
"74 624 OFFCURVE",
"77 606 OFFCURVE",
"81 592 CURVE",
"76 546 OFFCURVE",
"81 507 OFFCURVE",
"79 460 CURVE",
"80 448 OFFCURVE",
"80 435 OFFCURVE",
"70 433 CURVE",
"62 426 OFFCURVE",
"53 440 OFFCURVE",
"42 433 CURVE",
"32 426 OFFCURVE",
"27 400 OFFCURVE",
"40 392 CURVE",
"51 388 OFFCURVE",
"60 393 OFFCURVE",
"73 392 CURVE",
"84 382 OFFCURVE",
"83 366 OFFCURVE",
"82 351 CURVE",
"82 304 LINE"
);
}
);
width = 228;
}
);
unicode = 0066;
},
{
glyphname = h;
layers = (
{
layerId = "C5490108-C233-4ADF-8B6D-CFE8E3B23812";
paths = (
{
closed = 1;
nodes = (
"358 418 OFFCURVE",
"344 425 OFFCURVE",
"332 435 CURVE",
"326 438 OFFCURVE",
"321 435 OFFCURVE",
"315 436 CURVE",
"314 437 OFFCURVE",
"312 439 OFFCURVE",
"312 440 CURVE",
"308 442 OFFCURVE",
"304 443 OFFCURVE",
"301 444 CURVE",
"300 445 OFFCURVE",
"300 447 OFFCURVE",
"299 447 CURVE",
"293 450 OFFCURVE",
"286 453 OFFCURVE",
"279 454 CURVE SMOOTH",
"270 455 OFFCURVE",
"262 452 OFFCURVE",
"253 451 CURVE SMOOTH",
"239 449 OFFCURVE",
"224 450 OFFCURVE",
"208 447 CURVE",
"199 443 OFFCURVE",
"195 434 OFFCURVE",
"184 432 CURVE",
"179 423 OFFCURVE",
"170 419 OFFCURVE",
"160 414 CURVE",
"157 407 OFFCURVE",
"150 402 OFFCURVE",
"146 395 CURVE",
"140 390 OFFCURVE",
"139 380 OFFCURVE",
"129 378 CURVE",
"124 395 OFFCURVE",
"127 415 OFFCURVE",
"127 427 CURVE SMOOTH",
"127 430 OFFCURVE",
"126 434 OFFCURVE",
"126 436 CURVE SMOOTH",
"126 449 OFFCURVE",
"129 462 OFFCURVE",
"129 474 CURVE SMOOTH",
"129 482 OFFCURVE",
"126 490 OFFCURVE",
"126 498 CURVE SMOOTH",
"126 508 OFFCURVE",
"129 519 OFFCURVE",
"129 529 CURVE SMOOTH",
"129 555 OFFCURVE",
"127 581 OFFCURVE",
"126 607 CURVE SMOOTH",
"125 622 OFFCURVE",
"125 637 OFFCURVE",
"129 651 CURVE",
"126 689 OFFCURVE",
"126 743 OFFCURVE",
"132 782 CURVE",
"129 786 OFFCURVE",
"127 792 OFFCURVE",
"124 797 CURVE",
"119 799 OFFCURVE",
"116 802 OFFCURVE",
"112 804 CURVE",
"103 804 OFFCURVE",
"100 800 OFFCURVE",
"91 801 CURVE",
"86 794 OFFCURVE",
"80 789 OFFCURVE",
"77 782 CURVE",
"84 741 OFFCURVE",
"83 686 OFFCURVE",
"82 643 CURVE",
"81 636 OFFCURVE",
"86 634 OFFCURVE",
"85 627 CURVE",
"80 608 OFFCURVE",
"85 591 OFFCURVE",
"85 574 CURVE",
"84 563 OFFCURVE",
"81 551 OFFCURVE",
"82 540 CURVE",
"82 535 OFFCURVE",
"84 529 OFFCURVE",
"85 523 CURVE",
"86 507 OFFCURVE",
"85 491 OFFCURVE",
"83 473 CURVE",
"88 460 OFFCURVE",
"85 447 OFFCURVE",
"85 435 CURVE SMOOTH",
"85 419 OFFCURVE",
"86 402 OFFCURVE",
"86 386 CURVE SMOOTH",
"86 321 LINE SMOOTH",
"86 316 OFFCURVE",
"88 312 OFFCURVE",
"88 307 CURVE SMOOTH",
"88 277 OFFCURVE",
"89 244 OFFCURVE",
"86 213 CURVE",
"91 196 OFFCURVE",
"88 180 OFFCURVE",
"88 162 CURVE SMOOTH",
"88 152 OFFCURVE",
"89 142 OFFCURVE",
"89 132 CURVE SMOOTH",
"89 104 OFFCURVE",
"87 75 OFFCURVE",
"89 50 CURVE",
"88 43 OFFCURVE",
"83 34 OFFCURVE",
"86 27 CURVE",
"97 21 OFFCURVE",
"122 18 OFFCURVE",
"134 23 CURVE",
"142 32 OFFCURVE",
"136 44 OFFCURVE",
"134 55 CURVE",
"134 72 OFFCURVE",
"131 87 OFFCURVE",
"129 102 CURVE",
"131 111 OFFCURVE",
"132 119 OFFCURVE",
"132 129 CURVE",
"125 178 OFFCURVE",
"129 230 OFFCURVE",
"129 284 CURVE",
"135 312 OFFCURVE",
"153 329 OFFCURVE",
"164 353 CURVE",
"175 361 OFFCURVE",
"182 374 OFFCURVE",
"195 381 CURVE",
"206 385 OFFCURVE",
"216 391 OFFCURVE",
"230 388 CURVE",
"235 391 OFFCURVE",
"240 395 OFFCURVE",
"250 394 CURVE",
"258 395 OFFCURVE",
"262 400 OFFCURVE",
"272 399 CURVE",
"292 393 OFFCURVE",
"298 374 OFFCURVE",
"321 372 CURVE",
"325 362 OFFCURVE",
"333 358 OFFCURVE",
"339 350 CURVE",
"342 344 OFFCURVE",
"343 339 OFFCURVE",
"346 332 CURVE",
"349 282 OFFCURVE",
"350 238 OFFCURVE",
"351 191 CURVE",
"346 173 OFFCURVE",
"346 145 OFFCURVE",
"353 129 CURVE",
"352 123 OFFCURVE",
"350 118 OFFCURVE",
"350 112 CURVE",
"356 93 OFFCURVE",
"350 72 OFFCURVE",
"351 49 CURVE",
"350 39 OFFCURVE",
"344 33 OFFCURVE",
"348 23 CURVE",
"352 17 OFFCURVE",
"363 19 OFFCURVE",
"373 19 CURVE",
"384 18 OFFCURVE",
"392 20 OFFCURVE",
"398 23 CURVE",
"404 30 OFFCURVE",
"403 38 OFFCURVE",
"402 44 CURVE",
"391 90 OFFCURVE",
"397 143 OFFCURVE",
"397 195 CURVE SMOOTH",
"397 220 OFFCURVE",
"395 245 OFFCURVE",
"398 269 CURVE",
"398 276 OFFCURVE",
"395 281 OFFCURVE",
"394 287 CURVE",
"396 292 OFFCURVE",
"397 299 OFFCURVE",
"397 307 CURVE",
"394 318 OFFCURVE",
"389 327 OFFCURVE",
"391 343 CURVE",
"383 351 OFFCURVE",
"383 366 OFFCURVE",
"381 380 CURVE",
"368 406 LINE"
);
}
);
width = 463;
}
);
unicode = 0068;
},
{
glyphname = g;
layers = (
{
layerId = "C5490108-C233-4ADF-8B6D-CFE8E3B23812";
paths = (
{
closed = 1;
nodes = (
"430 -73 OFFCURVE",
"428 -65 OFFCURVE",
"428 -57 CURVE SMOOTH",
"428 -49 OFFCURVE",
"436 27 OFFCURVE",
"430 36 CURVE",
"433 60 OFFCURVE",
"432 83 OFFCURVE",
"430 107 CURVE",
"432 110 OFFCURVE",
"430 184 OFFCURVE",
"430 208 CURVE",
"429 230 OFFCURVE",
"426 253 OFFCURVE",
"426 276 CURVE SMOOTH",
"427 330 OFFCURVE",
"427 384 OFFCURVE",
"423 441 CURVE",
"418 447 OFFCURVE",
"419 454 OFFCURVE",
"409 455 CURVE SMOOTH",
"399 456 OFFCURVE",
"394 452 OFFCURVE",
"387 449 CURVE",
"382 442 OFFCURVE",
"384 430 OFFCURVE",
"383 419 CURVE SMOOTH",
"382 409 OFFCURVE",
"382 386 OFFCURVE",
"373 384 CURVE",
"364 387 OFFCURVE",
"363 399 OFFCURVE",
"357 405 CURVE",
"350 411 OFFCURVE",
"343 418 OFFCURVE",
"337 425 CURVE",
"329 427 OFFCURVE",
"324 432 OFFCURVE",
"318 436 CURVE",
"285 446 OFFCURVE",
"238 458 OFFCURVE",
"200 447 CURVE",
"185 454 OFFCURVE",
"164 447 OFFCURVE",
"154 439 CURVE",
"140 439 OFFCURVE",
"134 431 OFFCURVE",
"122 428 CURVE",
"113 423 OFFCURVE",
"104 417 OFFCURVE",
"96 411 CURVE",
"90 405 OFFCURVE",
"81 399 OFFCURVE",
"77 394 CURVE",
"76 392 OFFCURVE",
"76 390 OFFCURVE",
"75 389 CURVE",
"68 381 OFFCURVE",
"58 376 OFFCURVE",
"53 367 CURVE SMOOTH",
"47 357 OFFCURVE",
"45 344 OFFCURVE",
"42 330 CURVE",
"33 317 OFFCURVE",
"35 302 OFFCURVE",
"35 278 CURVE",
"30 268 OFFCURVE",
"27 264 OFFCURVE",
"23 252 CURVE",
"25 233 OFFCURVE",
"19 214 OFFCURVE",
"24 197 CURVE",
"21 191 OFFCURVE",
"24 178 OFFCURVE",
"21 172 CURVE",
"27 165 OFFCURVE",
"27 153 OFFCURVE",
"29 143 CURVE SMOOTH",
"31 133 OFFCURVE",
"37 126 OFFCURVE",
"37 113 CURVE",
"47 105 OFFCURVE",
"52 95 OFFCURVE",
"55 80 CURVE",
"75 66 OFFCURVE",
"87 58 OFFCURVE",
"104 40 CURVE",
"116 38 OFFCURVE",
"124 30 OFFCURVE",
"134 24 CURVE",
"153 20 OFFCURVE",
"172 14 OFFCURVE",
"192 10 CURVE",
"210 10 OFFCURVE",
"228 10 OFFCURVE",
"241 9 CURVE",
"265 13 OFFCURVE",
"289 17 OFFCURVE",
"310 24 CURVE",
"323 34 OFFCURVE",
"336 42 OFFCURVE",
"351 50 CURVE",
"355 55 OFFCURVE",
"362 59 OFFCURVE",
"365 64 CURVE",
"367 67 OFFCURVE",
"382 84 OFFCURVE",
"385 86 CURVE SMOOTH",
"388 88 OFFCURVE",
"385 37 OFFCURVE",
"387 30 CURVE",
"390 22 OFFCURVE",
"387 -60 OFFCURVE",
"384 -100 CURVE",
"380 -101 OFFCURVE",
"386 -117 OFFCURVE",
"382 -118 CURVE",
"363 -121 OFFCURVE",
"328 -127 OFFCURVE",
"312 -122 CURVE",
"260 -123 OFFCURVE",
"211 -127 OFFCURVE",
"162 -119 CURVE",
"140 -127 OFFCURVE",
"111 -115 OFFCURVE",
"91 -121 CURVE",
"87 -124 OFFCURVE",
"84 -127 OFFCURVE",
"80 -129 CURVE",
"78 -136 OFFCURVE",
"74 -131 OFFCURVE",
"75 -142 CURVE",
"75 -144 OFFCURVE",
"74 -144 OFFCURVE",
"73 -145 CURVE",
"71 -146 OFFCURVE",
"73 -160 OFFCURVE",
"77 -163 CURVE",
"78 -164 OFFCURVE",
"82 -163 OFFCURVE",
"85 -164 CURVE",
"87 -165 OFFCURVE",
"90 -169 OFFCURVE",
"91 -169 CURVE",
"98 -171 OFFCURVE",
"108 -169 OFFCURVE",
"113 -170 CURVE SMOOTH",
"135 -175 OFFCURVE",
"167 -167 OFFCURVE",
"189 -167 CURVE",
"195 -171 OFFCURVE",
"202 -169 OFFCURVE",
"209 -169 CURVE",
"234 -170 OFFCURVE",
"258 -169 OFFCURVE",
"283 -169 CURVE",
"290 -170 OFFCURVE",
"293 -173 OFFCURVE",
"301 -174 CURVE",
"338 -170 OFFCURVE",
"388 -178 OFFCURVE",
"428 -167 CURVE",
"430 -162 OFFCURVE",
"424 -159 OFFCURVE",
"427 -156 CURVE",
"427 -136 OFFCURVE",
"430 -120 OFFCURVE",
"426 -101 CURVE",
"430 -81 LINE"
);
},
{
closed = 1;
nodes = (
"388 247 OFFCURVE",
"389 235 CURVE",
"390 235 OFFCURVE",
"390 234 OFFCURVE",
"390 233 CURVE",
"387 210 OFFCURVE",
"388 181 OFFCURVE",
"379 159 CURVE SMOOTH",
"376 152 OFFCURVE",
"371 148 OFFCURVE",
"368 140 CURVE",
"365 134 OFFCURVE",
"360 130 OFFCURVE",
"356 124 CURVE SMOOTH",
"348 112 OFFCURVE",
"347 108 OFFCURVE",
"340 96 CURVE",
"335 96 OFFCURVE",
"325 86 OFFCURVE",
"323 83 CURVE",
"313 79 OFFCURVE",
"306 73 OFFCURVE",
"298 67 CURVE",
"285 62 OFFCURVE",
"264 66 OFFCURVE",
"251 61 CURVE",
"234 60 OFFCURVE",
"217 61 OFFCURVE",
"202 62 CURVE",
"196 65 OFFCURVE",
"193 57 OFFCURVE",
"187 61 CURVE",
"174 59 OFFCURVE",
"169 73 OFFCURVE",
"158 73 CURVE",
"150 77 OFFCURVE",
"148 86 OFFCURVE",
"136 84 CURVE",
"130 92 OFFCURVE",
"123 92 OFFCURVE",
"114 96 CURVE",
"111 102 OFFCURVE",
"105 118 OFFCURVE",
"99 121 CURVE",
"96 131 OFFCURVE",
"90 138 OFFCURVE",
"85 146 CURVE",
"82 157 OFFCURVE",
"80 168 OFFCURVE",
"74 175 CURVE",
"75 189 OFFCURVE",
"71 197 OFFCURVE",
"69 208 CURVE",
"69 238 OFFCURVE",
"71 248 OFFCURVE",
"75 274 CURVE",
"77 280 OFFCURVE",
"81 284 OFFCURVE",
"83 291 CURVE",
"88 303 OFFCURVE",
"99 313 OFFCURVE",
"101 344 CURVE",
"112 351 OFFCURVE",
"118 363 OFFCURVE",
"127 372 CURVE",
"139 378 OFFCURVE",
"151 383 OFFCURVE",
"160 391 CURVE",
"174 394 OFFCURVE",
"187 398 OFFCURVE",
"200 402 CURVE",
"209 402 OFFCURVE",
"219 403 OFFCURVE",
"224 399 CURVE",
"230 399 OFFCURVE",
"232 404 OFFCURVE",
"239 404 CURVE",
"251 399 OFFCURVE",
"263 403 OFFCURVE",
"276 400 CURVE SMOOTH",
"284 398 OFFCURVE",
"290 393 OFFCURVE",
"296 388 CURVE",
"304 389 OFFCURVE",
"306 385 OFFCURVE",
"313 385 CURVE",
"320 378 OFFCURVE",
"330 373 OFFCURVE",
"339 367 CURVE",
"349 357 OFFCURVE",
"356 344 OFFCURVE",
"367 334 CURVE",
"368 324 OFFCURVE",
"383 280 OFFCURVE",
"386 271 CURVE",
"384 256 OFFCURVE"
);
}
);
width = 497;
}
);
unicode = 0067;
},
{
glyphname = i;
layers = (
{
layerId = "C5490108-C233-4ADF-8B6D-CFE8E3B23812";
paths = (
{
closed = 1;
nodes = (
"133 565 OFFCURVE",
"127 578 CURVE",
"121 589 OFFCURVE",
"111 603 OFFCURVE",
"100 607 CURVE SMOOTH",
"92 610 OFFCURVE",
"77 608 OFFCURVE",
"70 605 CURVE",
"64 600 OFFCURVE",
"60 592 OFFCURVE",
"56 586 CURVE",
"53 578 OFFCURVE",
"47 573 OFFCURVE",
"48 561 CURVE",
"50 550 OFFCURVE",
"56 544 OFFCURVE",
"61 536 CURVE",
"68 535 OFFCURVE",
"70 530 OFFCURVE",
"77 529 CURVE",
"92 529 OFFCURVE",
"104 532 OFFCURVE",
"116 537 CURVE",
"119 551 OFFCURVE"
);
},
{
closed = 1;
nodes = (
"100 425 OFFCURVE",
"87 434 OFFCURVE",
"74 427 CURVE",
"63 413 OFFCURVE",
"70 381 OFFCURVE",
"68 358 CURVE",
"65 340 LINE",
"72 325 OFFCURVE",
"64 305 OFFCURVE",
"70 290 CURVE",
"68 286 OFFCURVE",
"67 282 OFFCURVE",
"66 277 CURVE",
"66 247 OFFCURVE",
"68 213 OFFCURVE",
"66 186 CURVE SMOOTH",
"65 174 OFFCURVE",
"64 164 OFFCURVE",
"64 153 CURVE",
"65 140 OFFCURVE",
"69 127 OFFCURVE",
"69 115 CURVE SMOOTH",
"69 108 OFFCURVE",
"68 100 OFFCURVE",
"68 93 CURVE SMOOTH",
"68 85 OFFCURVE",
"70 77 OFFCURVE",
"69 69 CURVE",
"68 53 OFFCURVE",
"60 38 OFFCURVE",
"61 22 CURVE",
"66 13 OFFCURVE",
"73 6 OFFCURVE",
"85 4 CURVE",
"98 4 OFFCURVE",
"116 5 OFFCURVE",
"113 19 CURVE SMOOTH",
"111 28 OFFCURVE",
"107 41 OFFCURVE",
"105 55 CURVE",
"102 86 OFFCURVE",
"109 125 OFFCURVE",
"104 153 CURVE",
"107 158 OFFCURVE",
"106 167 OFFCURVE",
"109 173 CURVE",
"104 197 OFFCURVE",
"107 220 OFFCURVE",
"107 244 CURVE SMOOTH",
"109 419 LINE"
);
}
);
width = 180;
}
);
unicode = 0069;
},
{
glyphname = j;
layers = (
{
layerId = "C5490108-C233-4ADF-8B6D-CFE8E3B23812";
paths = (
{
closed = 1;
nodes = (
"80 535 OFFCURVE",
"93 531 CURVE",
"110 530 OFFCURVE",
"121 534 OFFCURVE",
"134 539 CURVE",
"137 546 OFFCURVE",
"144 550 OFFCURVE",
"147 558 CURVE",
"149 562 OFFCURVE",
"150 567 OFFCURVE",
"150 573 CURVE",
"147 589 OFFCURVE",
"138 599 OFFCURVE",
"130 610 CURVE",
"126 609 OFFCURVE",
"125 613 OFFCURVE",
"122 614 CURVE",
"111 619 OFFCURVE",
"95 618 OFFCURVE",
"84 614 CURVE",
"76 610 OFFCURVE",
"71 598 OFFCURVE",
"68 591 CURVE",
"67 589 OFFCURVE",
"65 588 OFFCURVE",
"65 586 CURVE",
"60 574 OFFCURVE",
"64 564 OFFCURVE",
"63 548 CURVE",
"74 543 OFFCURVE"
);
},
{
closed = 1;
nodes = (
"81 177 OFFCURVE",
"83 168 OFFCURVE",
"83 157 CURVE SMOOTH",
"83 147 OFFCURVE",
"81 137 OFFCURVE",
"81 127 CURVE",
"85 105 LINE",
"85 99 OFFCURVE",
"83 92 OFFCURVE",
"83 85 CURVE SMOOTH",
"83 39 OFFCURVE",
"87 -8 OFFCURVE",
"78 -51 CURVE",
"88 -87 OFFCURVE",
"74 -132 OFFCURVE",
"78 -167 CURVE",
"86 -176 OFFCURVE",
"100 -180 OFFCURVE",
"116 -182 CURVE",
"124 -176 OFFCURVE",
"128 -167 OFFCURVE",
"130 -156 CURVE",
"124 -141 OFFCURVE",
"127 -123 OFFCURVE",
"125 -106 CURVE",
"120 -97 OFFCURVE",
"122 -85 OFFCURVE",
"122 -76 CURVE SMOOTH",
"122 -72 OFFCURVE",
"120 -70 OFFCURVE",
"120 -67 CURVE",
"124 -30 OFFCURVE",
"122 11 OFFCURVE",
"124 42 CURVE",
"123 48 OFFCURVE",
"123 56 OFFCURVE",
"121 61 CURVE",
"125 189 OFFCURVE",
"123 295 OFFCURVE",
"126 421 CURVE",
"119 428 OFFCURVE",
"103 433 OFFCURVE",
"90 430 CURVE",
"79 422 OFFCURVE",
"83 403 OFFCURVE",
"85 387 CURVE",
"85 381 OFFCURVE",
"82 377 OFFCURVE",
"82 370 CURVE",
"86 347 OFFCURVE",
"81 313 OFFCURVE",
"85 290 CURVE",
"79 273 OFFCURVE",
"84 255 OFFCURVE",
"83 239 CURVE",
"84 230 OFFCURVE",
"85 220 OFFCURVE",
"85 211 CURVE",
"81 187 LINE"
);
}
);
width = 195;
}
);
unicode = 006A;
},
{
glyphname = k;
layers = (
{
layerId = "C5490108-C233-4ADF-8B6D-CFE8E3B23812";
paths = (
{
closed = 1;
nodes = (
"377 26 OFFCURVE",
"373 30 OFFCURVE",
"370 37 CURVE",
"366 41 OFFCURVE",
"359 43 OFFCURVE",
"354 46 CURVE",
"351 60 OFFCURVE",
"335 61 OFFCURVE",
"329 71 CURVE",
"326 75 OFFCURVE",
"309 92 OFFCURVE",
"305 97 CURVE",
"305 97 OFFCURVE",
"289 115 OFFCURVE",
"278 119 CURVE",
"272 129 OFFCURVE",
"224 189 OFFCURVE",
"212 193 CURVE",
"187 217 LINE SMOOTH",
"183 221 OFFCURVE",
"180 227 OFFCURVE",
"174 229 CURVE",
"172 236 OFFCURVE",
"164 235 OFFCURVE",
"165 245 CURVE",
"173 257 OFFCURVE",
"186 262 OFFCURVE",
"195 270 CURVE SMOOTH",
"205 279 OFFCURVE",
"213 290 OFFCURVE",
"225 296 CURVE",
"230 301 OFFCURVE",
"233 307 OFFCURVE",
"238 313 CURVE",
"245 316 OFFCURVE",
"251 319 OFFCURVE",
"258 324 CURVE",
"279 349 LINE",
"287 356 OFFCURVE",
"293 366 OFFCURVE",
"304 371 CURVE",
"308 375 OFFCURVE",
"308 381 OFFCURVE",
"312 385 CURVE",
"320 392 OFFCURVE",
"338 400 OFFCURVE",
"337 413 CURVE SMOOTH",
"336 423 OFFCURVE",
"323 428 OFFCURVE",
"313 431 CURVE",
"293 436 OFFCURVE",
"282 424 OFFCURVE",
"269 420 CURVE",
"260 403 OFFCURVE",
"244 395 OFFCURVE",
"236 378 CURVE",
"220 367 LINE",
"217 359 OFFCURVE",
"210 354 OFFCURVE",
"206 346 CURVE",
"187 332 OFFCURVE",
"173 313 OFFCURVE",
"159 294 CURVE",
"152 290 OFFCURVE",
"148 281 OFFCURVE",
"140 278 CURVE",
"135 272 OFFCURVE",
"128 266 OFFCURVE",
"121 261 CURVE",
"115 268 OFFCURVE",
"115 280 OFFCURVE",
"115 292 CURVE",
"114 321 OFFCURVE",
"117 349 OFFCURVE",
"118 368 CURVE",
"115 381 OFFCURVE",
"113 398 OFFCURVE",
"118 411 CURVE",
"114 503 OFFCURVE",
"122 590 OFFCURVE",
"118 685 CURVE",
"124 704 OFFCURVE",
"121 728 OFFCURVE",
"118 748 CURVE",
"119 756 OFFCURVE",
"123 762 OFFCURVE",
"122 772 CURVE",
"117 779 OFFCURVE",
"110 789 OFFCURVE",
"99 791 CURVE",
"93 791 OFFCURVE",
"88 788 OFFCURVE",
"81 787 CURVE",
"77 781 OFFCURVE",
"75 774 OFFCURVE",
"71 769 CURVE",
"71 754 OFFCURVE",
"75 739 OFFCURVE",
"76 724 CURVE",
"77 715 OFFCURVE",
"76 706 OFFCURVE",
"76 696 CURVE SMOOTH",
"77 652 OFFCURVE",
"77 601 OFFCURVE",
"77 560 CURVE",
"78 543 OFFCURVE",
"72 525 OFFCURVE",
"72 508 CURVE",
"73 495 OFFCURVE",
"75 482 OFFCURVE",
"75 469 CURVE",
"76 448 OFFCURVE",
"76 426 OFFCURVE",
"75 409 CURVE",
"75 404 OFFCURVE",
"77 400 OFFCURVE",
"77 395 CURVE SMOOTH",
"77 387 OFFCURVE",
"74 380 OFFCURVE",
"74 373 CURVE SMOOTH",
"74 358 OFFCURVE",
"76 343 OFFCURVE",
"75 327 CURVE SMOOTH",
"74 298 OFFCURVE",
"77 269 OFFCURVE",
"75 240 CURVE",
"75 192 LINE SMOOTH",
"75 175 OFFCURVE",
"72 160 OFFCURVE",
"72 144 CURVE SMOOTH",
"72 127 OFFCURVE",
"75 110 OFFCURVE",
"75 92 CURVE SMOOTH",
"75 83 OFFCURVE",
"71 73 OFFCURVE",
"70 64 CURVE",
"70 59 OFFCURVE",
"72 55 OFFCURVE",
"72 50 CURVE SMOOTH",
"72 40 OFFCURVE",
"68 31 OFFCURVE",
"69 21 CURVE",
"71 20 OFFCURVE",
"70 15 OFFCURVE",
"72 12 CURVE",
"78 4 OFFCURVE",
"84 -2 OFFCURVE",
"95 -4 CURVE",
"102 -4 OFFCURVE",
"108 -3 OFFCURVE",
"110 1 CURVE",
"114 3 OFFCURVE",
"120 3 OFFCURVE",
"121 9 CURVE",
"122 18 OFFCURVE",
"118 36 OFFCURVE",
"116 48 CURVE",
"116 54 OFFCURVE",
"110 54 OFFCURVE",
"111 61 CURVE",
"114 76 OFFCURVE",
"116 91 OFFCURVE",
"116 106 CURVE SMOOTH",
"116 135 OFFCURVE",
"114 165 OFFCURVE",
"114 196 CURVE",
"121 201 OFFCURVE",
"124 210 OFFCURVE",
"135 210 CURVE SMOOTH",
"142 210 OFFCURVE",
"142 202 OFFCURVE",
"148 199 CURVE",
"150 194 OFFCURVE",
"156 192 OFFCURVE",
"157 185 CURVE",
"165 178 OFFCURVE",
"173 170 OFFCURVE",
"179 160 CURVE",
"195 145 OFFCURVE",
"208 126 OFFCURVE",
"225 111 CURVE",
"227 108 OFFCURVE",
"227 102 OFFCURVE",
"229 99 CURVE",
"238 96 OFFCURVE",
"240 87 OFFCURVE",
"247 83 CURVE",
"299 26 LINE",
"307 23 OFFCURVE",
"310 14 OFFCURVE",
"319 11 CURVE",
"322 9 OFFCURVE",
"327 7 OFFCURVE",
"329 4 CURVE",
"334 3 OFFCURVE",
"331 -7 OFFCURVE",
"338 -6 CURVE",
"352 -3 OFFCURVE",
"355 -11 OFFCURVE",
"367 -11 CURVE",
"377 -5 OFFCURVE",
"383 -1 OFFCURVE",
"383 15 CURVE",
"380 19 LINE"
);
}
);
width = 416;
}
);
unicode = 006B;
},
{
glyphname = l;
layers = (
{
layerId = "C5490108-C233-4ADF-8B6D-CFE8E3B23812";
paths = (
{
closed = 1;
nodes = (
"99 739 OFFCURVE",
"101 759 OFFCURVE",
"99 770 CURVE SMOOTH",
"98 775 OFFCURVE",
"95 778 OFFCURVE",
"92 782 CURVE",
"80 786 OFFCURVE",
"66 782 OFFCURVE",
"58 778 CURVE",
"57 772 OFFCURVE",
"55 766 OFFCURVE",
"55 760 CURVE",
"54 752 OFFCURVE",
"55 744 OFFCURVE",
"55 741 CURVE",
"54 718 OFFCURVE",
"51 695 OFFCURVE",
"53 677 CURVE SMOOTH",
"54 669 OFFCURVE",
"56 660 OFFCURVE",
"56 651 CURVE SMOOTH",
"56 632 OFFCURVE",
"55 613 OFFCURVE",
"55 593 CURVE SMOOTH",
"55 562 OFFCURVE",
"54 529 OFFCURVE",
"53 500 CURVE",
"51 472 OFFCURVE",
"51 436 OFFCURVE",
"53 402 CURVE SMOOTH",
"54 381 OFFCURVE",
"53 360 OFFCURVE",
"53 338 CURVE",
"52 335 OFFCURVE",
"52 332 OFFCURVE",
"53 330 CURVE",
"54 315 OFFCURVE",
"54 288 OFFCURVE",
"53 270 CURVE",
"52 261 OFFCURVE",
"49 252 OFFCURVE",
"47 243 CURVE",
"47 236 OFFCURVE",
"49 228 OFFCURVE",
"49 221 CURVE",
"51 173 OFFCURVE",
"50 116 OFFCURVE",
"51 59 CURVE",
"48 51 OFFCURVE",
"49 38 OFFCURVE",
"46 30 CURVE",
"46 19 OFFCURVE",
"44 5 OFFCURVE",
"51 0 CURVE SMOOTH",
"69 -13 OFFCURVE",
"100 -1 OFFCURVE",
"98 26 CURVE",
"98 28 OFFCURVE",
"96 28 OFFCURVE",
"96 30 CURVE",
"87 90 OFFCURVE",
"96 147 OFFCURVE",
"92 196 CURVE SMOOTH",
"91 205 OFFCURVE",
"91 213 OFFCURVE",
"92 223 CURVE",
"92 232 OFFCURVE",
"91 242 OFFCURVE",
"94 251 CURVE",
"94 275 OFFCURVE",
"97 299 OFFCURVE",
"97 322 CURVE SMOOTH",
"97 329 OFFCURVE",
"95 336 OFFCURVE",
"95 342 CURVE SMOOTH",
"95 350 OFFCURVE",
"96 356 OFFCURVE",
"98 363 CURVE",
"97 369 OFFCURVE",
"94 374 OFFCURVE",
"94 380 CURVE",
"96 387 OFFCURVE",
"97 395 OFFCURVE",
"97 404 CURVE",
"93 445 OFFCURVE",
"99 489 OFFCURVE",
"96 533 CURVE",
"98 537 OFFCURVE",
"98 541 OFFCURVE",
"99 544 CURVE",
"102 572 OFFCURVE",
"97 606 OFFCURVE",
"100 633 CURVE",
"95 650 OFFCURVE",
"98 668 OFFCURVE",
"99 688 CURVE",
"99 721 LINE SMOOTH"
);
}
);
width = 160;
}
);
unicode = 006C;
},
{
glyphname = m;
layers = (
{
layerId = "C5490108-C233-4ADF-8B6D-CFE8E3B23812";
paths = (
{
closed = 1;
nodes = (
"305 155 OFFCURVE",
"303 152 OFFCURVE",
"303 149 CURVE SMOOTH",
"303 122 OFFCURVE",
"304 95 OFFCURVE",
"303 69 CURVE",
"303 59 OFFCURVE",
"302 49 OFFCURVE",
"301 39 CURVE SMOOTH",
"300 29 OFFCURVE",
"297 21 OFFCURVE",
"297 10 CURVE",
"306 -3 OFFCURVE",
"335 -10 OFFCURVE",
"344 9 CURVE",
"349 46 OFFCURVE",
"332 90 OFFCURVE",
"345 126 CURVE",
"340 142 OFFCURVE",
"342 158 OFFCURVE",
"342 176 CURVE SMOOTH",
"342 185 LINE",
"343 189 OFFCURVE",
"342 194 OFFCURVE",
"342 198 CURVE",
"341 241 OFFCURVE",
"343 288 OFFCURVE",
"341 334 CURVE",
"341 340 OFFCURVE",
"338 343 OFFCURVE",
"338 349 CURVE",
"341 356 OFFCURVE",
"337 370 OFFCURVE",
"341 376 CURVE",
"350 375 OFFCURVE",
"355 378 OFFCURVE",
"361 379 CURVE",
"370 380 OFFCURVE",
"371 373 OFFCURVE",
"380 373 CURVE",
"391 377 OFFCURVE",
"402 373 OFFCURVE",
"415 376 CURVE",
"421 377 OFFCURVE",
"423 372 OFFCURVE",
"431 373 CURVE SMOOTH",
"448 375 OFFCURVE",
"470 372 OFFCURVE",
"490 373 CURVE SMOOTH",
"506 374 OFFCURVE",
"522 379 OFFCURVE",
"533 371 CURVE",
"541 342 OFFCURVE",
"531 302 OFFCURVE",
"539 275 CURVE",
"539 269 OFFCURVE",
"533 267 OFFCURVE",
"535 260 CURVE",
"538 242 OFFCURVE",
"537 226 OFFCURVE",
"536 211 CURVE",
"536 204 OFFCURVE",
"534 197 OFFCURVE",
"535 190 CURVE",
"535 183 OFFCURVE",
"537 175 OFFCURVE",
"538 168 CURVE",
"540 126 OFFCURVE",
"537 86 OFFCURVE",
"538 44 CURVE",
"535 34 OFFCURVE",
"530 28 OFFCURVE",
"533 17 CURVE",
"540 10 OFFCURVE",
"558 8 OFFCURVE",
"568 10 CURVE",
"575 14 OFFCURVE",
"580 21 OFFCURVE",
"582 31 CURVE",
"575 47 OFFCURVE",
"574 73 OFFCURVE",
"577 94 CURVE SMOOTH",
"578 102 OFFCURVE",
"572 103 OFFCURVE",
"574 111 CURVE",
"574 140 OFFCURVE",
"576 166 OFFCURVE",
"576 192 CURVE",
"575 212 OFFCURVE",
"572 233 OFFCURVE",
"577 253 CURVE",
"573 272 OFFCURVE",
"576 292 OFFCURVE",
"576 313 CURVE SMOOTH",
"576 337 OFFCURVE",
"575 359 OFFCURVE",
"572 376 CURVE",
"571 387 OFFCURVE",
"578 390 OFFCURVE",
"577 400 CURVE",
"570 408 OFFCURVE",
"561 415 OFFCURVE",
"549 419 CURVE",
"536 419 OFFCURVE",
"524 417 OFFCURVE",
"511 417 CURVE SMOOTH",
"504 417 OFFCURVE",
"496 419 OFFCURVE",
"489 419 CURVE SMOOTH",
"479 419 OFFCURVE",
"470 416 OFFCURVE",
"460 416 CURVE SMOOTH",
"445 416 OFFCURVE",
"429 418 OFFCURVE",
"413 420 CURVE",
"381 414 OFFCURVE",
"343 421 OFFCURVE",
"311 417 CURVE",
"302 418 OFFCURVE",
"296 422 OFFCURVE",
"289 425 CURVE",
"283 421 OFFCURVE",
"275 420 OFFCURVE",
"268 417 CURVE",
"205 419 OFFCURVE",
"140 421 OFFCURVE",
"73 416 CURVE",
"65 400 OFFCURVE",
"66 379 OFFCURVE",
"66 359 CURVE",
"67 337 OFFCURVE",
"65 315 OFFCURVE",
"66 294 CURVE",
"67 288 OFFCURVE",
"70 284 OFFCURVE",
"70 277 CURVE",
"65 260 OFFCURVE",
"66 242 OFFCURVE",
"73 230 CURVE",
"68 225 OFFCURVE",
"69 220 OFFCURVE",
"68 214 CURVE",
"65 188 OFFCURVE",
"67 159 OFFCURVE",
"68 138 CURVE SMOOTH",
"69 106 OFFCURVE",
"63 73 OFFCURVE",
"68 44 CURVE",
"67 34 OFFCURVE",
"64 27 OFFCURVE",
"65 15 CURVE",
"70 2 OFFCURVE",
"98 -4 OFFCURVE",
"109 7 CURVE",
"112 19 OFFCURVE",
"111 28 OFFCURVE",
"109 39 CURVE",
"111 52 OFFCURVE",
"108 70 OFFCURVE",
"109 80 CURVE",
"109 82 OFFCURVE",
"107 82 OFFCURVE",
"107 85 CURVE",
"104 152 OFFCURVE",
"107 207 OFFCURVE",
"106 269 CURVE",
"106 276 OFFCURVE",
"104 285 OFFCURVE",
"104 293 CURVE SMOOTH",
"104 300 OFFCURVE",
"107 307 OFFCURVE",
"107 315 CURVE SMOOTH",
"107 325 OFFCURVE",
"106 336 OFFCURVE",
"106 346 CURVE SMOOTH",
"106 355 OFFCURVE",
"103 366 OFFCURVE",
"109 375 CURVE",
"117 379 OFFCURVE",
"127 373 OFFCURVE",
"137 375 CURVE",
"144 374 OFFCURVE",
"154 374 OFFCURVE",
"163 371 CURVE",
"184 370 OFFCURVE",
"204 374 OFFCURVE",
"221 371 CURVE",
"236 377 OFFCURVE",
"258 374 OFFCURVE",
"274 371 CURVE",
"284 370 OFFCURVE",
"287 376 OFFCURVE",
"297 375 CURVE",
"305 364 OFFCURVE",
"302 340 OFFCURVE",
"303 330 CURVE",
"304 306 OFFCURVE",
"300 283 OFFCURVE",
"303 264 CURVE",
"302 259 OFFCURVE",
"300 256 OFFCURVE",
"300 250 CURVE",
"306 238 OFFCURVE",
"301 225 OFFCURVE",
"301 212 CURVE SMOOTH",
"301 202 OFFCURVE",
"304 193 OFFCURVE",
"304 184 CURVE SMOOTH",
"304 159 LINE"
);
}
);
width = 648;
}
);
unicode = 006D;
},
{
glyphname = n;
layers = (
{
layerId = "C5490108-C233-4ADF-8B6D-CFE8E3B23812";
paths = (
{
closed = 1;
nodes = (
"204 427 OFFCURVE",
"150 423 OFFCURVE",
"98 425 CURVE",
"89 427 OFFCURVE",
"81 430 OFFCURVE",
"71 427 CURVE",
"62 416 OFFCURVE",
"62 399 OFFCURVE",
"63 384 CURVE",
"64 377 OFFCURVE",
"66 372 OFFCURVE",
"67 367 CURVE",
"67 354 OFFCURVE",
"64 342 OFFCURVE",
"63 329 CURVE",
"63 321 OFFCURVE",
"65 313 OFFCURVE",
"65 305 CURVE SMOOTH",
"65 276 OFFCURVE",
"62 245 OFFCURVE",
"63 215 CURVE",
"65 208 OFFCURVE",
"69 203 OFFCURVE",
"70 195 CURVE",
"67 183 OFFCURVE",
"65 171 OFFCURVE",
"63 159 CURVE",
"63 150 OFFCURVE",
"69 148 OFFCURVE",
"68 140 CURVE",
"64 121 OFFCURVE",
"68 102 OFFCURVE",
"68 85 CURVE SMOOTH",
"68 76 OFFCURVE",
"65 68 OFFCURVE",
"65 59 CURVE SMOOTH",
"65 51 OFFCURVE",
"68 44 OFFCURVE",
"67 36 CURVE SMOOTH",
"66 26 OFFCURVE",
"61 16 OFFCURVE",
"65 6 CURVE",
"76 -2 OFFCURVE",
"103 1 OFFCURVE",
"112 9 CURVE",
"114 23 OFFCURVE",
"110 31 OFFCURVE",
"108 42 CURVE",
"105 63 OFFCURVE",
"108 84 OFFCURVE",
"108 105 CURVE SMOOTH",
"108 140 OFFCURVE",
"106 175 OFFCURVE",
"106 209 CURVE SMOOTH",
"106 220 OFFCURVE",
"108 230 OFFCURVE",
"108 241 CURVE",
"107 270 OFFCURVE",
"104 298 OFFCURVE",
"111 324 CURVE",
"106 332 OFFCURVE",
"107 347 OFFCURVE",
"109 357 CURVE",
"109 365 OFFCURVE",
"102 375 OFFCURVE",
"109 381 CURVE",
"118 382 OFFCURVE",
"129 379 OFFCURVE",
"141 378 CURVE SMOOTH",
"177 376 LINE",
"184 375 OFFCURVE",
"189 371 OFFCURVE",
"197 370 CURVE",
"218 379 OFFCURVE",
"279 376 OFFCURVE",
"287 375 CURVE SMOOTH",
"304 373 OFFCURVE",
"311 382 OFFCURVE",
"325 378 CURVE",
"332 371 OFFCURVE",
"331 360 OFFCURVE",
"330 348 CURVE",
"331 314 OFFCURVE",
"325 283 OFFCURVE",
"331 253 CURVE",
"329 195 OFFCURVE",
"331 139 OFFCURVE",
"331 86 CURVE",
"327 67 LINE",
"328 61 OFFCURVE",
"328 52 OFFCURVE",
"328 44 CURVE",
"327 34 OFFCURVE",
"321 22 OFFCURVE",
"325 12 CURVE",
"334 7 OFFCURVE",
"346 5 OFFCURVE",
"357 3 CURVE",
"366 5 OFFCURVE",
"370 12 OFFCURVE",
"376 18 CURVE",
"377 25 OFFCURVE",
"377 32 OFFCURVE",
"377 40 CURVE",
"373 49 OFFCURVE",
"373 61 OFFCURVE",
"369 70 CURVE",
"368 149 OFFCURVE",
"370 231 OFFCURVE",
"372 313 CURVE",
"374 321 OFFCURVE",
"368 321 OFFCURVE",
"369 329 CURVE",
"372 343 OFFCURVE",
"371 360 OFFCURVE",
"371 378 CURVE SMOOTH",
"371 395 OFFCURVE",
"374 413 OFFCURVE",
"368 423 CURVE",
"354 430 OFFCURVE",
"335 426 OFFCURVE",
"317 427 CURVE",
"302 427 OFFCURVE",
"286 429 OFFCURVE",
"273 430 CURVE",
"253 425 LINE"
);
},
{
closed = 1;
nodes = (
"287 359 OFFCURVE",
"289 359 CURVE",
"288 360 OFFCURVE",
"289 362 OFFCURVE",
"287 362 CURVE",
"288 361 OFFCURVE"
);
}
);
width = 434;
}
);
unicode = 006E;
},
{
glyphname = o;
layers = (
{
layerId = "C5490108-C233-4ADF-8B6D-CFE8E3B23812";
paths = (
{
closed = 1;
nodes = (
"111 387 OFFCURVE",
"102 376 OFFCURVE",
"91 367 CURVE",
"85 358 OFFCURVE",
"79 348 OFFCURVE",
"73 341 CURVE SMOOTH",
"69 336 OFFCURVE",
"64 331 OFFCURVE",
"64 323 CURVE",
"50 310 OFFCURVE",
"50 283 OFFCURVE",
"42 264 CURVE",
"40 245 OFFCURVE",
"42 221 OFFCURVE",
"37 204 CURVE",
"39 196 OFFCURVE",
"39 185 OFFCURVE",
"39 174 CURVE",
"45 154 OFFCURVE",
"51 133 OFFCURVE",
"61 116 CURVE",
"63 112 OFFCURVE",
"61 104 OFFCURVE",
"64 100 CURVE",
"68 93 OFFCURVE",
"73 87 OFFCURVE",
"75 78 CURVE",
"84 69 OFFCURVE",
"96 62 OFFCURVE",
"105 53 CURVE",
"110 49 OFFCURVE",
"115 45 OFFCURVE",
"121 42 CURVE",
"121 33 OFFCURVE",
"130 32 OFFCURVE",
"133 26 CURVE",
"144 23 OFFCURVE",
"154 20 OFFCURVE",
"163 15 CURVE",
"182 17 OFFCURVE",
"198 5 OFFCURVE",
"217 3 CURVE",
"224 2 OFFCURVE",
"232 3 OFFCURVE",
"239 3 CURVE",
"246 2 OFFCURVE",
"253 1 OFFCURVE",
"259 1 CURVE",
"277 2 OFFCURVE",
"293 8 OFFCURVE",
"311 6 CURVE",
"333 11 OFFCURVE",
"354 17 OFFCURVE",
"371 26 CURVE",
"388 36 OFFCURVE",
"402 49 OFFCURVE",
"420 58 CURVE",
"428 74 LINE",
"429 81 OFFCURVE",
"437 80 OFFCURVE",
"438 88 CURVE",
"444 98 OFFCURVE",
"451 107 OFFCURVE",
"458 116 CURVE",
"463 144 LINE",
"466 153 OFFCURVE",
"470 161 OFFCURVE",
"472 171 CURVE",
"477 207 LINE",
"477 208 OFFCURVE",
"477 209 OFFCURVE",
"475 209 CURVE",
"474 231 OFFCURVE",
"472 251 OFFCURVE",
"469 271 CURVE",
"467 291 OFFCURVE",
"455 303 OFFCURVE",
"452 323 CURVE",
"443 331 OFFCURVE",
"437 342 OFFCURVE",
"431 354 CURVE",
"427 354 OFFCURVE",
"428 358 OFFCURVE",
"427 360 CURVE",
"415 375 OFFCURVE",
"396 383 OFFCURVE",
"386 398 CURVE",
"370 403 OFFCURVE",
"361 415 OFFCURVE",
"346 422 CURVE",
"330 427 OFFCURVE",
"315 433 OFFCURVE",
"297 436 CURVE",
"289 433 OFFCURVE",
"281 433 OFFCURVE",
"270 434 CURVE",
"264 435 OFFCURVE",
"265 429 OFFCURVE",
"258 430 CURVE",
"243 438 OFFCURVE",
"226 427 OFFCURVE",
"211 431 CURVE",
"194 427 OFFCURVE",
"181 420 OFFCURVE",
"160 420 CURVE",
"124 395 LINE"
);
},
{
closed = 1;
nodes = (
"436 237 OFFCURVE",
"438 233 CURVE",
"439 233 OFFCURVE",
"439 232 OFFCURVE",
"439 231 CURVE",
"437 216 OFFCURVE",
"431 205 OFFCURVE",
"433 187 CURVE",
"429 172 OFFCURVE",
"422 160 OFFCURVE",
"419 144 CURVE",
"410 138 OFFCURVE",
"404 128 OFFCURVE",
"400 116 CURVE",
"391 108 OFFCURVE",
"382 100 OFFCURVE",
"376 89 CURVE",
"370 87 OFFCURVE",
"367 83 OFFCURVE",
"363 78 CURVE",
"354 77 OFFCURVE",
"347 73 OFFCURVE",
"341 67 CURVE",
"327 63 OFFCURVE",
"314 58 OFFCURVE",
"302 51 CURVE",
"283 53 OFFCURVE",
"270 49 OFFCURVE",
"255 47 CURVE",
"241 46 OFFCURVE",
"234 53 OFFCURVE",
"220 51 CURVE",
"210 60 OFFCURVE",
"194 62 OFFCURVE",
"177 64 CURVE",
"172 67 OFFCURVE",
"167 71 OFFCURVE",
"163 77 CURVE",
"155 78 OFFCURVE",
"151 82 OFFCURVE",
"144 85 CURVE",
"135 99 OFFCURVE",
"120 109 OFFCURVE",
"110 122 CURVE",
"106 133 OFFCURVE",
"101 142 OFFCURVE",
"95 151 CURVE",
"94 165 OFFCURVE",
"87 174 OFFCURVE",
"89 192 CURVE",
"88 198 OFFCURVE",
"83 199 OFFCURVE",
"83 206 CURVE",
"84 223 OFFCURVE",
"89 244 OFFCURVE",
"83 260 CURVE",
"85 264 OFFCURVE",
"85 268 OFFCURVE",
"86 272 CURVE",
"89 281 OFFCURVE",
"98 286 OFFCURVE",
"97 299 CURVE",
"103 303 OFFCURVE",
"109 307 OFFCURVE",
"114 312 CURVE",
"115 317 OFFCURVE",
"119 320 OFFCURVE",
"119 326 CURVE",
"130 333 OFFCURVE",
"140 343 OFFCURVE",
"147 354 CURVE",
"161 361 OFFCURVE",
"173 368 OFFCURVE",
"185 376 CURVE",
"206 376 OFFCURVE",
"223 380 OFFCURVE",
"239 386 CURVE",
"252 383 OFFCURVE",
"264 387 OFFCURVE",
"280 386 CURVE",
"292 381 OFFCURVE",
"308 379 OFFCURVE",
"324 378 CURVE",
"332 371 OFFCURVE",
"357 359 OFFCURVE",
"362 359 CURVE",
"381 340 OFFCURVE",
"397 319 OFFCURVE",
"415 299 CURVE",
"416 286 OFFCURVE",
"422 279 OFFCURVE",
"430 272 CURVE",
"428 260 OFFCURVE",
"430 254 OFFCURVE",
"430 241 CURVE SMOOTH",
"430 236 OFFCURVE"
);
}
);
width = 511;
}
);
unicode = 006F;
},
